solid OpenSCAD_Model
  facet normal -1 0 0
    outer loop
      vertex 8 -0.6499999985098839 -2.9802322831784522e-9
      vertex 8 -0.5 -2.9802322831784522e-9
      vertex 8 -1.1499999985098839 -2.5999999970197676
    endloop
  endfacet
  facet normal -1 0 0
    outer loop
      vertex 8 -1.1499999985098839 -2.5999999970197676
      vertex 8 -0.5 -2.9802322831784522e-9
      vertex 8 0.5 -2.9802322831784522e-9
    endloop
  endfacet
  facet normal 0 -0.9820064469003608 0.18884739406761483
    outer loop
      vertex 8 -1.1499999985098839 -2.5999999970197676
      vertex 63 -0.6499999985098839 -2.9802322831784522e-9
      vertex 8 -0.6499999985098839 -2.9802322831784522e-9
    endloop
  endfacet
  facet normal 0 0 1
    outer loop
      vertex 8 -0.6499999985098839 -2.9802322831784522e-9
      vertex 63 -0.6499999985098839 -2.9802322831784522e-9
      vertex 8 -0.5 -2.9802322831784522e-9
    endloop
  endfacet
  facet normal 0 0 -1
    outer loop
      vertex 8 -1.1499999985098839 -2.5999999970197676
      vertex 8 1.1499999985098839 -2.5999999970197676
      vertex 63 -1.1499999985098839 -2.5999999970197676
    endloop
  endfacet
  facet normal -1 0 0
    outer loop
      vertex 8 -1.1499999985098839 -2.5999999970197676
      vertex 8 0.6499999985098839 -2.9802322831784522e-9
      vertex 8 1.1499999985098839 -2.5999999970197676
    endloop
  endfacet
  facet normal -1 0 0
    outer loop
      vertex 8 -1.1499999985098839 -2.5999999970197676
      vertex 8 0.5 -2.9802322831784522e-9
      vertex 8 0.6499999985098839 -2.9802322831784522e-9
    endloop
  endfacet
  facet normal 0 0 1
    outer loop
      vertex 8 0.6499999985098839 -2.9802322831784522e-9
      vertex 8 0.5 -2.9802322831784522e-9
      vertex 63 0.5 -2.9802322831784522e-9
    endloop
  endfacet
  facet normal 0 0.9820064469003608 0.18884739406761483
    outer loop
      vertex 8 1.1499999985098839 -2.5999999970197676
      vertex 8 0.6499999985098839 -2.9802322831784522e-9
      vertex 63 1.1499999985098839 -2.5999999970197676
    endloop
  endfacet
  facet normal 0 -0.9820064469003608 0.18884739406761483
    outer loop
      vertex 8 -1.1499999985098839 -2.5999999970197676
      vertex 63 -1.1499999985098839 -2.5999999970197676
      vertex 63 -0.6499999985098839 -2.9802322831784522e-9
    endloop
  endfacet
  facet normal 0 0 1
    outer loop
      vertex 63 -0.6499999985098839 -2.9802322831784522e-9
      vertex 63 -0.5 -2.9802322831784522e-9
      vertex 8 -0.5 -2.9802322831784522e-9
    endloop
  endfacet
  facet normal 1 0 0
    outer loop
      vertex 63 -1.1499999985098839 -2.5999999970197676
      vertex 63 -0.5 -2.9802322831784522e-9
      vertex 63 -0.6499999985098839 -2.9802322831784522e-9
    endloop
  endfacet
  facet normal 1 0 0
    outer loop
      vertex 63 -1.1499999985098839 -2.5999999970197676
      vertex 63 0.5 -2.9802322831784522e-9
      vertex 63 -0.5 -2.9802322831784522e-9
    endloop
  endfacet
  facet normal 0 0 -1
    outer loop
      vertex 8 1.1499999985098839 -2.5999999970197676
      vertex 63 1.1499999985098839 -2.5999999970197676
      vertex 63 -1.1499999985098839 -2.5999999970197676
    endloop
  endfacet
  facet normal 0 0.9820064469003608 0.18884739406761483
    outer loop
      vertex 8 0.6499999985098839 -2.9802322831784522e-9
      vertex 63 0.6499999985098839 -2.9802322831784522e-9
      vertex 63 1.1499999985098839 -2.5999999970197676
    endloop
  endfacet
  facet normal 0 0 1
    outer loop
      vertex 8 0.6499999985098839 -2.9802322831784522e-9
      vertex 63 0.5 -2.9802322831784522e-9
      vertex 63 0.6499999985098839 -2.9802322831784522e-9
    endloop
  endfacet
  facet normal 1 0 0
    outer loop
      vertex 63 -1.1499999985098839 -2.5999999970197676
      vertex 63 1.1499999985098839 -2.5999999970197676
      vertex 63 0.6499999985098839 -2.9802322831784522e-9
    endloop
  endfacet
  facet normal 1 0 0
    outer loop
      vertex 63 -1.1499999985098839 -2.5999999970197676
      vertex 63 0.6499999985098839 -2.9802322831784522e-9
      vertex 63 0.5 -2.9802322831784522e-9
    endloop
  endfacet
  facet normal -1 0 0
    outer loop
      vertex 8 -0.5 3
      vertex 8 0.5 -2.9802322831784522e-9
      vertex 8 -0.5 -2.9802322831784522e-9
    endloop
  endfacet
  facet normal 0 -1 0
    outer loop
      vertex 8 -0.5 3
      vertex 8 -0.5 -2.9802322831784522e-9
      vertex 63 -0.5 3
    endloop
  endfacet
  facet normal 0 0 1
    outer loop
      vertex 8 -0.5 3
      vertex 63 -0.5 3
      vertex 8 0.5 3
    endloop
  endfacet
  facet normal -1 0 0
    outer loop
      vertex 8 -0.5 3
      vertex 8 0.5 3
      vertex 8 0.5 -2.9802322831784522e-9
    endloop
  endfacet
  facet normal 0 1 0
    outer loop
      vertex 8 0.5 3
      vertex 63 0.5 -2.9802322831784522e-9
      vertex 8 0.5 -2.9802322831784522e-9
    endloop
  endfacet
  facet normal 0 -1 0
    outer loop
      vertex 63 -0.5 3
      vertex 8 -0.5 -2.9802322831784522e-9
      vertex 63 -0.5 -2.9802322831784522e-9
    endloop
  endfacet
  facet normal 1 0 0
    outer loop
      vertex 63 -0.5 3
      vertex 63 -0.5 -2.9802322831784522e-9
      vertex 63 0.5 3
    endloop
  endfacet
  facet normal 0 0 1
    outer loop
      vertex 8 0.5 3
      vertex 63 -0.5 3
      vertex 63 0.5 3
    endloop
  endfacet
  facet normal 0 1 0
    outer loop
      vertex 8 0.5 3
      vertex 63 0.5 3
      vertex 63 0.5 -2.9802322831784522e-9
    endloop
  endfacet
  facet normal 1 0 0
    outer loop
      vertex 63 0.5 3
      vertex 63 -0.5 -2.9802322831784522e-9
      vertex 63 0.5 -2.9802322831784522e-9
    endloop
  endfacet
endsolid OpenSCAD_Model
