solid OpenSCAD_Model
  facet normal 0 -1 0
    outer loop
      vertex -37 0 0
      vertex -31.5 0 6
      vertex -31.5 0 7.5
    endloop
  endfacet
  facet normal 0 -1 0
    outer loop
      vertex -37 0 0
      vertex -31.5 0 7.5
      vertex -37 0 7.5
    endloop
  endfacet
  facet normal 0 0 1
    outer loop
      vertex -37 0 7.5
      vertex -31.5 0 7.5
      vertex -31.5 3.3125000000000004 7.5
    endloop
  endfacet
  facet normal 0 0 1
    outer loop
      vertex -37 0 7.5
      vertex -31.5 3.3125000000000004 7.5
      vertex -31.5 4.25 7.5
    endloop
  endfacet
  facet normal -1 0 0
    outer loop
      vertex -37 0 0
      vertex -37 0 7.5
      vertex -37 12 7.5
    endloop
  endfacet
  facet normal 0 0 1
    outer loop
      vertex -37 0 7.5
      vertex -31.5 4.25 7.5
      vertex -31.5 12 7.5
    endloop
  endfacet
  facet normal 0 -1 0
    outer loop
      vertex -37 0 0
      vertex 31.5 0 6
      vertex -31.5 0 6
    endloop
  endfacet
  facet normal -1 0 0
    outer loop
      vertex -37 0 0
      vertex -37 12 7.5
      vertex -37 12 0
    endloop
  endfacet
  facet normal 0 0 -1
    outer loop
      vertex -37 0 0
      vertex -37 12 0
      vertex 37 12 0
    endloop
  endfacet
  facet normal 0 1 0
    outer loop
      vertex -37 12 0
      vertex -31.5 12 6
      vertex 37 12 0
    endloop
  endfacet
  facet normal 0 0 1
    outer loop
      vertex -37 0 7.5
      vertex -31.5 12 7.5
      vertex -37 12 7.5
    endloop
  endfacet
  facet normal 0 1 0
    outer loop
      vertex -37 12 0
      vertex -37 12 7.5
      vertex -31.5 12 6
    endloop
  endfacet
  facet normal 0 1 0
    outer loop
      vertex -31.5 12 6
      vertex -37 12 7.5
      vertex -31.5 12 7.5
    endloop
  endfacet
  facet normal 0 -1 0
    outer loop
      vertex -37 0 0
      vertex 37 0 0
      vertex 31.5 0 6
    endloop
  endfacet
  facet normal 0 0 -1
    outer loop
      vertex -37 0 0
      vertex 37 12 0
      vertex 37 0 0
    endloop
  endfacet
  facet normal 1 0 0
    outer loop
      vertex 37 0 0
      vertex 37 12 0
      vertex 37 0 7.5
    endloop
  endfacet
  facet normal 0 -1 0
    outer loop
      vertex 37 0 0
      vertex 37 0 7.5
      vertex 31.5 0 6
    endloop
  endfacet
  facet normal 0 -1 0
    outer loop
      vertex 31.5 0 6
      vertex 37 0 7.5
      vertex 31.5 0 7.5
    endloop
  endfacet
  facet normal 0 0 1
    outer loop
      vertex 31.5 0 7.5
      vertex 37 0 7.5
      vertex 37 12 7.5
    endloop
  endfacet
  facet normal 0 0 1
    outer loop
      vertex 31.5 0 7.5
      vertex 37 12 7.5
      vertex 31.5 3.3125000000000004 7.5
    endloop
  endfacet
  facet normal 0 1 0
    outer loop
      vertex -31.5 12 6
      vertex 31.5 12 6
      vertex 37 12 0
    endloop
  endfacet
  facet normal 1 0 0
    outer loop
      vertex 37 0 7.5
      vertex 37 12 0
      vertex 37 12 7.5
    endloop
  endfacet
  facet normal 0 0 1
    outer loop
      vertex 37 12 7.5
      vertex 31.5 4.25 7.5
      vertex 31.5 3.3125000000000004 7.5
    endloop
  endfacet
  facet normal 0 1 0
    outer loop
      vertex 37 12 0
      vertex 31.5 12 6
      vertex 31.5 12 7.5
    endloop
  endfacet
  facet normal 0 1 0
    outer loop
      vertex 37 12 0
      vertex 31.5 12 7.5
      vertex 37 12 7.5
    endloop
  endfacet
  facet normal 0 0 1
    outer loop
      vertex 31.5 12 7.5
      vertex 31.5 4.25 7.5
      vertex 37 12 7.5
    endloop
  endfacet
  facet normal 1 0 0
    outer loop
      vertex -31.5 0 6
      vertex -31.5 2 6.1
      vertex -31.5 0 7.5
    endloop
  endfacet
  facet normal 1 0 0
    outer loop
      vertex -31.5 0 6
      vertex -31.5 2 6
      vertex -31.5 2 6.1
    endloop
  endfacet
  facet normal 1 0 0
    outer loop
      vertex -31.5 0 7.5
      vertex -31.5 2 6.1
      vertex -31.5 3.3125000000000004 7.5
    endloop
  endfacet
  facet normal 0 0 1
    outer loop
      vertex -31.5 0 6
      vertex 31.5 0 6
      vertex -31.5 2 6
    endloop
  endfacet
  facet normal 1 0 0
    outer loop
      vertex -31.5 12 6
      vertex -31.5 4.25 7.5
      vertex -31.5 3.5 6
    endloop
  endfacet
  facet normal 1 0 0
    outer loop
      vertex -31.5 12 6
      vertex -31.5 12 7.5
      vertex -31.5 4.25 7.5
    endloop
  endfacet
  facet normal 0 0 1
    outer loop
      vertex -31.5 12 6
      vertex -31.5 3.5 6
      vertex 31.5 3.5 6
    endloop
  endfacet
  facet normal 0 0 1
    outer loop
      vertex 31.5 0 6
      vertex 31.5 2 6
      vertex -31.5 2 6
    endloop
  endfacet
  facet normal -1 0 0
    outer loop
      vertex 31.5 0 6
      vertex 31.5 0 7.5
      vertex 31.5 2 6.1
    endloop
  endfacet
  facet normal -1 0 0
    outer loop
      vertex 31.5 0 6
      vertex 31.5 2 6.1
      vertex 31.5 2 6
    endloop
  endfacet
  facet normal -1 0 0
    outer loop
      vertex 31.5 0 7.5
      vertex 31.5 3.3125000000000004 7.5
      vertex 31.5 2 6.1
    endloop
  endfacet
  facet normal 0 0 1
    outer loop
      vertex -31.5 12 6
      vertex 31.5 3.5 6
      vertex 31.5 12 6
    endloop
  endfacet
  facet normal -1 0 0
    outer loop
      vertex 31.5 12 6
      vertex 31.5 3.5 6
      vertex 31.5 4.25 7.5
    endloop
  endfacet
  facet normal -1 0 0
    outer loop
      vertex 31.5 12 6
      vertex 31.5 4.25 7.5
      vertex 31.5 12 7.5
    endloop
  endfacet
  facet normal -1 0 0
    outer loop
      vertex -31.5 3.5 7.699999999999999
      vertex -31.5 4.25 7.5
      vertex -31.5 3.3125000000000004 7.5
    endloop
  endfacet
  facet normal -1 0 0
    outer loop
      vertex -31.5 3.5 7.699999999999999
      vertex -31.5 4.3 7.699999999999999
      vertex -31.5 4.25 7.5
    endloop
  endfacet
  facet normal -1 0 0
    outer loop
      vertex -31.5 4.3 7.6
      vertex -31.5 4.25 7.5
      vertex -31.5 4.3 7.699999999999999
    endloop
  endfacet
  facet normal 0 -1 0
    outer loop
      vertex -31.5 2 6
      vertex 31.5 2 6
      vertex -31.5 2 6.1
    endloop
  endfacet
  facet normal 2.29577381337014e-18 -0.7295372041400852 0.6839411288813299
    outer loop
      vertex 31.5 3.5 7.699999999999999
      vertex -31.5 3.3125000000000004 7.5
      vertex -31.5 2 6.1
    endloop
  endfacet
  facet normal 0 -0.7295372041400848 0.6839411288813303
    outer loop
      vertex -31.5 3.5 7.699999999999999
      vertex -31.5 3.3125000000000004 7.5
      vertex 31.5 3.5 7.699999999999999
    endloop
  endfacet
  facet normal 0 0.8944271909999159 -0.4472135954999579
    outer loop
      vertex 31.5 4.3 7.6
      vertex -31.5 3.5 6
      vertex -31.5 4.25 7.5
    endloop
  endfacet
  facet normal 0 0 1
    outer loop
      vertex -31.5 3.5 7.699999999999999
      vertex 31.5 3.5 7.699999999999999
      vertex -31.5 4.3 7.699999999999999
    endloop
  endfacet
  facet normal 0 0.8944271909999159 -0.4472135954999579
    outer loop
      vertex -31.5 4.3 7.6
      vertex 31.5 4.3 7.6
      vertex -31.5 4.25 7.5
    endloop
  endfacet
  facet normal 0 1 0
    outer loop
      vertex -31.5 4.3 7.6
      vertex -31.5 4.3 7.699999999999999
      vertex 31.5 4.3 7.6
    endloop
  endfacet
  facet normal 0 -1 0
    outer loop
      vertex 31.5 2 6
      vertex 31.5 2 6.1
      vertex -31.5 2 6.1
    endloop
  endfacet
  facet normal 0 -0.729537204140085 0.6839411288813299
    outer loop
      vertex 31.5 2 6.1
      vertex 31.5 3.3125000000000004 7.5
      vertex -31.5 2 6.1
    endloop
  endfacet
  facet normal -1.6070416693591035e-17 -0.7295372041400848 0.6839411288813303
    outer loop
      vertex 31.5 3.5 7.699999999999999
      vertex -31.5 2 6.1
      vertex 31.5 3.3125000000000004 7.5
    endloop
  endfacet
  facet normal 0 0.8944271909999159 -0.4472135954999579
    outer loop
      vertex 31.5 4.25 7.5
      vertex 31.5 3.5 6
      vertex -31.5 3.5 6
    endloop
  endfacet
  facet normal 0 0.8944271909999159 -0.4472135954999579
    outer loop
      vertex 31.5 4.3 7.6
      vertex 31.5 4.25 7.5
      vertex -31.5 3.5 6
    endloop
  endfacet
  facet normal 0 0 1
    outer loop
      vertex -31.5 4.3 7.699999999999999
      vertex 31.5 3.5 7.699999999999999
      vertex 31.5 4.3 7.699999999999999
    endloop
  endfacet
  facet normal 0 1 0
    outer loop
      vertex -31.5 4.3 7.699999999999999
      vertex 31.5 4.3 7.699999999999999
      vertex 31.5 4.3 7.6
    endloop
  endfacet
  facet normal 1 0 0
    outer loop
      vertex 31.5 3.5 7.699999999999999
      vertex 31.5 3.3125000000000004 7.5
      vertex 31.5 4.3 7.699999999999999
    endloop
  endfacet
  facet normal 1 0 0
    outer loop
      vertex 31.5 4.3 7.6
      vertex 31.5 3.3125000000000004 7.5
      vertex 31.5 4.25 7.5
    endloop
  endfacet
  facet normal 1 0 0
    outer loop
      vertex 31.5 4.3 7.6
      vertex 31.5 4.3 7.699999999999999
      vertex 31.5 3.3125000000000004 7.5
    endloop
  endfacet
endsolid OpenSCAD_Model
