solid OpenSCAD_Model
  facet normal 0 0 1
    outer loop
      vertex 0 1.5 15
      vertex 55 0 15
      vertex 55 1.5 15
    endloop
  endfacet
  facet normal 0 0 1
    outer loop
      vertex 55 0 15
      vertex 0 1.5 15
      vertex 0 0 15
    endloop
  endfacet
  facet normal 0 0 -1
    outer loop
      vertex 0 0 0
      vertex 55 1.5 0
      vertex 55 0 0
    endloop
  endfacet
  facet normal 0 0 -1
    outer loop
      vertex 55 1.5 0
      vertex 0 0 0
      vertex 0 1.5 0
    endloop
  endfacet
  facet normal 0 -1 0
    outer loop
      vertex 0 0 0
      vertex 55 0 15
      vertex 0 0 15
    endloop
  endfacet
  facet normal 0 -1 0
    outer loop
      vertex 55 0 15
      vertex 0 0 0
      vertex 55 0 0
    endloop
  endfacet
  facet normal 1 0 0
    outer loop
      vertex 55 0 15
      vertex 55 1.5 0
      vertex 55 1.5 15
    endloop
  endfacet
  facet normal 1 0 0
    outer loop
      vertex 55 1.5 0
      vertex 55 0 15
      vertex 55 0 0
    endloop
  endfacet
  facet normal 0 1 0
    outer loop
      vertex 55 1.5 0
      vertex 0 1.5 15
      vertex 55 1.5 15
    endloop
  endfacet
  facet normal 0 1 0
    outer loop
      vertex 0 1.5 15
      vertex 55 1.5 0
      vertex 0 1.5 0
    endloop
  endfacet
  facet normal -1 0 0
    outer loop
      vertex 0 0 0
      vertex 0 1.5 15
      vertex 0 1.5 0
    endloop
  endfacet
  facet normal -1 0 0
    outer loop
      vertex 0 1.5 15
      vertex 0 0 0
      vertex 0 0 15
    endloop
  endfacet
endsolid OpenSCAD_Model
