solid OpenSCAD_Model
  facet normal -0.7705132427757888 -0.6374239897486901 0
    outer loop
      vertex -3.6448431371070584 -3.4227355296434423 0
      vertex -3.6448431371070584 -3.4227355296434423 2
      vertex -4.045084971874737 -2.938926261462366 2
    endloop
  endfacet
  facet normal -0.8443279255020154 -0.535826794978996 0
    outer loop
      vertex -4.045084971874737 -2.938926261462366 0
      vertex -4.381533400219317 -2.408768370508577 2
      vertex -4.381533400219317 -2.408768370508577 0
    endloop
  endfacet
  facet normal -0.7705132427757888 -0.6374239897486901 0
    outer loop
      vertex -4.045084971874737 -2.938926261462366 0
      vertex -3.6448431371070584 -3.4227355296434423 0
      vertex -4.045084971874737 -2.938926261462366 2
    endloop
  endfacet
  facet normal -0.8443279255020154 -0.535826794978996 0
    outer loop
      vertex -4.045084971874737 -2.938926261462366 0
      vertex -4.045084971874737 -2.938926261462366 2
      vertex -4.381533400219317 -2.408768370508577 2
    endloop
  endfacet
  facet normal -0.5877852522924722 -0.8090169943749481 0
    outer loop
      vertex -3.1871199487434483 -3.852566213878947 0
      vertex -2.6791339748949836 -4.221639627510075 0
      vertex -2.6791339748949836 -4.221639627510075 2
    endloop
  endfacet
  facet normal -0.5877852522924722 -0.8090169943749481 0
    outer loop
      vertex -3.1871199487434483 -3.852566213878947 0
      vertex -2.6791339748949836 -4.221639627510075 2
      vertex -3.1871199487434483 -3.852566213878947 2
    endloop
  endfacet
  facet normal -0.6845471059286894 -0.7289686274214109 0
    outer loop
      vertex -3.1871199487434483 -3.852566213878947 0
      vertex -3.1871199487434483 -3.852566213878947 2
      vertex -3.6448431371070584 -3.4227355296434423 0
    endloop
  endfacet
  facet normal -0.6845471059286894 -0.7289686274214109 0
    outer loop
      vertex -3.6448431371070584 -3.4227355296434423 0
      vertex -3.1871199487434483 -3.852566213878947 2
      vertex -3.6448431371070584 -3.4227355296434423 2
    endloop
  endfacet
  facet normal -0.9048270524660195 -0.42577929156507305 0
    outer loop
      vertex -4.381533400219317 -2.408768370508577 0
      vertex -4.648882429441257 -1.8406227634233894 2
      vertex -4.648882429441257 -1.8406227634233894 0
    endloop
  endfacet
  facet normal -0.9048270524660195 -0.42577929156507305 0
    outer loop
      vertex -4.381533400219317 -2.408768370508577 0
      vertex -4.381533400219317 -2.408768370508577 2
      vertex -4.648882429441257 -1.8406227634233894 2
    endloop
  endfacet
  facet normal -0.9510565162951536 -0.30901699437494723 0
    outer loop
      vertex -4.648882429441257 -1.8406227634233894 0
      vertex -4.842915805643155 -1.2434494358242743 2
      vertex -4.842915805643155 -1.2434494358242743 0
    endloop
  endfacet
  facet normal -0.9510565162951536 -0.30901699437494723 0
    outer loop
      vertex -4.648882429441257 -1.8406227634233894 0
      vertex -4.648882429441257 -1.8406227634233894 2
      vertex -4.842915805643155 -1.2434494358242743 2
    endloop
  endfacet
  facet normal -0.9822872507286885 -0.1873813145857251 0
    outer loop
      vertex -4.842915805643155 -1.2434494358242743 0
      vertex -4.9605735065723895 -0.6266661678215203 2
      vertex -4.9605735065723895 -0.6266661678215203 0
    endloop
  endfacet
  facet normal -0.9822872507286885 -0.1873813145857251 0
    outer loop
      vertex -4.842915805643155 -1.2434494358242743 0
      vertex -4.842915805643155 -1.2434494358242743 2
      vertex -4.9605735065723895 -0.6266661678215203 2
    endloop
  endfacet
  facet normal 0 0 -1
    outer loop
      vertex -4.648882429441257 -1.8406227634233894 0
      vertex -4.842915805643155 -1.2434494358242743 0
      vertex -4.648882429441257 1.8406227634233894 0
    endloop
  endfacet
  facet normal 0 0 -1
    outer loop
      vertex -4.842915805643155 -1.2434494358242743 0
      vertex -4.9605735065723895 -0.6266661678215203 0
      vertex -4.842915805643155 1.2434494358242743 0
    endloop
  endfacet
  facet normal -0.9980267284282716 -0.06279051952931293 0
    outer loop
      vertex -4.9605735065723895 -0.6266661678215203 0
      vertex -5 0 2
      vertex -5 0 0
    endloop
  endfacet
  facet normal 0 0 -1
    outer loop
      vertex -4.381533400219317 -2.408768370508577 0
      vertex -4.648882429441257 -1.8406227634233894 0
      vertex -4.381533400219317 2.408768370508577 0
    endloop
  endfacet
  facet normal -0.9980267284282716 -0.06279051952931293 0
    outer loop
      vertex -4.9605735065723895 -0.6266661678215203 0
      vertex -4.9605735065723895 -0.6266661678215203 2
      vertex -5 0 2
    endloop
  endfacet
  facet normal 0 0 -1
    outer loop
      vertex -4.045084971874737 -2.938926261462366 0
      vertex -4.381533400219317 -2.408768370508577 0
      vertex -4.045084971874737 2.938926261462366 0
    endloop
  endfacet
  facet normal 0 0 -1
    outer loop
      vertex -4.045084971874737 -2.938926261462366 0
      vertex -3.6448431371070584 3.4227355296434423 0
      vertex -3.6448431371070584 -3.4227355296434423 0
    endloop
  endfacet
  facet normal 0 0 1
    outer loop
      vertex -4.381533400219317 -2.408768370508577 2
      vertex -4.648882429441257 1.8406227634233894 2
      vertex -4.648882429441257 -1.8406227634233894 2
    endloop
  endfacet
  facet normal 0 0 1
    outer loop
      vertex -4.842915805643155 -1.2434494358242743 2
      vertex -4.9605735065723895 0.6266661678215203 2
      vertex -4.9605735065723895 -0.6266661678215203 2
    endloop
  endfacet
  facet normal 0 0 1
    outer loop
      vertex -4.648882429441257 -1.8406227634233894 2
      vertex -4.842915805643155 1.2434494358242743 2
      vertex -4.842915805643155 -1.2434494358242743 2
    endloop
  endfacet
  facet normal 0 0 1
    outer loop
      vertex -4.045084971874737 -2.938926261462366 2
      vertex -4.381533400219317 2.408768370508577 2
      vertex -4.381533400219317 -2.408768370508577 2
    endloop
  endfacet
  facet normal 0 0 1
    outer loop
      vertex -4.045084971874737 -2.938926261462366 2
      vertex -3.6448431371070584 -3.4227355296434423 2
      vertex -4.045084971874737 2.938926261462366 2
    endloop
  endfacet
  facet normal 0 0 -1
    outer loop
      vertex -3.1871199487434483 -3.852566213878947 0
      vertex -2.6791339748949836 4.221639627510075 0
      vertex -2.6791339748949836 -4.221639627510075 0
    endloop
  endfacet
  facet normal 0 0 1
    outer loop
      vertex -3.1871199487434483 -3.852566213878947 2
      vertex -3.6448431371070584 3.4227355296434423 2
      vertex -3.6448431371070584 -3.4227355296434423 2
    endloop
  endfacet
  facet normal 0 0 1
    outer loop
      vertex -3.1871199487434483 -3.852566213878947 2
      vertex -2.6791339748949836 -4.221639627510075 2
      vertex -3.1871199487434483 3.852566213878947 2
    endloop
  endfacet
  facet normal 0 0 -1
    outer loop
      vertex -3.1871199487434483 -3.852566213878947 0
      vertex -3.6448431371070584 -3.4227355296434423 0
      vertex -3.1871199487434483 3.852566213878947 0
    endloop
  endfacet
  facet normal -0.4817536741017159 -0.8763066800438633 0
    outer loop
      vertex -2.6791339748949836 -4.221639627510075 0
      vertex -2.128896457825362 -4.524135262330098 0
      vertex -2.128896457825362 -4.524135262330098 2
    endloop
  endfacet
  facet normal -0.3681245526846768 -0.9297764858882519 0
    outer loop
      vertex -2.128896457825362 -4.524135262330098 0
      vertex -1.545084971874737 -4.755282581475767 2
      vertex -2.128896457825362 -4.524135262330098 2
    endloop
  endfacet
  facet normal -0.4817536741017159 -0.8763066800438633 0
    outer loop
      vertex -2.6791339748949836 -4.221639627510075 0
      vertex -2.128896457825362 -4.524135262330098 2
      vertex -2.6791339748949836 -4.221639627510075 2
    endloop
  endfacet
  facet normal -0.3681245526846768 -0.9297764858882519 0
    outer loop
      vertex -2.128896457825362 -4.524135262330098 0
      vertex -1.545084971874737 -4.755282581475767 0
      vertex -1.545084971874737 -4.755282581475767 2
    endloop
  endfacet
  facet normal -0.2486898871648558 -0.9685831611286309 0
    outer loop
      vertex -1.545084971874737 -4.755282581475767 0
      vertex -0.9369065729286241 -4.911436253643443 2
      vertex -1.545084971874737 -4.755282581475767 2
    endloop
  endfacet
  facet normal 0 0 1
    outer loop
      vertex -1.545084971874737 -4.755282581475767 2
      vertex -0.9369065729286241 -4.911436253643443 2
      vertex -1.2859843079495923 -2.026387021204836 2
    endloop
  endfacet
  facet normal 0 0 1
    outer loop
      vertex -2.128896457825362 -4.524135262330098 2
      vertex -1.7495247058113879 -1.6429130542288524 2
      vertex -1.9416407864998737 -1.4106846055019355 2
    endloop
  endfacet
  facet normal 0 0 1
    outer loop
      vertex -2.128896457825362 -4.524135262330098 2
      vertex -1.545084971874737 -4.755282581475767 2
      vertex -1.7495247058113879 -1.6429130542288524 2
    endloop
  endfacet
  facet normal 0 0 1
    outer loop
      vertex -1.545084971874737 -4.755282581475767 2
      vertex -1.529817575396855 -1.8492317826618945 2
      vertex -1.7495247058113879 -1.6429130542288524 2
    endloop
  endfacet
  facet normal 0 0 1
    outer loop
      vertex -1.545084971874737 -4.755282581475767 2
      vertex -1.2859843079495923 -2.026387021204836 2
      vertex -1.529817575396855 -1.8492317826618945 2
    endloop
  endfacet
  facet normal -0.2486898871648558 -0.9685831611286309 0
    outer loop
      vertex -1.545084971874737 -4.755282581475767 0
      vertex -0.9369065729286241 -4.911436253643443 0
      vertex -0.9369065729286241 -4.911436253643443 2
    endloop
  endfacet
  facet normal -0.12533323356430498 -0.9921147013144778 0
    outer loop
      vertex -0.9369065729286241 -4.911436253643443 0
      vertex -0.3139525976465688 -4.990133642141358 2
      vertex -0.9369065729286241 -4.911436253643443 2
    endloop
  endfacet
  facet normal -0.12533323356430498 -0.9921147013144778 0
    outer loop
      vertex -0.9369065729286241 -4.911436253643443 0
      vertex -0.3139525976465688 -4.990133642141358 0
      vertex -0.3139525976465688 -4.990133642141358 2
    endloop
  endfacet
  facet normal 0 -1 0
    outer loop
      vertex -0.3139525976465688 -4.990133642141358 0
      vertex 0.3139525976465688 -4.990133642141358 2
      vertex -0.3139525976465688 -4.990133642141358 2
    endloop
  endfacet
  facet normal 0 0 1
    outer loop
      vertex -0.9369065729286241 -4.911436253643443 2
      vertex -0.3139525976465688 -4.990133642141358 2
      vertex -0.7416407864998737 -2.282535639108368 2
    endloop
  endfacet
  facet normal 0 0 1
    outer loop
      vertex -0.9369065729286241 -4.911436253643443 2
      vertex -0.7416407864998737 -2.282535639108368 2
      vertex -1.0218702997561737 -2.171584925918447 2
    endloop
  endfacet
  facet normal 0 0 1
    outer loop
      vertex -0.9369065729286241 -4.911436253643443 2
      vertex -1.0218702997561737 -2.171584925918447 2
      vertex -1.2859843079495923 -2.026387021204836 2
    endloop
  endfacet
  facet normal 0 0 1
    outer loop
      vertex -0.3139525976465688 -4.990133642141358 2
      vertex -0.44971515500573955 -2.3574894017488526 2
      vertex -0.7416407864998737 -2.282535639108368 2
    endloop
  endfacet
  facet normal 0 0 1
    outer loop
      vertex -0.3139525976465688 -4.990133642141358 2
      vertex -0.15069724687035302 -2.395264148227852 2
      vertex -0.44971515500573955 -2.3574894017488526 2
    endloop
  endfacet
  facet normal 0 0 1
    outer loop
      vertex -0.3139525976465688 -4.990133642141358 2
      vertex 0.15069724687035302 -2.395264148227852 2
      vertex -0.15069724687035302 -2.395264148227852 2
    endloop
  endfacet
  facet normal 0 0 -1
    outer loop
      vertex -2.6791339748949836 -4.221639627510075 0
      vertex -2.1288964578253635 4.524135262330097 0
      vertex -2.128896457825362 -4.524135262330098 0
    endloop
  endfacet
  facet normal 0 0 -1
    outer loop
      vertex -2.128896457825362 -4.524135262330098 0
      vertex -1.545084971874737 4.755282581475767 0
      vertex -1.545084971874737 -4.755282581475767 0
    endloop
  endfacet
  facet normal 0 0 1
    outer loop
      vertex -2.128896457825362 -4.524135262330098 2
      vertex -2.2314635661318034 -0.8834989264432268 2
      vertex -2.3245995867087146 -0.5968557291956517 2
    endloop
  endfacet
  facet normal 0 0 1
    outer loop
      vertex -2.128896457825362 -4.524135262330098 2
      vertex -1.9416407864998737 -1.4106846055019355 2
      vertex -2.1031360321052723 -1.1562088178441168 2
    endloop
  endfacet
  facet normal 0 0 1
    outer loop
      vertex -2.128896457825362 -4.524135262330098 2
      vertex -2.1031360321052723 -1.1562088178441168 2
      vertex -2.2314635661318034 -0.8834989264432268 2
    endloop
  endfacet
  facet normal 0 0 1
    outer loop
      vertex -2.128896457825362 -4.524135262330098 2
      vertex -2.3245995867087146 -0.5968557291956517 2
      vertex -2.381075283154747 -0.3007997605543297 2
    endloop
  endfacet
  facet normal 0 0 1
    outer loop
      vertex -2.128896457825362 -4.524135262330098 2
      vertex -2.381075283154747 -0.3007997605543297 2
      vertex -2.4 0 2
    endloop
  endfacet
  facet normal 0 0 1
    outer loop
      vertex -2.6791339748949836 -4.221639627510075 2
      vertex -2.128896457825362 -4.524135262330098 2
      vertex -2.6791339748949836 4.221639627510075 2
    endloop
  endfacet
  facet normal 0 0 1
    outer loop
      vertex -2.128896457825362 -4.524135262330098 2
      vertex -2.4 0 2
      vertex -2.6791339748949836 4.221639627510075 2
    endloop
  endfacet
  facet normal 0 0 -1
    outer loop
      vertex -1.545084971874737 -4.755282581475767 0
      vertex -0.9369065729286229 4.911436253643443 0
      vertex -0.9369065729286241 -4.911436253643443 0
    endloop
  endfacet
  facet normal 0 0 -1
    outer loop
      vertex -0.9369065729286241 -4.911436253643443 0
      vertex -0.31395259764656636 4.990133642141358 0
      vertex -0.3139525976465688 -4.990133642141358 0
    endloop
  endfacet
  facet normal 0 0 -1
    outer loop
      vertex -4.9605735065723895 -0.6266661678215203 0
      vertex -5 0 0
      vertex -4.9605735065723895 0.6266661678215203 0
    endloop
  endfacet
  facet normal 0 0 -1
    outer loop
      vertex -4.9605735065723895 -0.6266661678215203 0
      vertex -4.9605735065723895 0.6266661678215203 0
      vertex -4.842915805643155 1.2434494358242743 0
    endloop
  endfacet
  facet normal 0 0 -1
    outer loop
      vertex -4.842915805643155 -1.2434494358242743 0
      vertex -4.842915805643155 1.2434494358242743 0
      vertex -4.648882429441257 1.8406227634233894 0
    endloop
  endfacet
  facet normal -0.9980267284282716 0.06279051952931293 0
    outer loop
      vertex -5 0 0
      vertex -4.9605735065723895 0.6266661678215203 2
      vertex -4.9605735065723895 0.6266661678215203 0
    endloop
  endfacet
  facet normal -0.9980267284282716 0.06279051952931293 0
    outer loop
      vertex -5 0 0
      vertex -5 0 2
      vertex -4.9605735065723895 0.6266661678215203 2
    endloop
  endfacet
  facet normal -0.9822872507286885 0.1873813145857251 0
    outer loop
      vertex -4.9605735065723895 0.6266661678215203 0
      vertex -4.842915805643155 1.2434494358242743 2
      vertex -4.842915805643155 1.2434494358242743 0
    endloop
  endfacet
  facet normal 0 0 -1
    outer loop
      vertex -4.648882429441257 -1.8406227634233894 0
      vertex -4.648882429441257 1.8406227634233894 0
      vertex -4.381533400219317 2.408768370508577 0
    endloop
  endfacet
  facet normal -0.9822872507286885 0.1873813145857251 0
    outer loop
      vertex -4.9605735065723895 0.6266661678215203 0
      vertex -4.9605735065723895 0.6266661678215203 2
      vertex -4.842915805643155 1.2434494358242743 2
    endloop
  endfacet
  facet normal 0 0 -1
    outer loop
      vertex -4.381533400219317 -2.408768370508577 0
      vertex -4.381533400219317 2.408768370508577 0
      vertex -4.045084971874737 2.938926261462366 0
    endloop
  endfacet
  facet normal 0 0 -1
    outer loop
      vertex -4.045084971874737 -2.938926261462366 0
      vertex -4.045084971874737 2.938926261462366 0
      vertex -3.6448431371070584 3.4227355296434423 0
    endloop
  endfacet
  facet normal 0 0 1
    outer loop
      vertex -4.9605735065723895 -0.6266661678215203 2
      vertex -4.9605735065723895 0.6266661678215203 2
      vertex -5 0 2
    endloop
  endfacet
  facet normal 0 0 1
    outer loop
      vertex -4.842915805643155 -1.2434494358242743 2
      vertex -4.842915805643155 1.2434494358242743 2
      vertex -4.9605735065723895 0.6266661678215203 2
    endloop
  endfacet
  facet normal 0 0 1
    outer loop
      vertex -4.648882429441257 -1.8406227634233894 2
      vertex -4.648882429441257 1.8406227634233894 2
      vertex -4.842915805643155 1.2434494358242743 2
    endloop
  endfacet
  facet normal 0 0 1
    outer loop
      vertex -4.381533400219317 -2.408768370508577 2
      vertex -4.381533400219317 2.408768370508577 2
      vertex -4.648882429441257 1.8406227634233894 2
    endloop
  endfacet
  facet normal 0 0 1
    outer loop
      vertex -4.045084971874737 -2.938926261462366 2
      vertex -4.045084971874737 2.938926261462366 2
      vertex -4.381533400219317 2.408768370508577 2
    endloop
  endfacet
  facet normal 0 0 1
    outer loop
      vertex -3.6448431371070584 -3.4227355296434423 2
      vertex -3.6448431371070584 3.4227355296434423 2
      vertex -4.045084971874737 2.938926261462366 2
    endloop
  endfacet
  facet normal -0.9510565162951536 0.30901699437494723 0
    outer loop
      vertex -4.842915805643155 1.2434494358242743 0
      vertex -4.648882429441257 1.8406227634233894 2
      vertex -4.648882429441257 1.8406227634233894 0
    endloop
  endfacet
  facet normal -0.9510565162951536 0.30901699437494723 0
    outer loop
      vertex -4.842915805643155 1.2434494358242743 0
      vertex -4.842915805643155 1.2434494358242743 2
      vertex -4.648882429441257 1.8406227634233894 2
    endloop
  endfacet
  facet normal -0.9048270524660195 0.42577929156507305 0
    outer loop
      vertex -4.648882429441257 1.8406227634233894 0
      vertex -4.381533400219317 2.408768370508577 2
      vertex -4.381533400219317 2.408768370508577 0
    endloop
  endfacet
  facet normal -0.9048270524660195 0.42577929156507305 0
    outer loop
      vertex -4.648882429441257 1.8406227634233894 0
      vertex -4.648882429441257 1.8406227634233894 2
      vertex -4.381533400219317 2.408768370508577 2
    endloop
  endfacet
  facet normal 0 0 1
    outer loop
      vertex -3.1871199487434483 -3.852566213878947 2
      vertex -3.1871199487434483 3.852566213878947 2
      vertex -3.6448431371070584 3.4227355296434423 2
    endloop
  endfacet
  facet normal 0 0 -1
    outer loop
      vertex -3.6448431371070584 -3.4227355296434423 0
      vertex -3.6448431371070584 3.4227355296434423 0
      vertex -3.1871199487434483 3.852566213878947 0
    endloop
  endfacet
  facet normal 0 0 -1
    outer loop
      vertex -3.1871199487434483 -3.852566213878947 0
      vertex -3.1871199487434483 3.852566213878947 0
      vertex -2.6791339748949836 4.221639627510075 0
    endloop
  endfacet
  facet normal 0 0 1
    outer loop
      vertex -2.6791339748949836 -4.221639627510075 2
      vertex -2.6791339748949836 4.221639627510075 2
      vertex -3.1871199487434483 3.852566213878947 2
    endloop
  endfacet
  facet normal -0.8443279255020154 0.535826794978996 0
    outer loop
      vertex -4.381533400219317 2.408768370508577 0
      vertex -4.045084971874737 2.938926261462366 2
      vertex -4.045084971874737 2.938926261462366 0
    endloop
  endfacet
  facet normal -0.8443279255020154 0.535826794978996 0
    outer loop
      vertex -4.381533400219317 2.408768370508577 0
      vertex -4.381533400219317 2.408768370508577 2
      vertex -4.045084971874737 2.938926261462366 2
    endloop
  endfacet
  facet normal -0.7705132427757888 0.6374239897486901 0
    outer loop
      vertex -4.045084971874737 2.938926261462366 0
      vertex -4.045084971874737 2.938926261462366 2
      vertex -3.6448431371070584 3.4227355296434423 2
    endloop
  endfacet
  facet normal -0.7705132427757888 0.6374239897486901 0
    outer loop
      vertex -4.045084971874737 2.938926261462366 0
      vertex -3.6448431371070584 3.4227355296434423 2
      vertex -3.6448431371070584 3.4227355296434423 0
    endloop
  endfacet
  facet normal -0.6845471059286894 0.7289686274214109 0
    outer loop
      vertex -3.6448431371070584 3.4227355296434423 0
      vertex -3.6448431371070584 3.4227355296434423 2
      vertex -3.1871199487434483 3.852566213878947 0
    endloop
  endfacet
  facet normal -0.6845471059286894 0.7289686274214109 0
    outer loop
      vertex -3.1871199487434483 3.852566213878947 0
      vertex -3.6448431371070584 3.4227355296434423 2
      vertex -3.1871199487434483 3.852566213878947 2
    endloop
  endfacet
  facet normal -0.5877852522924722 0.8090169943749481 0
    outer loop
      vertex -3.1871199487434483 3.852566213878947 0
      vertex -3.1871199487434483 3.852566213878947 2
      vertex -2.6791339748949836 4.221639627510075 0
    endloop
  endfacet
  facet normal -0.5877852522924722 0.8090169943749481 0
    outer loop
      vertex -2.6791339748949836 4.221639627510075 0
      vertex -3.1871199487434483 3.852566213878947 2
      vertex -2.6791339748949836 4.221639627510075 2
    endloop
  endfacet
  facet normal 0 0 -1
    outer loop
      vertex -2.6791339748949836 -4.221639627510075 0
      vertex -2.6791339748949836 4.221639627510075 0
      vertex -2.1288964578253635 4.524135262330097 0
    endloop
  endfacet
  facet normal 0 0 -1
    outer loop
      vertex -2.128896457825362 -4.524135262330098 0
      vertex -2.1288964578253635 4.524135262330097 0
      vertex -1.545084971874737 4.755282581475767 0
    endloop
  endfacet
  facet normal 0 0 -1
    outer loop
      vertex -1.545084971874737 -4.755282581475767 0
      vertex -1.545084971874737 4.755282581475767 0
      vertex -0.9369065729286229 4.911436253643443 0
    endloop
  endfacet
  facet normal 0 0 1
    outer loop
      vertex -2.6791339748949836 4.221639627510075 2
      vertex -2.4 0 2
      vertex -2.381075283154747 0.3007997605543297 2
    endloop
  endfacet
  facet normal 0 0 1
    outer loop
      vertex -2.6791339748949836 4.221639627510075 2
      vertex -2.381075283154747 0.3007997605543297 2
      vertex -2.3245995867087146 0.5968557291956517 2
    endloop
  endfacet
  facet normal 0 0 1
    outer loop
      vertex -2.6791339748949836 4.221639627510075 2
      vertex -2.3245995867087146 0.5968557291956517 2
      vertex -2.2314635661318034 0.8834989264432268 2
    endloop
  endfacet
  facet normal 0 0 1
    outer loop
      vertex -2.6791339748949836 4.221639627510075 2
      vertex -2.2314635661318034 0.8834989264432268 2
      vertex -2.1031360321052723 1.1562088178441168 2
    endloop
  endfacet
  facet normal 0 0 1
    outer loop
      vertex -2.1288964578253635 4.524135262330097 2
      vertex -2.1031360321052723 1.1562088178441168 2
      vertex -1.9416407864998737 1.4106846055019355 2
    endloop
  endfacet
  facet normal 0 0 -1
    outer loop
      vertex -0.9369065729286241 -4.911436253643443 0
      vertex -0.9369065729286229 4.911436253643443 0
      vertex -0.31395259764656636 4.990133642141358 0
    endloop
  endfacet
  facet normal 0 0 -1
    outer loop
      vertex -0.3139525976465688 -4.990133642141358 0
      vertex -0.31395259764656636 4.990133642141358 0
      vertex 0.31395259764656636 4.990133642141358 0
    endloop
  endfacet
  facet normal 0 0 1
    outer loop
      vertex -2.1288964578253635 4.524135262330097 2
      vertex -1.9416407864998737 1.4106846055019355 2
      vertex -1.7495247058113879 1.6429130542288524 2
    endloop
  endfacet
  facet normal 0 0 1
    outer loop
      vertex -2.6791339748949836 4.221639627510075 2
      vertex -2.1031360321052723 1.1562088178441168 2
      vertex -2.1288964578253635 4.524135262330097 2
    endloop
  endfacet
  facet normal 0 0 1
    outer loop
      vertex -2.1288964578253635 4.524135262330097 2
      vertex -1.7495247058113879 1.6429130542288524 2
      vertex -1.529817575396855 1.8492317826618945 2
    endloop
  endfacet
  facet normal 0 0 1
    outer loop
      vertex -1.545084971874737 4.755282581475767 2
      vertex -1.529817575396855 1.8492317826618945 2
      vertex -1.2859843079495923 2.026387021204836 2
    endloop
  endfacet
  facet normal 0 0 1
    outer loop
      vertex -1.545084971874737 4.755282581475767 2
      vertex -1.2859843079495923 2.026387021204836 2
      vertex -1.0218702997561744 2.1715849259184465 2
    endloop
  endfacet
  facet normal 0 0 1
    outer loop
      vertex -2.1288964578253635 4.524135262330097 2
      vertex -1.529817575396855 1.8492317826618945 2
      vertex -1.545084971874737 4.755282581475767 2
    endloop
  endfacet
  facet normal -0.48175367410171577 0.8763066800438635 0
    outer loop
      vertex -2.6791339748949836 4.221639627510075 0
      vertex -2.6791339748949836 4.221639627510075 2
      vertex -2.1288964578253635 4.524135262330097 0
    endloop
  endfacet
  facet normal -0.36812455268467725 0.9297764858882516 0
    outer loop
      vertex -2.1288964578253635 4.524135262330097 0
      vertex -2.1288964578253635 4.524135262330097 2
      vertex -1.545084971874737 4.755282581475767 0
    endloop
  endfacet
  facet normal -0.48175367410171577 0.8763066800438635 0
    outer loop
      vertex -2.1288964578253635 4.524135262330097 0
      vertex -2.6791339748949836 4.221639627510075 2
      vertex -2.1288964578253635 4.524135262330097 2
    endloop
  endfacet
  facet normal -0.24868988716485532 0.968583161128631 0
    outer loop
      vertex -1.545084971874737 4.755282581475767 0
      vertex -1.545084971874737 4.755282581475767 2
      vertex -0.9369065729286229 4.911436253643443 0
    endloop
  endfacet
  facet normal -0.36812455268467725 0.9297764858882516 0
    outer loop
      vertex -1.545084971874737 4.755282581475767 0
      vertex -2.1288964578253635 4.524135262330097 2
      vertex -1.545084971874737 4.755282581475767 2
    endloop
  endfacet
  facet normal 0 0 1
    outer loop
      vertex -1.545084971874737 4.755282581475767 2
      vertex -1.0218702997561744 2.1715849259184465 2
      vertex -0.7416407864998737 2.282535639108368 2
    endloop
  endfacet
  facet normal 0 0 1
    outer loop
      vertex -0.9369065729286229 4.911436253643443 2
      vertex -0.7416407864998737 2.282535639108368 2
      vertex -0.44971515500573894 2.357489401748853 2
    endloop
  endfacet
  facet normal 0 0 1
    outer loop
      vertex -0.9369065729286229 4.911436253643443 2
      vertex -0.44971515500573894 2.357489401748853 2
      vertex -0.15069724687035124 2.395264148227852 2
    endloop
  endfacet
  facet normal -0.12533323356430473 0.9921147013144778 0
    outer loop
      vertex -0.9369065729286229 4.911436253643443 0
      vertex -0.9369065729286229 4.911436253643443 2
      vertex -0.31395259764656636 4.990133642141358 0
    endloop
  endfacet
  facet normal -0.24868988716485532 0.968583161128631 0
    outer loop
      vertex -0.9369065729286229 4.911436253643443 0
      vertex -1.545084971874737 4.755282581475767 2
      vertex -0.9369065729286229 4.911436253643443 2
    endloop
  endfacet
  facet normal 0 1 0
    outer loop
      vertex -0.31395259764656636 4.990133642141358 0
      vertex -0.31395259764656636 4.990133642141358 2
      vertex 0.31395259764656636 4.990133642141358 0
    endloop
  endfacet
  facet normal -0.12533323356430473 0.9921147013144778 0
    outer loop
      vertex -0.31395259764656636 4.990133642141358 0
      vertex -0.9369065729286229 4.911436253643443 2
      vertex -0.31395259764656636 4.990133642141358 2
    endloop
  endfacet
  facet normal 0 0 1
    outer loop
      vertex -1.545084971874737 4.755282581475767 2
      vertex -0.7416407864998737 2.282535639108368 2
      vertex -0.9369065729286229 4.911436253643443 2
    endloop
  endfacet
  facet normal 0 0 1
    outer loop
      vertex -0.9369065729286229 4.911436253643443 2
      vertex -0.15069724687035124 2.395264148227852 2
      vertex -0.31395259764656636 4.990133642141358 2
    endloop
  endfacet
  facet normal 0 0 1
    outer loop
      vertex -0.31395259764656636 4.990133642141358 2
      vertex -0.15069724687035124 2.395264148227852 2
      vertex 0.31395259764656636 4.990133642141358 2
    endloop
  endfacet
  facet normal 0 -1 0
    outer loop
      vertex -0.3139525976465688 -4.990133642141358 0
      vertex 0.3139525976465688 -4.990133642141358 0
      vertex 0.3139525976465688 -4.990133642141358 2
    endloop
  endfacet
  facet normal 0.12533323356430498 -0.9921147013144778 0
    outer loop
      vertex 0.3139525976465688 -4.990133642141358 0
      vertex 0.9369065729286241 -4.911436253643443 2
      vertex 0.3139525976465688 -4.990133642141358 2
    endloop
  endfacet
  facet normal 0.12533323356430498 -0.9921147013144778 0
    outer loop
      vertex 0.3139525976465688 -4.990133642141358 0
      vertex 0.9369065729286241 -4.911436253643443 0
      vertex 0.9369065729286241 -4.911436253643443 2
    endloop
  endfacet
  facet normal 0.2486898871648558 -0.9685831611286309 0
    outer loop
      vertex 0.9369065729286241 -4.911436253643443 0
      vertex 1.545084971874737 -4.755282581475767 2
      vertex 0.9369065729286241 -4.911436253643443 2
    endloop
  endfacet
  facet normal 0 0 1
    outer loop
      vertex -0.3139525976465688 -4.990133642141358 2
      vertex 0.3139525976465688 -4.990133642141358 2
      vertex 0.15069724687035302 -2.395264148227852 2
    endloop
  endfacet
  facet normal 0 0 1
    outer loop
      vertex 0.3139525976465688 -4.990133642141358 2
      vertex 0.9369065729286241 -4.911436253643443 2
      vertex 0.15069724687035302 -2.395264148227852 2
    endloop
  endfacet
  facet normal 0 0 1
    outer loop
      vertex 0.9369065729286241 -4.911436253643443 2
      vertex 1.545084971874737 -4.755282581475767 2
      vertex 0.7416407864998737 -2.282535639108368 2
    endloop
  endfacet
  facet normal 0 0 1
    outer loop
      vertex 0.9369065729286241 -4.911436253643443 2
      vertex 0.44971515500573955 -2.3574894017488526 2
      vertex 0.15069724687035302 -2.395264148227852 2
    endloop
  endfacet
  facet normal 0 0 1
    outer loop
      vertex 0.9369065729286241 -4.911436253643443 2
      vertex 0.7416407864998737 -2.282535639108368 2
      vertex 0.44971515500573955 -2.3574894017488526 2
    endloop
  endfacet
  facet normal 0 0 1
    outer loop
      vertex 1.545084971874737 -4.755282581475767 2
      vertex 1.0218702997561737 -2.171584925918447 2
      vertex 0.7416407864998737 -2.282535639108368 2
    endloop
  endfacet
  facet normal 0.2486898871648558 -0.9685831611286309 0
    outer loop
      vertex 0.9369065729286241 -4.911436253643443 0
      vertex 1.545084971874737 -4.755282581475767 0
      vertex 1.545084971874737 -4.755282581475767 2
    endloop
  endfacet
  facet normal 0.3681245526846768 -0.9297764858882519 0
    outer loop
      vertex 1.545084971874737 -4.755282581475767 0
      vertex 2.128896457825362 -4.524135262330098 2
      vertex 1.545084971874737 -4.755282581475767 2
    endloop
  endfacet
  facet normal 0.3681245526846768 -0.9297764858882519 0
    outer loop
      vertex 1.545084971874737 -4.755282581475767 0
      vertex 2.128896457825362 -4.524135262330098 0
      vertex 2.128896457825362 -4.524135262330098 2
    endloop
  endfacet
  facet normal 0.48175367410171555 -0.8763066800438635 0
    outer loop
      vertex 2.128896457825362 -4.524135262330098 0
      vertex 2.679133974894981 -4.2216396275100765 2
      vertex 2.128896457825362 -4.524135262330098 2
    endloop
  endfacet
  facet normal 0.48175367410171555 -0.8763066800438635 0
    outer loop
      vertex 2.128896457825362 -4.524135262330098 0
      vertex 2.679133974894981 -4.2216396275100765 0
      vertex 2.679133974894981 -4.2216396275100765 2
    endloop
  endfacet
  facet normal 0 0 1
    outer loop
      vertex 1.545084971874737 -4.755282581475767 2
      vertex 2.128896457825362 -4.524135262330098 2
      vertex 1.529817575396856 -1.8492317826618936 2
    endloop
  endfacet
  facet normal 0 0 1
    outer loop
      vertex 1.545084971874737 -4.755282581475767 2
      vertex 1.285984307949591 -2.0263870212048367 2
      vertex 1.0218702997561737 -2.171584925918447 2
    endloop
  endfacet
  facet normal 0 0 1
    outer loop
      vertex 1.545084971874737 -4.755282581475767 2
      vertex 1.529817575396856 -1.8492317826618936 2
      vertex 1.285984307949591 -2.0263870212048367 2
    endloop
  endfacet
  facet normal 0 0 1
    outer loop
      vertex 2.128896457825362 -4.524135262330098 2
      vertex 1.7495247058113879 -1.6429130542288524 2
      vertex 1.529817575396856 -1.8492317826618936 2
    endloop
  endfacet
  facet normal 0 0 1
    outer loop
      vertex 2.128896457825362 -4.524135262330098 2
      vertex 2.679133974894981 -4.2216396275100765 2
      vertex 2.1031360321052723 -1.1562088178441168 2
    endloop
  endfacet
  facet normal 0 0 1
    outer loop
      vertex 2.128896457825362 -4.524135262330098 2
      vertex 1.9416407864998737 -1.4106846055019355 2
      vertex 1.7495247058113879 -1.6429130542288524 2
    endloop
  endfacet
  facet normal 0 0 -1
    outer loop
      vertex -0.3139525976465688 -4.990133642141358 0
      vertex 0.31395259764656636 4.990133642141358 0
      vertex 0.3139525976465688 -4.990133642141358 0
    endloop
  endfacet
  facet normal 0 0 -1
    outer loop
      vertex 0.3139525976465688 -4.990133642141358 0
      vertex 0.9369065729286229 4.911436253643443 0
      vertex 0.9369065729286241 -4.911436253643443 0
    endloop
  endfacet
  facet normal 0 0 -1
    outer loop
      vertex 0.9369065729286241 -4.911436253643443 0
      vertex 1.545084971874737 4.755282581475767 0
      vertex 1.545084971874737 -4.755282581475767 0
    endloop
  endfacet
  facet normal 0 0 -1
    outer loop
      vertex 1.545084971874737 -4.755282581475767 0
      vertex 2.1288964578253635 4.524135262330097 0
      vertex 2.128896457825362 -4.524135262330098 0
    endloop
  endfacet
  facet normal 0 0 -1
    outer loop
      vertex 2.128896457825362 -4.524135262330098 0
      vertex 2.679133974894983 4.221639627510076 0
      vertex 2.679133974894981 -4.2216396275100765 0
    endloop
  endfacet
  facet normal 0 0 1
    outer loop
      vertex 2.128896457825362 -4.524135262330098 2
      vertex 2.1031360321052723 -1.1562088178441168 2
      vertex 1.9416407864998737 -1.4106846055019355 2
    endloop
  endfacet
  facet normal 0 0 1
    outer loop
      vertex 2.679133974894981 -4.2216396275100765 2
      vertex 2.231463566131803 -0.883498926443228 2
      vertex 2.1031360321052723 -1.1562088178441168 2
    endloop
  endfacet
  facet normal 0 0 1
    outer loop
      vertex 2.679133974894981 -4.2216396275100765 2
      vertex 2.3245995867087146 -0.5968557291956507 2
      vertex 2.231463566131803 -0.883498926443228 2
    endloop
  endfacet
  facet normal 0 0 1
    outer loop
      vertex 2.679133974894981 -4.2216396275100765 2
      vertex 2.381075283154747 -0.3007997605543297 2
      vertex 2.3245995867087146 -0.5968557291956507 2
    endloop
  endfacet
  facet normal 0 0 1
    outer loop
      vertex 2.679133974894981 -4.2216396275100765 2
      vertex 2.4 0 2
      vertex 2.381075283154747 -0.3007997605543297 2
    endloop
  endfacet
  facet normal 0 0 1
    outer loop
      vertex 2.679133974894981 -4.2216396275100765 2
      vertex 2.381075283154747 0.3007997605543302 2
      vertex 2.4 0 2
    endloop
  endfacet
  facet normal 0.5877852522924726 -0.8090169943749479 0
    outer loop
      vertex 2.679133974894981 -4.2216396275100765 0
      vertex 3.18711994874345 -3.852566213878945 0
      vertex 3.18711994874345 -3.852566213878945 2
    endloop
  endfacet
  facet normal 0.5877852522924726 -0.8090169943749479 0
    outer loop
      vertex 2.679133974894981 -4.2216396275100765 0
      vertex 3.18711994874345 -3.852566213878945 2
      vertex 2.679133974894981 -4.2216396275100765 2
    endloop
  endfacet
  facet normal 0.6845471059286893 -0.728968627421411 0
    outer loop
      vertex 3.18711994874345 -3.852566213878945 0
      vertex 3.6448431371070584 -3.4227355296434423 0
      vertex 3.6448431371070584 -3.4227355296434423 2
    endloop
  endfacet
  facet normal 0.6845471059286893 -0.728968627421411 0
    outer loop
      vertex 3.18711994874345 -3.852566213878945 0
      vertex 3.6448431371070584 -3.4227355296434423 2
      vertex 3.18711994874345 -3.852566213878945 2
    endloop
  endfacet
  facet normal 0.7705132427757888 -0.6374239897486901 0
    outer loop
      vertex 3.6448431371070584 -3.4227355296434423 0
      vertex 4.045084971874737 -2.938926261462366 0
      vertex 3.6448431371070584 -3.4227355296434423 2
    endloop
  endfacet
  facet normal 0.8443279255020154 -0.535826794978996 0
    outer loop
      vertex 4.045084971874737 -2.938926261462366 0
      vertex 4.381533400219317 -2.408768370508577 0
      vertex 4.045084971874737 -2.938926261462366 2
    endloop
  endfacet
  facet normal 0.7705132427757888 -0.6374239897486901 0
    outer loop
      vertex 4.045084971874737 -2.938926261462366 0
      vertex 4.045084971874737 -2.938926261462366 2
      vertex 3.6448431371070584 -3.4227355296434423 2
    endloop
  endfacet
  facet normal 0.8443279255020154 -0.535826794978996 0
    outer loop
      vertex 4.381533400219317 -2.408768370508577 0
      vertex 4.381533400219317 -2.408768370508577 2
      vertex 4.045084971874737 -2.938926261462366 2
    endloop
  endfacet
  facet normal 0 0 -1
    outer loop
      vertex 2.679133974894981 -4.2216396275100765 0
      vertex 3.1871199487434487 3.8525662138789456 0
      vertex 3.18711994874345 -3.852566213878945 0
    endloop
  endfacet
  facet normal 0 0 -1
    outer loop
      vertex 3.18711994874345 -3.852566213878945 0
      vertex 3.644843137107058 3.4227355296434436 0
      vertex 3.6448431371070584 -3.4227355296434423 0
    endloop
  endfacet
  facet normal 0 0 1
    outer loop
      vertex 2.679133974894981 -4.2216396275100765 2
      vertex 3.18711994874345 -3.852566213878945 2
      vertex 2.679133974894983 4.221639627510076 2
    endloop
  endfacet
  facet normal 0 0 1
    outer loop
      vertex 3.18711994874345 -3.852566213878945 2
      vertex 3.6448431371070584 -3.4227355296434423 2
      vertex 3.1871199487434487 3.8525662138789456 2
    endloop
  endfacet
  facet normal 0.9048270524660192 -0.4257792915650733 0
    outer loop
      vertex 4.381533400219317 -2.408768370508577 0
      vertex 4.648882429441256 -1.8406227634233918 0
      vertex 4.381533400219317 -2.408768370508577 2
    endloop
  endfacet
  facet normal 0.9048270524660192 -0.4257792915650733 0
    outer loop
      vertex 4.648882429441256 -1.8406227634233918 0
      vertex 4.648882429441256 -1.8406227634233918 2
      vertex 4.381533400219317 -2.408768370508577 2
    endloop
  endfacet
  facet normal 0.9510565162951535 -0.30901699437494773 0
    outer loop
      vertex 4.648882429441256 -1.8406227634233918 0
      vertex 4.842915805643156 -1.2434494358242723 0
      vertex 4.648882429441256 -1.8406227634233918 2
    endloop
  endfacet
  facet normal 0.9510565162951535 -0.30901699437494773 0
    outer loop
      vertex 4.842915805643156 -1.2434494358242723 0
      vertex 4.842915805643156 -1.2434494358242723 2
      vertex 4.648882429441256 -1.8406227634233918 2
    endloop
  endfacet
  facet normal 0 0 -1
    outer loop
      vertex 3.6448431371070584 -3.4227355296434423 0
      vertex 4.045084971874737 2.938926261462366 0
      vertex 4.045084971874737 -2.938926261462366 0
    endloop
  endfacet
  facet normal 0 0 -1
    outer loop
      vertex 4.045084971874737 -2.938926261462366 0
      vertex 4.381533400219318 2.4087683705085765 0
      vertex 4.381533400219317 -2.408768370508577 0
    endloop
  endfacet
  facet normal 0 0 -1
    outer loop
      vertex 4.381533400219317 -2.408768370508577 0
      vertex 4.648882429441256 1.8406227634233898 0
      vertex 4.648882429441256 -1.8406227634233918 0
    endloop
  endfacet
  facet normal 0.9822872507286887 -0.18738131458572435 0
    outer loop
      vertex 4.842915805643156 -1.2434494358242723 0
      vertex 4.9605735065723895 -0.6266661678215203 0
      vertex 4.842915805643156 -1.2434494358242723 2
    endloop
  endfacet
  facet normal 0.9822872507286887 -0.18738131458572435 0
    outer loop
      vertex 4.9605735065723895 -0.6266661678215203 0
      vertex 4.9605735065723895 -0.6266661678215203 2
      vertex 4.842915805643156 -1.2434494358242723 2
    endloop
  endfacet
  facet normal 0 0 -1
    outer loop
      vertex 4.648882429441256 -1.8406227634233918 0
      vertex 4.842915805643155 1.243449435824274 0
      vertex 4.842915805643156 -1.2434494358242723 0
    endloop
  endfacet
  facet normal 0 0 -1
    outer loop
      vertex 4.842915805643156 -1.2434494358242723 0
      vertex 4.9605735065723895 0.6266661678215213 0
      vertex 4.9605735065723895 -0.6266661678215203 0
    endloop
  endfacet
  facet normal 0.9980267284282716 -0.06279051952931293 0
    outer loop
      vertex 4.9605735065723895 -0.6266661678215203 0
      vertex 5 0 0
      vertex 4.9605735065723895 -0.6266661678215203 2
    endloop
  endfacet
  facet normal 0.9980267284282716 -0.06279051952931293 0
    outer loop
      vertex 4.9605735065723895 -0.6266661678215203 2
      vertex 5 0 0
      vertex 5 0 2
    endloop
  endfacet
  facet normal 0 0 1
    outer loop
      vertex 3.6448431371070584 -3.4227355296434423 2
      vertex 4.045084971874737 -2.938926261462366 2
      vertex 3.644843137107058 3.4227355296434436 2
    endloop
  endfacet
  facet normal 0 0 1
    outer loop
      vertex 4.045084971874737 -2.938926261462366 2
      vertex 4.381533400219317 -2.408768370508577 2
      vertex 4.045084971874737 2.938926261462366 2
    endloop
  endfacet
  facet normal 0 0 1
    outer loop
      vertex 4.381533400219317 -2.408768370508577 2
      vertex 4.648882429441256 -1.8406227634233918 2
      vertex 4.381533400219318 2.4087683705085765 2
    endloop
  endfacet
  facet normal 0 0 1
    outer loop
      vertex 4.648882429441256 -1.8406227634233918 2
      vertex 4.842915805643156 -1.2434494358242723 2
      vertex 4.648882429441256 1.8406227634233898 2
    endloop
  endfacet
  facet normal 0 0 1
    outer loop
      vertex 4.842915805643156 -1.2434494358242723 2
      vertex 4.9605735065723895 -0.6266661678215203 2
      vertex 4.842915805643155 1.243449435824274 2
    endloop
  endfacet
  facet normal 0 0 -1
    outer loop
      vertex 0.3139525976465688 -4.990133642141358 0
      vertex 0.31395259764656636 4.990133642141358 0
      vertex 0.9369065729286229 4.911436253643443 0
    endloop
  endfacet
  facet normal 0 0 -1
    outer loop
      vertex 0.9369065729286241 -4.911436253643443 0
      vertex 0.9369065729286229 4.911436253643443 0
      vertex 1.545084971874737 4.755282581475767 0
    endloop
  endfacet
  facet normal 0 0 1
    outer loop
      vertex 2.679133974894981 -4.2216396275100765 2
      vertex 2.1288964578253635 4.524135262330097 2
      vertex 2.381075283154747 0.3007997605543302 2
    endloop
  endfacet
  facet normal 0 0 -1
    outer loop
      vertex 1.545084971874737 -4.755282581475767 0
      vertex 1.545084971874737 4.755282581475767 0
      vertex 2.1288964578253635 4.524135262330097 0
    endloop
  endfacet
  facet normal 0 0 -1
    outer loop
      vertex 2.128896457825362 -4.524135262330098 0
      vertex 2.1288964578253635 4.524135262330097 0
      vertex 2.679133974894983 4.221639627510076 0
    endloop
  endfacet
  facet normal 0 0 1
    outer loop
      vertex 2.679133974894981 -4.2216396275100765 2
      vertex 2.679133974894983 4.221639627510076 2
      vertex 2.1288964578253635 4.524135262330097 2
    endloop
  endfacet
  facet normal 0 0 1
    outer loop
      vertex 2.1288964578253635 4.524135262330097 2
      vertex 2.3245995867087146 0.5968557291956514 2
      vertex 2.381075283154747 0.3007997605543302 2
    endloop
  endfacet
  facet normal 0 0 1
    outer loop
      vertex 2.1288964578253635 4.524135262330097 2
      vertex 2.1031360321052723 1.1562088178441168 2
      vertex 2.231463566131803 0.8834989264432271 2
    endloop
  endfacet
  facet normal 0 0 1
    outer loop
      vertex 2.1288964578253635 4.524135262330097 2
      vertex 1.9416407864998737 1.4106846055019355 2
      vertex 2.1031360321052723 1.1562088178441168 2
    endloop
  endfacet
  facet normal 0 0 1
    outer loop
      vertex 2.1288964578253635 4.524135262330097 2
      vertex 2.231463566131803 0.8834989264432271 2
      vertex 2.3245995867087146 0.5968557291956514 2
    endloop
  endfacet
  facet normal 0 0 1
    outer loop
      vertex 0.31395259764656636 4.990133642141358 2
      vertex -0.15069724687035124 2.395264148227852 2
      vertex 0.15069724687035185 2.395264148227852 2
    endloop
  endfacet
  facet normal 0 0 1
    outer loop
      vertex 0.31395259764656636 4.990133642141358 2
      vertex 0.15069724687035185 2.395264148227852 2
      vertex 0.44971515500573894 2.357489401748853 2
    endloop
  endfacet
  facet normal 0 0 1
    outer loop
      vertex 0.31395259764656636 4.990133642141358 2
      vertex 0.44971515500573894 2.357489401748853 2
      vertex 0.7416407864998737 2.282535639108368 2
    endloop
  endfacet
  facet normal 0 0 1
    outer loop
      vertex 0.9369065729286229 4.911436253643443 2
      vertex 1.0218702997561744 2.1715849259184465 2
      vertex 1.2859843079495918 2.0263870212048363 2
    endloop
  endfacet
  facet normal 0 0 1
    outer loop
      vertex 0.9369065729286229 4.911436253643443 2
      vertex 0.7416407864998737 2.282535639108368 2
      vertex 1.0218702997561744 2.1715849259184465 2
    endloop
  endfacet
  facet normal 0.12533323356430473 0.9921147013144778 0
    outer loop
      vertex 0.31395259764656636 4.990133642141358 0
      vertex 0.31395259764656636 4.990133642141358 2
      vertex 0.9369065729286229 4.911436253643443 0
    endloop
  endfacet
  facet normal 0 1 0
    outer loop
      vertex -0.31395259764656636 4.990133642141358 2
      vertex 0.31395259764656636 4.990133642141358 2
      vertex 0.31395259764656636 4.990133642141358 0
    endloop
  endfacet
  facet normal 0.24868988716485532 0.968583161128631 0
    outer loop
      vertex 0.9369065729286229 4.911436253643443 0
      vertex 0.9369065729286229 4.911436253643443 2
      vertex 1.545084971874737 4.755282581475767 0
    endloop
  endfacet
  facet normal 0.12533323356430473 0.9921147013144778 0
    outer loop
      vertex 0.9369065729286229 4.911436253643443 0
      vertex 0.31395259764656636 4.990133642141358 2
      vertex 0.9369065729286229 4.911436253643443 2
    endloop
  endfacet
  facet normal 0 0 1
    outer loop
      vertex 0.31395259764656636 4.990133642141358 2
      vertex 0.7416407864998737 2.282535639108368 2
      vertex 0.9369065729286229 4.911436253643443 2
    endloop
  endfacet
  facet normal 0 0 1
    outer loop
      vertex 1.545084971874737 4.755282581475767 2
      vertex 1.2859843079495918 2.0263870212048363 2
      vertex 1.5298175753968553 1.8492317826618938 2
    endloop
  endfacet
  facet normal 0 0 1
    outer loop
      vertex 1.545084971874737 4.755282581475767 2
      vertex 1.5298175753968553 1.8492317826618938 2
      vertex 1.7495247058113876 1.6429130542288528 2
    endloop
  endfacet
  facet normal 0 0 1
    outer loop
      vertex 1.545084971874737 4.755282581475767 2
      vertex 1.7495247058113876 1.6429130542288528 2
      vertex 2.1288964578253635 4.524135262330097 2
    endloop
  endfacet
  facet normal 0 0 1
    outer loop
      vertex 2.1288964578253635 4.524135262330097 2
      vertex 1.7495247058113876 1.6429130542288528 2
      vertex 1.9416407864998737 1.4106846055019355 2
    endloop
  endfacet
  facet normal 0.36812455268467725 0.9297764858882516 0
    outer loop
      vertex 1.545084971874737 4.755282581475767 0
      vertex 1.545084971874737 4.755282581475767 2
      vertex 2.1288964578253635 4.524135262330097 0
    endloop
  endfacet
  facet normal 0.24868988716485532 0.968583161128631 0
    outer loop
      vertex 1.545084971874737 4.755282581475767 0
      vertex 0.9369065729286229 4.911436253643443 2
      vertex 1.545084971874737 4.755282581475767 2
    endloop
  endfacet
  facet normal 0.48175367410171493 0.8763066800438638 0
    outer loop
      vertex 2.679133974894983 4.221639627510076 0
      vertex 2.1288964578253635 4.524135262330097 2
      vertex 2.679133974894983 4.221639627510076 2
    endloop
  endfacet
  facet normal 0.48175367410171493 0.8763066800438638 0
    outer loop
      vertex 2.1288964578253635 4.524135262330097 0
      vertex 2.1288964578253635 4.524135262330097 2
      vertex 2.679133974894983 4.221639627510076 0
    endloop
  endfacet
  facet normal 0.36812455268467725 0.9297764858882516 0
    outer loop
      vertex 2.1288964578253635 4.524135262330097 0
      vertex 1.545084971874737 4.755282581475767 2
      vertex 2.1288964578253635 4.524135262330097 2
    endloop
  endfacet
  facet normal 0 0 1
    outer loop
      vertex 0.9369065729286229 4.911436253643443 2
      vertex 1.2859843079495918 2.0263870212048363 2
      vertex 1.545084971874737 4.755282581475767 2
    endloop
  endfacet
  facet normal 0 0 -1
    outer loop
      vertex 3.18711994874345 -3.852566213878945 0
      vertex 3.1871199487434487 3.8525662138789456 0
      vertex 3.644843137107058 3.4227355296434436 0
    endloop
  endfacet
  facet normal 0 0 -1
    outer loop
      vertex 2.679133974894981 -4.2216396275100765 0
      vertex 2.679133974894983 4.221639627510076 0
      vertex 3.1871199487434487 3.8525662138789456 0
    endloop
  endfacet
  facet normal 0 0 1
    outer loop
      vertex 3.18711994874345 -3.852566213878945 2
      vertex 3.1871199487434487 3.8525662138789456 2
      vertex 2.679133974894983 4.221639627510076 2
    endloop
  endfacet
  facet normal 0 0 1
    outer loop
      vertex 3.6448431371070584 -3.4227355296434423 2
      vertex 3.644843137107058 3.4227355296434436 2
      vertex 3.1871199487434487 3.8525662138789456 2
    endloop
  endfacet
  facet normal 0 0 -1
    outer loop
      vertex 3.6448431371070584 -3.4227355296434423 0
      vertex 3.644843137107058 3.4227355296434436 0
      vertex 4.045084971874737 2.938926261462366 0
    endloop
  endfacet
  facet normal 0 0 -1
    outer loop
      vertex 4.045084971874737 -2.938926261462366 0
      vertex 4.045084971874737 2.938926261462366 0
      vertex 4.381533400219318 2.4087683705085765 0
    endloop
  endfacet
  facet normal 0 0 -1
    outer loop
      vertex 4.381533400219317 -2.408768370508577 0
      vertex 4.381533400219318 2.4087683705085765 0
      vertex 4.648882429441256 1.8406227634233898 0
    endloop
  endfacet
  facet normal 0 0 -1
    outer loop
      vertex 4.9605735065723895 -0.6266661678215203 0
      vertex 4.9605735065723895 0.6266661678215213 0
      vertex 5 0 0
    endloop
  endfacet
  facet normal 0 0 -1
    outer loop
      vertex 4.842915805643156 -1.2434494358242723 0
      vertex 4.842915805643155 1.243449435824274 0
      vertex 4.9605735065723895 0.6266661678215213 0
    endloop
  endfacet
  facet normal 0.9980267284282716 0.06279051952931283 0
    outer loop
      vertex 5 0 0
      vertex 4.9605735065723895 0.6266661678215213 0
      vertex 5 0 2
    endloop
  endfacet
  facet normal 0 0 -1
    outer loop
      vertex 4.648882429441256 -1.8406227634233918 0
      vertex 4.648882429441256 1.8406227634233898 0
      vertex 4.842915805643155 1.243449435824274 0
    endloop
  endfacet
  facet normal 0.9980267284282716 0.06279051952931283 0
    outer loop
      vertex 4.9605735065723895 0.6266661678215213 0
      vertex 4.9605735065723895 0.6266661678215213 2
      vertex 5 0 2
    endloop
  endfacet
  facet normal 0.9822872507286885 0.18738131458572546 0
    outer loop
      vertex 4.9605735065723895 0.6266661678215213 0
      vertex 4.842915805643155 1.243449435824274 0
      vertex 4.9605735065723895 0.6266661678215213 2
    endloop
  endfacet
  facet normal 0.9822872507286885 0.18738131458572546 0
    outer loop
      vertex 4.842915805643155 1.243449435824274 0
      vertex 4.842915805643155 1.243449435824274 2
      vertex 4.9605735065723895 0.6266661678215213 2
    endloop
  endfacet
  facet normal 0 0 1
    outer loop
      vertex 4.045084971874737 -2.938926261462366 2
      vertex 4.045084971874737 2.938926261462366 2
      vertex 3.644843137107058 3.4227355296434436 2
    endloop
  endfacet
  facet normal 0 0 1
    outer loop
      vertex 4.381533400219317 -2.408768370508577 2
      vertex 4.381533400219318 2.4087683705085765 2
      vertex 4.045084971874737 2.938926261462366 2
    endloop
  endfacet
  facet normal 0 0 1
    outer loop
      vertex 4.9605735065723895 -0.6266661678215203 2
      vertex 5 0 2
      vertex 4.9605735065723895 0.6266661678215213 2
    endloop
  endfacet
  facet normal 0 0 1
    outer loop
      vertex 4.842915805643156 -1.2434494358242723 2
      vertex 4.842915805643155 1.243449435824274 2
      vertex 4.648882429441256 1.8406227634233898 2
    endloop
  endfacet
  facet normal 0 0 1
    outer loop
      vertex 4.9605735065723895 -0.6266661678215203 2
      vertex 4.9605735065723895 0.6266661678215213 2
      vertex 4.842915805643155 1.243449435824274 2
    endloop
  endfacet
  facet normal 0 0 1
    outer loop
      vertex 4.648882429441256 -1.8406227634233918 2
      vertex 4.648882429441256 1.8406227634233898 2
      vertex 4.381533400219318 2.4087683705085765 2
    endloop
  endfacet
  facet normal 0.9510565162951534 0.30901699437494823 0
    outer loop
      vertex 4.842915805643155 1.243449435824274 0
      vertex 4.648882429441256 1.8406227634233898 0
      vertex 4.842915805643155 1.243449435824274 2
    endloop
  endfacet
  facet normal 0.9510565162951534 0.30901699437494823 0
    outer loop
      vertex 4.648882429441256 1.8406227634233898 0
      vertex 4.648882429441256 1.8406227634233898 2
      vertex 4.842915805643155 1.243449435824274 2
    endloop
  endfacet
  facet normal 0.9048270524660201 0.42577929156507116 0
    outer loop
      vertex 4.648882429441256 1.8406227634233898 0
      vertex 4.381533400219318 2.4087683705085765 0
      vertex 4.648882429441256 1.8406227634233898 2
    endloop
  endfacet
  facet normal 0.9048270524660201 0.42577929156507116 0
    outer loop
      vertex 4.381533400219318 2.4087683705085765 0
      vertex 4.381533400219318 2.4087683705085765 2
      vertex 4.648882429441256 1.8406227634233898 2
    endloop
  endfacet
  facet normal 0.6845471059286878 0.7289686274214122 0
    outer loop
      vertex 3.644843137107058 3.4227355296434436 0
      vertex 3.1871199487434487 3.8525662138789456 0
      vertex 3.1871199487434487 3.8525662138789456 2
    endloop
  endfacet
  facet normal 0.6845471059286878 0.7289686274214122 0
    outer loop
      vertex 3.644843137107058 3.4227355296434436 0
      vertex 3.1871199487434487 3.8525662138789456 2
      vertex 3.644843137107058 3.4227355296434436 2
    endloop
  endfacet
  facet normal 0.5877852522924739 0.8090169943749469 0
    outer loop
      vertex 2.679133974894983 4.221639627510076 0
      vertex 2.679133974894983 4.221639627510076 2
      vertex 3.1871199487434487 3.8525662138789456 0
    endloop
  endfacet
  facet normal 0.5877852522924739 0.8090169943749469 0
    outer loop
      vertex 3.1871199487434487 3.8525662138789456 0
      vertex 2.679133974894983 4.221639627510076 2
      vertex 3.1871199487434487 3.8525662138789456 2
    endloop
  endfacet
  facet normal 0.7705132427757895 0.6374239897486895 0
    outer loop
      vertex 3.644843137107058 3.4227355296434436 0
      vertex 4.045084971874737 2.938926261462366 2
      vertex 4.045084971874737 2.938926261462366 0
    endloop
  endfacet
  facet normal 0.8443279255020149 0.5358267949789967 0
    outer loop
      vertex 4.381533400219318 2.4087683705085765 0
      vertex 4.045084971874737 2.938926261462366 0
      vertex 4.381533400219318 2.4087683705085765 2
    endloop
  endfacet
  facet normal 0.8443279255020149 0.5358267949789967 0
    outer loop
      vertex 4.045084971874737 2.938926261462366 0
      vertex 4.045084971874737 2.938926261462366 2
      vertex 4.381533400219318 2.4087683705085765 2
    endloop
  endfacet
  facet normal 0.7705132427757895 0.6374239897486895 0
    outer loop
      vertex 3.644843137107058 3.4227355296434436 0
      vertex 3.644843137107058 3.4227355296434436 2
      vertex 4.045084971874737 2.938926261462366 2
    endloop
  endfacet
  facet normal -0.7705132427757891 -0.6374239897486899 0
    outer loop
      vertex -1.9416407864998737 -1.4106846055019355 14
      vertex -1.9416407864998737 -1.4106846055019355 2
      vertex -1.7495247058113879 -1.6429130542288524 2
    endloop
  endfacet
  facet normal -0.5877852522924727 -0.8090169943749477 0
    outer loop
      vertex -1.2859843079495923 -2.026387021204836 14
      vertex -1.529817575396855 -1.8492317826618945 2
      vertex -1.2859843079495923 -2.026387021204836 2
    endloop
  endfacet
  facet normal -0.6845471059286893 -0.728968627421411 0
    outer loop
      vertex -1.529817575396855 -1.8492317826618945 14
      vertex -1.7495247058113879 -1.6429130542288524 2
      vertex -1.529817575396855 -1.8492317826618945 2
    endloop
  endfacet
  facet normal -0.9048270524660194 -0.425779291565073 0
    outer loop
      vertex -2.2314635661318034 -0.8834989264432268 14
      vertex -2.2314635661318034 -0.8834989264432268 2
      vertex -2.1031360321052723 -1.1562088178441168 2
    endloop
  endfacet
  facet normal -0.9510565162951536 -0.30901699437494745 0
    outer loop
      vertex -2.3245995867087146 -0.5968557291956517 14
      vertex -2.3245995867087146 -0.5968557291956517 2
      vertex -2.2314635661318034 -0.8834989264432268 2
    endloop
  endfacet
  facet normal -0.8443279255020152 -0.5358267949789963 0
    outer loop
      vertex -2.1031360321052723 -1.1562088178441168 14
      vertex -2.1031360321052723 -1.1562088178441168 2
      vertex -1.9416407864998737 -1.4106846055019355 2
    endloop
  endfacet
  facet normal -0.9822872507286886 -0.18738131458572463 0
    outer loop
      vertex -2.381075283154747 -0.3007997605543297 14
      vertex -2.381075283154747 -0.3007997605543297 2
      vertex -2.3245995867087146 -0.5968557291956517 2
    endloop
  endfacet
  facet normal -0.9980267284282716 -0.06279051952931312 0
    outer loop
      vertex -2.4 0 14
      vertex -2.4 0 2
      vertex -2.381075283154747 -0.3007997605543297 2
    endloop
  endfacet
  facet normal -0.48175367410171505 -0.8763066800438638 0
    outer loop
      vertex -1.0218702997561737 -2.171584925918447 14
      vertex -1.2859843079495923 -2.026387021204836 2
      vertex -1.0218702997561737 -2.171584925918447 2
    endloop
  endfacet
  facet normal -0.36812455268467725 -0.9297764858882517 0
    outer loop
      vertex -0.7416407864998737 -2.282535639108368 14
      vertex -1.0218702997561737 -2.171584925918447 2
      vertex -0.7416407864998737 -2.282535639108368 2
    endloop
  endfacet
  facet normal -0.24868988716485554 -0.9685831611286311 0
    outer loop
      vertex -0.44971515500573955 -2.3574894017488526 14
      vertex -0.7416407864998737 -2.282535639108368 2
      vertex -0.44971515500573955 -2.3574894017488526 2
    endloop
  endfacet
  facet normal -0.12533323356430556 -0.9921147013144777 0
    outer loop
      vertex -0.15069724687035302 -2.395264148227852 14
      vertex -0.44971515500573955 -2.3574894017488526 2
      vertex -0.15069724687035302 -2.395264148227852 2
    endloop
  endfacet
  facet normal -0.8443279255020152 -0.5358267949789963 0
    outer loop
      vertex -1.9416407864998737 -1.4106846055019355 14
      vertex -2.1031360321052723 -1.1562088178441168 14
      vertex -1.9416407864998737 -1.4106846055019355 2
    endloop
  endfacet
  facet normal -0.5877852522924727 -0.8090169943749477 0
    outer loop
      vertex -1.529817575396855 -1.8492317826618945 14
      vertex -1.529817575396855 -1.8492317826618945 2
      vertex -1.2859843079495923 -2.026387021204836 14
    endloop
  endfacet
  facet normal -0.7705132427757891 -0.6374239897486899 0
    outer loop
      vertex -1.9416407864998737 -1.4106846055019355 14
      vertex -1.7495247058113879 -1.6429130542288524 2
      vertex -1.7495247058113879 -1.6429130542288524 14
    endloop
  endfacet
  facet normal -0.6845471059286893 -0.728968627421411 0
    outer loop
      vertex -1.529817575396855 -1.8492317826618945 14
      vertex -1.7495247058113879 -1.6429130542288524 14
      vertex -1.7495247058113879 -1.6429130542288524 2
    endloop
  endfacet
  facet normal -0.9510565162951536 -0.30901699437494745 0
    outer loop
      vertex -2.2314635661318034 -0.8834989264432268 14
      vertex -2.3245995867087146 -0.5968557291956517 14
      vertex -2.2314635661318034 -0.8834989264432268 2
    endloop
  endfacet
  facet normal -0.9048270524660194 -0.425779291565073 0
    outer loop
      vertex -2.1031360321052723 -1.1562088178441168 14
      vertex -2.2314635661318034 -0.8834989264432268 14
      vertex -2.1031360321052723 -1.1562088178441168 2
    endloop
  endfacet
  facet normal -0.9822872507286886 -0.18738131458572463 0
    outer loop
      vertex -2.3245995867087146 -0.5968557291956517 14
      vertex -2.381075283154747 -0.3007997605543297 14
      vertex -2.3245995867087146 -0.5968557291956517 2
    endloop
  endfacet
  facet normal -0.9980267284282716 -0.06279051952931312 0
    outer loop
      vertex -2.381075283154747 -0.3007997605543297 14
      vertex -2.4 0 14
      vertex -2.381075283154747 -0.3007997605543297 2
    endloop
  endfacet
  facet normal -0.48175367410171505 -0.8763066800438638 0
    outer loop
      vertex -1.2859843079495923 -2.026387021204836 14
      vertex -1.2859843079495923 -2.026387021204836 2
      vertex -1.0218702997561737 -2.171584925918447 14
    endloop
  endfacet
  facet normal -0.36812455268467725 -0.9297764858882517 0
    outer loop
      vertex -1.0218702997561737 -2.171584925918447 14
      vertex -1.0218702997561737 -2.171584925918447 2
      vertex -0.7416407864998737 -2.282535639108368 14
    endloop
  endfacet
  facet normal -0.24868988716485554 -0.9685831611286311 0
    outer loop
      vertex -0.7416407864998737 -2.282535639108368 14
      vertex -0.7416407864998737 -2.282535639108368 2
      vertex -0.44971515500573955 -2.3574894017488526 14
    endloop
  endfacet
  facet normal -0.12533323356430556 -0.9921147013144777 0
    outer loop
      vertex -0.44971515500573955 -2.3574894017488526 14
      vertex -0.44971515500573955 -2.3574894017488526 2
      vertex -0.15069724687035302 -2.395264148227852 14
    endloop
  endfacet
  facet normal 0 -1 0
    outer loop
      vertex -0.15069724687035302 -2.395264148227852 14
      vertex -0.15069724687035302 -2.395264148227852 2
      vertex 0.15069724687035302 -2.395264148227852 14
    endloop
  endfacet
  facet normal 0 0 1
    outer loop
      vertex -2.1031360321052723 -1.1562088178441168 14
      vertex -2.2314635661318034 0.8834989264432268 14
      vertex -2.2314635661318034 -0.8834989264432268 14
    endloop
  endfacet
  facet normal 0 0 1
    outer loop
      vertex -2.3245995867087146 -0.5968557291956517 14
      vertex -2.381075283154747 0.3007997605543297 14
      vertex -2.381075283154747 -0.3007997605543297 14
    endloop
  endfacet
  facet normal 0 0 1
    outer loop
      vertex -2.2314635661318034 -0.8834989264432268 14
      vertex -2.3245995867087146 0.5968557291956517 14
      vertex -2.3245995867087146 -0.5968557291956517 14
    endloop
  endfacet
  facet normal 0 0 1
    outer loop
      vertex -1.9416407864998737 -1.4106846055019355 14
      vertex -2.1031360321052723 1.1562088178441168 14
      vertex -2.1031360321052723 -1.1562088178441168 14
    endloop
  endfacet
  facet normal 0 0 1
    outer loop
      vertex -1.9416407864998737 -1.4106846055019355 14
      vertex -1.7495247058113879 -1.6429130542288524 14
      vertex -1.9416407864998737 1.4106846055019355 14
    endloop
  endfacet
  facet normal 0 0 1
    outer loop
      vertex -1.529817575396855 -1.8492317826618945 14
      vertex -1.2859843079495923 -2.026387021204836 14
      vertex -1.529817575396855 1.8492317826618945 14
    endloop
  endfacet
  facet normal 0 0 1
    outer loop
      vertex -1.529817575396855 -1.8492317826618945 14
      vertex -1.7495247058113879 1.6429130542288524 14
      vertex -1.7495247058113879 -1.6429130542288524 14
    endloop
  endfacet
  facet normal 0 0 1
    outer loop
      vertex -1.2859843079495923 -2.026387021204836 14
      vertex -1.0218702997561737 -2.171584925918447 14
      vertex -1.2859843079495923 2.026387021204836 14
    endloop
  endfacet
  facet normal 0 0 1
    outer loop
      vertex -1.0218702997561737 -2.171584925918447 14
      vertex -0.7416407864998737 -2.282535639108368 14
      vertex -1.0218702997561744 2.1715849259184465 14
    endloop
  endfacet
  facet normal 0 0 1
    outer loop
      vertex -0.7416407864998737 -2.282535639108368 14
      vertex -0.44971515500573955 -2.3574894017488526 14
      vertex -0.7416407864998737 2.282535639108368 14
    endloop
  endfacet
  facet normal 0 0 1
    outer loop
      vertex -0.44971515500573955 -2.3574894017488526 14
      vertex -0.15069724687035302 -2.395264148227852 14
      vertex -0.44971515500573894 2.357489401748853 14
    endloop
  endfacet
  facet normal 0 0 1
    outer loop
      vertex -0.15069724687035302 -2.395264148227852 14
      vertex 0.15069724687035302 -2.395264148227852 14
      vertex -0.15069724687035185 2.395264148227852 14
    endloop
  endfacet
  facet normal -0.9980267284282716 0.06279051952931312 0
    outer loop
      vertex -2.381075283154747 0.3007997605543297 14
      vertex -2.381075283154747 0.3007997605543297 2
      vertex -2.4 0 2
    endloop
  endfacet
  facet normal -0.9822872507286886 0.18738131458572463 0
    outer loop
      vertex -2.3245995867087146 0.5968557291956517 14
      vertex -2.3245995867087146 0.5968557291956517 2
      vertex -2.381075283154747 0.3007997605543297 2
    endloop
  endfacet
  facet normal -0.9510565162951536 0.30901699437494745 0
    outer loop
      vertex -2.2314635661318034 0.8834989264432268 14
      vertex -2.2314635661318034 0.8834989264432268 2
      vertex -2.3245995867087146 0.5968557291956517 2
    endloop
  endfacet
  facet normal -0.9048270524660194 0.425779291565073 0
    outer loop
      vertex -2.1031360321052723 1.1562088178441168 14
      vertex -2.1031360321052723 1.1562088178441168 2
      vertex -2.2314635661318034 0.8834989264432268 2
    endloop
  endfacet
  facet normal -0.8443279255020152 0.5358267949789963 0
    outer loop
      vertex -1.9416407864998737 1.4106846055019355 14
      vertex -1.9416407864998737 1.4106846055019355 2
      vertex -2.1031360321052723 1.1562088178441168 2
    endloop
  endfacet
  facet normal -0.7705132427757891 0.6374239897486899 0
    outer loop
      vertex -1.7495247058113879 1.6429130542288524 14
      vertex -1.7495247058113879 1.6429130542288524 2
      vertex -1.9416407864998737 1.4106846055019355 2
    endloop
  endfacet
  facet normal -0.6845471059286893 0.728968627421411 0
    outer loop
      vertex -1.7495247058113879 1.6429130542288524 14
      vertex -1.529817575396855 1.8492317826618945 2
      vertex -1.7495247058113879 1.6429130542288524 2
    endloop
  endfacet
  facet normal -0.5877852522924727 0.8090169943749477 0
    outer loop
      vertex -1.529817575396855 1.8492317826618945 14
      vertex -1.2859843079495923 2.026387021204836 2
      vertex -1.529817575396855 1.8492317826618945 2
    endloop
  endfacet
  facet normal -0.4817536741017148 0.8763066800438638 0
    outer loop
      vertex -1.2859843079495923 2.026387021204836 14
      vertex -1.0218702997561744 2.1715849259184465 2
      vertex -1.2859843079495923 2.026387021204836 2
    endloop
  endfacet
  facet normal -0.36812455268467775 0.9297764858882516 0
    outer loop
      vertex -1.0218702997561744 2.1715849259184465 14
      vertex -0.7416407864998737 2.282535639108368 2
      vertex -1.0218702997561744 2.1715849259184465 2
    endloop
  endfacet
  facet normal -0.2486898871648564 0.9685831611286307 0
    outer loop
      vertex -0.7416407864998737 2.282535639108368 14
      vertex -0.44971515500573894 2.357489401748853 2
      vertex -0.7416407864998737 2.282535639108368 2
    endloop
  endfacet
  facet normal -0.12533323356430362 0.9921147013144779 0
    outer loop
      vertex -0.44971515500573894 2.357489401748853 14
      vertex -0.15069724687035124 2.395264148227852 2
      vertex -0.44971515500573894 2.357489401748853 2
    endloop
  endfacet
  facet normal 0 1 0
    outer loop
      vertex -0.15069724687035185 2.395264148227852 14
      vertex 0.15069724687035185 2.395264148227852 2
      vertex -0.15069724687035124 2.395264148227852 2
    endloop
  endfacet
  facet normal -0.9980267284282716 0.06279051952931312 0
    outer loop
      vertex -2.4 0 14
      vertex -2.381075283154747 0.3007997605543297 14
      vertex -2.4 0 2
    endloop
  endfacet
  facet normal -0.9822872507286886 0.18738131458572463 0
    outer loop
      vertex -2.381075283154747 0.3007997605543297 14
      vertex -2.3245995867087146 0.5968557291956517 14
      vertex -2.381075283154747 0.3007997605543297 2
    endloop
  endfacet
  facet normal -0.9510565162951536 0.30901699437494745 0
    outer loop
      vertex -2.3245995867087146 0.5968557291956517 14
      vertex -2.2314635661318034 0.8834989264432268 14
      vertex -2.3245995867087146 0.5968557291956517 2
    endloop
  endfacet
  facet normal -0.9048270524660194 0.425779291565073 0
    outer loop
      vertex -2.2314635661318034 0.8834989264432268 14
      vertex -2.1031360321052723 1.1562088178441168 14
      vertex -2.2314635661318034 0.8834989264432268 2
    endloop
  endfacet
  facet normal -0.8443279255020152 0.5358267949789963 0
    outer loop
      vertex -2.1031360321052723 1.1562088178441168 14
      vertex -1.9416407864998737 1.4106846055019355 14
      vertex -2.1031360321052723 1.1562088178441168 2
    endloop
  endfacet
  facet normal -0.7705132427757891 0.6374239897486899 0
    outer loop
      vertex -1.9416407864998737 1.4106846055019355 14
      vertex -1.7495247058113879 1.6429130542288524 14
      vertex -1.9416407864998737 1.4106846055019355 2
    endloop
  endfacet
  facet normal -0.6845471059286893 0.728968627421411 0
    outer loop
      vertex -1.7495247058113879 1.6429130542288524 14
      vertex -1.529817575396855 1.8492317826618945 14
      vertex -1.529817575396855 1.8492317826618945 2
    endloop
  endfacet
  facet normal -0.5877852522924727 0.8090169943749477 0
    outer loop
      vertex -1.529817575396855 1.8492317826618945 14
      vertex -1.2859843079495923 2.026387021204836 14
      vertex -1.2859843079495923 2.026387021204836 2
    endloop
  endfacet
  facet normal -0.4817536741017148 0.8763066800438638 0
    outer loop
      vertex -1.2859843079495923 2.026387021204836 14
      vertex -1.0218702997561744 2.1715849259184465 14
      vertex -1.0218702997561744 2.1715849259184465 2
    endloop
  endfacet
  facet normal -0.36812455268467775 0.9297764858882516 0
    outer loop
      vertex -1.0218702997561744 2.1715849259184465 14
      vertex -0.7416407864998737 2.282535639108368 14
      vertex -0.7416407864998737 2.282535639108368 2
    endloop
  endfacet
  facet normal -0.2486898871648564 0.9685831611286307 0
    outer loop
      vertex -0.7416407864998737 2.282535639108368 14
      vertex -0.44971515500573894 2.357489401748853 14
      vertex -0.44971515500573894 2.357489401748853 2
    endloop
  endfacet
  facet normal -0.12533323356430387 0.9921147013144779 -6.235295616443234e-18
    outer loop
      vertex -0.44971515500573894 2.357489401748853 14
      vertex -0.15069724687035185 2.395264148227852 14
      vertex -0.15069724687035124 2.395264148227852 2
    endloop
  endfacet
  facet normal 0 0 1
    outer loop
      vertex -2.381075283154747 -0.3007997605543297 14
      vertex -2.381075283154747 0.3007997605543297 14
      vertex -2.4 0 14
    endloop
  endfacet
  facet normal 0 0 1
    outer loop
      vertex -2.3245995867087146 -0.5968557291956517 14
      vertex -2.3245995867087146 0.5968557291956517 14
      vertex -2.381075283154747 0.3007997605543297 14
    endloop
  endfacet
  facet normal 0 0 1
    outer loop
      vertex -2.2314635661318034 -0.8834989264432268 14
      vertex -2.2314635661318034 0.8834989264432268 14
      vertex -2.3245995867087146 0.5968557291956517 14
    endloop
  endfacet
  facet normal 0 0 1
    outer loop
      vertex -2.1031360321052723 -1.1562088178441168 14
      vertex -2.1031360321052723 1.1562088178441168 14
      vertex -2.2314635661318034 0.8834989264432268 14
    endloop
  endfacet
  facet normal 0 0 1
    outer loop
      vertex -1.9416407864998737 -1.4106846055019355 14
      vertex -1.9416407864998737 1.4106846055019355 14
      vertex -2.1031360321052723 1.1562088178441168 14
    endloop
  endfacet
  facet normal 0 0 1
    outer loop
      vertex -1.7495247058113879 -1.6429130542288524 14
      vertex -1.7495247058113879 1.6429130542288524 14
      vertex -1.9416407864998737 1.4106846055019355 14
    endloop
  endfacet
  facet normal 0 0 1
    outer loop
      vertex -1.529817575396855 -1.8492317826618945 14
      vertex -1.529817575396855 1.8492317826618945 14
      vertex -1.7495247058113879 1.6429130542288524 14
    endloop
  endfacet
  facet normal 0 0 1
    outer loop
      vertex -1.2859843079495923 -2.026387021204836 14
      vertex -1.2859843079495923 2.026387021204836 14
      vertex -1.529817575396855 1.8492317826618945 14
    endloop
  endfacet
  facet normal 0 0 1
    outer loop
      vertex -1.0218702997561737 -2.171584925918447 14
      vertex -1.0218702997561744 2.1715849259184465 14
      vertex -1.2859843079495923 2.026387021204836 14
    endloop
  endfacet
  facet normal 0 0 1
    outer loop
      vertex -0.7416407864998737 -2.282535639108368 14
      vertex -0.7416407864998737 2.282535639108368 14
      vertex -1.0218702997561744 2.1715849259184465 14
    endloop
  endfacet
  facet normal 0 0 1
    outer loop
      vertex -0.44971515500573955 -2.3574894017488526 14
      vertex -0.44971515500573894 2.357489401748853 14
      vertex -0.7416407864998737 2.282535639108368 14
    endloop
  endfacet
  facet normal 0 0 1
    outer loop
      vertex -0.15069724687035302 -2.395264148227852 14
      vertex -0.15069724687035185 2.395264148227852 14
      vertex -0.44971515500573894 2.357489401748853 14
    endloop
  endfacet
  facet normal 0 -1 0
    outer loop
      vertex 0.15069724687035302 -2.395264148227852 14
      vertex -0.15069724687035302 -2.395264148227852 2
      vertex 0.15069724687035302 -2.395264148227852 2
    endloop
  endfacet
  facet normal 0.12533323356430556 -0.9921147013144777 0
    outer loop
      vertex 0.44971515500573955 -2.3574894017488526 14
      vertex 0.15069724687035302 -2.395264148227852 2
      vertex 0.44971515500573955 -2.3574894017488526 2
    endloop
  endfacet
  facet normal 0.24868988716485554 -0.9685831611286311 0
    outer loop
      vertex 0.7416407864998737 -2.282535639108368 14
      vertex 0.44971515500573955 -2.3574894017488526 2
      vertex 0.7416407864998737 -2.282535639108368 2
    endloop
  endfacet
  facet normal 0.36812455268467725 -0.9297764858882517 0
    outer loop
      vertex 1.0218702997561737 -2.171584925918447 14
      vertex 0.7416407864998737 -2.282535639108368 2
      vertex 1.0218702997561737 -2.171584925918447 2
    endloop
  endfacet
  facet normal 0.48175367410171466 -0.876306680043864 0
    outer loop
      vertex 1.285984307949591 -2.0263870212048367 14
      vertex 1.0218702997561737 -2.171584925918447 2
      vertex 1.285984307949591 -2.0263870212048367 2
    endloop
  endfacet
  facet normal 0.587785252292473 -0.8090169943749475 0
    outer loop
      vertex 1.529817575396856 -1.8492317826618936 14
      vertex 1.285984307949591 -2.0263870212048367 2
      vertex 1.529817575396856 -1.8492317826618936 2
    endloop
  endfacet
  facet normal 0.6845471059286892 -0.7289686274214111 0
    outer loop
      vertex 1.7495247058113879 -1.6429130542288524 14
      vertex 1.529817575396856 -1.8492317826618936 2
      vertex 1.7495247058113879 -1.6429130542288524 2
    endloop
  endfacet
  facet normal 0.7705132427757891 -0.6374239897486899 0
    outer loop
      vertex 1.7495247058113879 -1.6429130542288524 14
      vertex 1.7495247058113879 -1.6429130542288524 2
      vertex 1.9416407864998737 -1.4106846055019355 2
    endloop
  endfacet
  facet normal 0.8443279255020152 -0.5358267949789963 0
    outer loop
      vertex 1.9416407864998737 -1.4106846055019355 14
      vertex 1.9416407864998737 -1.4106846055019355 2
      vertex 2.1031360321052723 -1.1562088178441168 2
    endloop
  endfacet
  facet normal 0.9048270524660192 -0.4257792915650733 0
    outer loop
      vertex 2.1031360321052723 -1.1562088178441168 14
      vertex 2.1031360321052723 -1.1562088178441168 2
      vertex 2.231463566131803 -0.883498926443228 2
    endloop
  endfacet
  facet normal 0.9510565162951539 -0.3090169943749466 0
    outer loop
      vertex 2.231463566131803 -0.883498926443228 14
      vertex 2.231463566131803 -0.883498926443228 2
      vertex 2.3245995867087146 -0.5968557291956507 2
    endloop
  endfacet
  facet normal 0.9822872507286886 -0.18738131458572524 0
    outer loop
      vertex 2.3245995867087146 -0.5968557291956507 14
      vertex 2.3245995867087146 -0.5968557291956507 2
      vertex 2.381075283154747 -0.3007997605543297 2
    endloop
  endfacet
  facet normal 0.9980267284282716 -0.06279051952931312 0
    outer loop
      vertex 2.381075283154747 -0.3007997605543297 14
      vertex 2.381075283154747 -0.3007997605543297 2
      vertex 2.4 0 2
    endloop
  endfacet
  facet normal 0.12533323356430556 -0.9921147013144777 0
    outer loop
      vertex 0.15069724687035302 -2.395264148227852 14
      vertex 0.15069724687035302 -2.395264148227852 2
      vertex 0.44971515500573955 -2.3574894017488526 14
    endloop
  endfacet
  facet normal 0.24868988716485554 -0.9685831611286311 0
    outer loop
      vertex 0.44971515500573955 -2.3574894017488526 14
      vertex 0.44971515500573955 -2.3574894017488526 2
      vertex 0.7416407864998737 -2.282535639108368 14
    endloop
  endfacet
  facet normal 0.36812455268467725 -0.9297764858882517 0
    outer loop
      vertex 0.7416407864998737 -2.282535639108368 14
      vertex 0.7416407864998737 -2.282535639108368 2
      vertex 1.0218702997561737 -2.171584925918447 14
    endloop
  endfacet
  facet normal 0.48175367410171466 -0.876306680043864 0
    outer loop
      vertex 1.0218702997561737 -2.171584925918447 14
      vertex 1.0218702997561737 -2.171584925918447 2
      vertex 1.285984307949591 -2.0263870212048367 14
    endloop
  endfacet
  facet normal 0.587785252292473 -0.8090169943749475 0
    outer loop
      vertex 1.285984307949591 -2.0263870212048367 14
      vertex 1.285984307949591 -2.0263870212048367 2
      vertex 1.529817575396856 -1.8492317826618936 14
    endloop
  endfacet
  facet normal 0.6845471059286892 -0.7289686274214111 0
    outer loop
      vertex 1.529817575396856 -1.8492317826618936 14
      vertex 1.529817575396856 -1.8492317826618936 2
      vertex 1.7495247058113879 -1.6429130542288524 14
    endloop
  endfacet
  facet normal 0.7705132427757891 -0.6374239897486899 0
    outer loop
      vertex 1.7495247058113879 -1.6429130542288524 14
      vertex 1.9416407864998737 -1.4106846055019355 2
      vertex 1.9416407864998737 -1.4106846055019355 14
    endloop
  endfacet
  facet normal 0.8443279255020152 -0.5358267949789963 0
    outer loop
      vertex 1.9416407864998737 -1.4106846055019355 14
      vertex 2.1031360321052723 -1.1562088178441168 2
      vertex 2.1031360321052723 -1.1562088178441168 14
    endloop
  endfacet
  facet normal 0.9048270524660192 -0.4257792915650733 0
    outer loop
      vertex 2.1031360321052723 -1.1562088178441168 14
      vertex 2.231463566131803 -0.883498926443228 2
      vertex 2.231463566131803 -0.883498926443228 14
    endloop
  endfacet
  facet normal 0.9510565162951539 -0.3090169943749466 0
    outer loop
      vertex 2.231463566131803 -0.883498926443228 14
      vertex 2.3245995867087146 -0.5968557291956507 2
      vertex 2.3245995867087146 -0.5968557291956507 14
    endloop
  endfacet
  facet normal 0.9822872507286886 -0.18738131458572524 0
    outer loop
      vertex 2.3245995867087146 -0.5968557291956507 14
      vertex 2.381075283154747 -0.3007997605543297 2
      vertex 2.381075283154747 -0.3007997605543297 14
    endloop
  endfacet
  facet normal 0.9980267284282716 -0.06279051952931312 0
    outer loop
      vertex 2.381075283154747 -0.3007997605543297 14
      vertex 2.4 0 2
      vertex 2.4 0 14
    endloop
  endfacet
  facet normal 0 0 1
    outer loop
      vertex 0.15069724687035302 -2.395264148227852 14
      vertex 0.44971515500573955 -2.3574894017488526 14
      vertex 0.15069724687035185 2.395264148227852 14
    endloop
  endfacet
  facet normal 0 0 1
    outer loop
      vertex 0.44971515500573955 -2.3574894017488526 14
      vertex 0.7416407864998737 -2.282535639108368 14
      vertex 0.44971515500573894 2.357489401748853 14
    endloop
  endfacet
  facet normal 0 0 1
    outer loop
      vertex 0.7416407864998737 -2.282535639108368 14
      vertex 1.0218702997561737 -2.171584925918447 14
      vertex 0.7416407864998737 2.282535639108368 14
    endloop
  endfacet
  facet normal 0 0 1
    outer loop
      vertex 1.0218702997561737 -2.171584925918447 14
      vertex 1.285984307949591 -2.0263870212048367 14
      vertex 1.0218702997561744 2.1715849259184465 14
    endloop
  endfacet
  facet normal 0 0 1
    outer loop
      vertex 1.285984307949591 -2.0263870212048367 14
      vertex 1.529817575396856 -1.8492317826618936 14
      vertex 1.2859843079495918 2.0263870212048363 14
    endloop
  endfacet
  facet normal 0 0 1
    outer loop
      vertex 1.529817575396856 -1.8492317826618936 14
      vertex 1.7495247058113879 -1.6429130542288524 14
      vertex 1.5298175753968553 1.8492317826618938 14
    endloop
  endfacet
  facet normal 0 0 1
    outer loop
      vertex 1.7495247058113879 -1.6429130542288524 14
      vertex 1.9416407864998737 -1.4106846055019355 14
      vertex 1.7495247058113876 1.6429130542288528 14
    endloop
  endfacet
  facet normal 0 0 1
    outer loop
      vertex 1.9416407864998737 -1.4106846055019355 14
      vertex 2.1031360321052723 -1.1562088178441168 14
      vertex 1.9416407864998737 1.4106846055019355 14
    endloop
  endfacet
  facet normal 0 0 1
    outer loop
      vertex 2.1031360321052723 -1.1562088178441168 14
      vertex 2.231463566131803 -0.883498926443228 14
      vertex 2.1031360321052723 1.1562088178441168 14
    endloop
  endfacet
  facet normal 0 0 1
    outer loop
      vertex 2.231463566131803 -0.883498926443228 14
      vertex 2.3245995867087146 -0.5968557291956507 14
      vertex 2.231463566131803 0.8834989264432271 14
    endloop
  endfacet
  facet normal 0 0 1
    outer loop
      vertex 2.3245995867087146 -0.5968557291956507 14
      vertex 2.381075283154747 -0.3007997605543297 14
      vertex 2.3245995867087146 0.5968557291956514 14
    endloop
  endfacet
  facet normal 0.12533323356430387 0.9921147013144779 0
    outer loop
      vertex 0.15069724687035185 2.395264148227852 14
      vertex 0.44971515500573894 2.357489401748853 2
      vertex 0.15069724687035185 2.395264148227852 2
    endloop
  endfacet
  facet normal 0.2486898871648564 0.9685831611286307 0
    outer loop
      vertex 0.44971515500573894 2.357489401748853 14
      vertex 0.7416407864998737 2.282535639108368 2
      vertex 0.44971515500573894 2.357489401748853 2
    endloop
  endfacet
  facet normal 0.36812455268467775 0.9297764858882516 0
    outer loop
      vertex 0.7416407864998737 2.282535639108368 14
      vertex 1.0218702997561744 2.1715849259184465 2
      vertex 0.7416407864998737 2.282535639108368 2
    endloop
  endfacet
  facet normal 0.4817536741017143 0.876306680043864 0
    outer loop
      vertex 1.0218702997561744 2.1715849259184465 14
      vertex 1.2859843079495918 2.0263870212048363 2
      vertex 1.0218702997561744 2.1715849259184465 2
    endloop
  endfacet
  facet normal 0.9980267284282716 0.06279051952931301 0
    outer loop
      vertex 2.4 0 14
      vertex 2.4 0 2
      vertex 2.381075283154747 0.3007997605543302 2
    endloop
  endfacet
  facet normal 0.9822872507286886 0.18738131458572507 0
    outer loop
      vertex 2.381075283154747 0.3007997605543302 14
      vertex 2.381075283154747 0.3007997605543302 2
      vertex 2.3245995867087146 0.5968557291956514 2
    endloop
  endfacet
  facet normal 0.8443279255020152 0.5358267949789963 0
    outer loop
      vertex 2.1031360321052723 1.1562088178441168 14
      vertex 2.1031360321052723 1.1562088178441168 2
      vertex 1.9416407864998737 1.4106846055019355 2
    endloop
  endfacet
  facet normal 0.9510565162951533 0.30901699437494823 0
    outer loop
      vertex 2.3245995867087146 0.5968557291956514 14
      vertex 2.3245995867087146 0.5968557291956514 2
      vertex 2.231463566131803 0.8834989264432271 2
    endloop
  endfacet
  facet normal 0.9048270524660197 0.4257792915650722 0
    outer loop
      vertex 2.231463566131803 0.8834989264432271 14
      vertex 2.231463566131803 0.8834989264432271 2
      vertex 2.1031360321052723 1.1562088178441168 2
    endloop
  endfacet
  facet normal 0.6845471059286881 0.7289686274214121 0
    outer loop
      vertex 1.5298175753968553 1.8492317826618938 14
      vertex 1.7495247058113876 1.6429130542288528 2
      vertex 1.5298175753968553 1.8492317826618938 2
    endloop
  endfacet
  facet normal 0.587785252292474 0.8090169943749468 0
    outer loop
      vertex 1.2859843079495918 2.0263870212048363 14
      vertex 1.5298175753968553 1.8492317826618938 2
      vertex 1.2859843079495918 2.0263870212048363 2
    endloop
  endfacet
  facet normal 0.7705132427757893 0.6374239897486895 0
    outer loop
      vertex 1.9416407864998737 1.4106846055019355 14
      vertex 1.9416407864998737 1.4106846055019355 2
      vertex 1.7495247058113876 1.6429130542288528 2
    endloop
  endfacet
  facet normal 0 1 0
    outer loop
      vertex -0.15069724687035185 2.395264148227852 14
      vertex 0.15069724687035185 2.395264148227852 14
      vertex 0.15069724687035185 2.395264148227852 2
    endloop
  endfacet
  facet normal 0.12533323356430387 0.9921147013144779 0
    outer loop
      vertex 0.15069724687035185 2.395264148227852 14
      vertex 0.44971515500573894 2.357489401748853 14
      vertex 0.44971515500573894 2.357489401748853 2
    endloop
  endfacet
  facet normal 0.2486898871648564 0.9685831611286307 0
    outer loop
      vertex 0.44971515500573894 2.357489401748853 14
      vertex 0.7416407864998737 2.282535639108368 14
      vertex 0.7416407864998737 2.282535639108368 2
    endloop
  endfacet
  facet normal 0.36812455268467775 0.9297764858882516 0
    outer loop
      vertex 0.7416407864998737 2.282535639108368 14
      vertex 1.0218702997561744 2.1715849259184465 14
      vertex 1.0218702997561744 2.1715849259184465 2
    endloop
  endfacet
  facet normal 0.4817536741017143 0.876306680043864 0
    outer loop
      vertex 1.0218702997561744 2.1715849259184465 14
      vertex 1.2859843079495918 2.0263870212048363 14
      vertex 1.2859843079495918 2.0263870212048363 2
    endloop
  endfacet
  facet normal 0.9980267284282716 0.06279051952931301 0
    outer loop
      vertex 2.4 0 14
      vertex 2.381075283154747 0.3007997605543302 2
      vertex 2.381075283154747 0.3007997605543302 14
    endloop
  endfacet
  facet normal 0.9822872507286886 0.18738131458572507 0
    outer loop
      vertex 2.381075283154747 0.3007997605543302 14
      vertex 2.3245995867087146 0.5968557291956514 2
      vertex 2.3245995867087146 0.5968557291956514 14
    endloop
  endfacet
  facet normal 0.9048270524660197 0.4257792915650722 0
    outer loop
      vertex 2.231463566131803 0.8834989264432271 14
      vertex 2.1031360321052723 1.1562088178441168 2
      vertex 2.1031360321052723 1.1562088178441168 14
    endloop
  endfacet
  facet normal 0.9510565162951533 0.30901699437494823 0
    outer loop
      vertex 2.3245995867087146 0.5968557291956514 14
      vertex 2.231463566131803 0.8834989264432271 2
      vertex 2.231463566131803 0.8834989264432271 14
    endloop
  endfacet
  facet normal 0.6845471059286881 0.7289686274214121 0
    outer loop
      vertex 1.7495247058113876 1.6429130542288528 14
      vertex 1.7495247058113876 1.6429130542288528 2
      vertex 1.5298175753968553 1.8492317826618938 14
    endloop
  endfacet
  facet normal 0.7705132427757893 0.6374239897486895 0
    outer loop
      vertex 1.7495247058113876 1.6429130542288528 14
      vertex 1.9416407864998737 1.4106846055019355 14
      vertex 1.7495247058113876 1.6429130542288528 2
    endloop
  endfacet
  facet normal 0.587785252292474 0.8090169943749468 0
    outer loop
      vertex 1.2859843079495918 2.0263870212048363 14
      vertex 1.5298175753968553 1.8492317826618938 14
      vertex 1.5298175753968553 1.8492317826618938 2
    endloop
  endfacet
  facet normal 0.8443279255020152 0.5358267949789963 0
    outer loop
      vertex 2.1031360321052723 1.1562088178441168 14
      vertex 1.9416407864998737 1.4106846055019355 2
      vertex 1.9416407864998737 1.4106846055019355 14
    endloop
  endfacet
  facet normal 0 0 1
    outer loop
      vertex -0.15069724687035185 2.395264148227852 14
      vertex 0.15069724687035302 -2.395264148227852 14
      vertex 0.15069724687035185 2.395264148227852 14
    endloop
  endfacet
  facet normal 0 0 1
    outer loop
      vertex 0.44971515500573955 -2.3574894017488526 14
      vertex 0.44971515500573894 2.357489401748853 14
      vertex 0.15069724687035185 2.395264148227852 14
    endloop
  endfacet
  facet normal 0 0 1
    outer loop
      vertex 0.7416407864998737 -2.282535639108368 14
      vertex 0.7416407864998737 2.282535639108368 14
      vertex 0.44971515500573894 2.357489401748853 14
    endloop
  endfacet
  facet normal 0 0 1
    outer loop
      vertex 1.0218702997561737 -2.171584925918447 14
      vertex 1.0218702997561744 2.1715849259184465 14
      vertex 0.7416407864998737 2.282535639108368 14
    endloop
  endfacet
  facet normal 0 0 1
    outer loop
      vertex 1.285984307949591 -2.0263870212048367 14
      vertex 1.2859843079495918 2.0263870212048363 14
      vertex 1.0218702997561744 2.1715849259184465 14
    endloop
  endfacet
  facet normal 0 0 1
    outer loop
      vertex 1.7495247058113879 -1.6429130542288524 14
      vertex 1.7495247058113876 1.6429130542288528 14
      vertex 1.5298175753968553 1.8492317826618938 14
    endloop
  endfacet
  facet normal 0 0 1
    outer loop
      vertex 1.529817575396856 -1.8492317826618936 14
      vertex 1.5298175753968553 1.8492317826618938 14
      vertex 1.2859843079495918 2.0263870212048363 14
    endloop
  endfacet
  facet normal 0 0 1
    outer loop
      vertex 1.9416407864998737 -1.4106846055019355 14
      vertex 1.9416407864998737 1.4106846055019355 14
      vertex 1.7495247058113876 1.6429130542288528 14
    endloop
  endfacet
  facet normal 0 0 1
    outer loop
      vertex 2.1031360321052723 -1.1562088178441168 14
      vertex 2.1031360321052723 1.1562088178441168 14
      vertex 1.9416407864998737 1.4106846055019355 14
    endloop
  endfacet
  facet normal 0 0 1
    outer loop
      vertex 2.3245995867087146 -0.5968557291956507 14
      vertex 2.3245995867087146 0.5968557291956514 14
      vertex 2.231463566131803 0.8834989264432271 14
    endloop
  endfacet
  facet normal 0 0 1
    outer loop
      vertex 2.381075283154747 -0.3007997605543297 14
      vertex 2.4 0 14
      vertex 2.381075283154747 0.3007997605543302 14
    endloop
  endfacet
  facet normal 0 0 1
    outer loop
      vertex 2.381075283154747 -0.3007997605543297 14
      vertex 2.381075283154747 0.3007997605543302 14
      vertex 2.3245995867087146 0.5968557291956514 14
    endloop
  endfacet
  facet normal 0 0 1
    outer loop
      vertex 2.231463566131803 -0.883498926443228 14
      vertex 2.231463566131803 0.8834989264432271 14
      vertex 2.1031360321052723 1.1562088178441168 14
    endloop
  endfacet
endsolid OpenSCAD_Model
