solid OpenSCAD_Model
  facet normal 0 0 -1
    outer loop
      vertex -5.482050807568877 5.495190528383289 0.19999999999999996
      vertex -6.116025403784438 8.593266739736606 0.19999999999999996
      vertex -4.961571334348192 5.795689492354926 0.19999999999999996
    endloop
  endfacet
  facet normal 0 0 -1
    outer loop
      vertex -4.961571334348192 5.795689492354926 0.19999999999999996
      vertex -6.116025403784438 8.593266739736606 0.19999999999999996
      vertex -2.2093791452135787 7.546484029638476 0.19999999999999996
    endloop
  endfacet
  facet normal 0 0 -1
    outer loop
      vertex -2.2093791452135787 7.546484029638476 0.19999999999999996
      vertex -2.189895455802586 7.647664108858685 0.19999999999999996
      vertex -2.155288493954106 7.61697633886037 0.19999999999999996
    endloop
  endfacet
  facet normal 0 0 -1
    outer loop
      vertex -2.2093791452135787 7.546484029638476 0.19999999999999996
      vertex -4.383974596215562 9.593266739736606 0.19999999999999996
      vertex -2.189895455802586 7.647664108858685 0.19999999999999996
    endloop
  endfacet
  facet normal 0 0 -1
    outer loop
      vertex -6.116025403784438 8.593266739736606 0.19999999999999996
      vertex -4.383974596215562 9.593266739736606 0.19999999999999996
      vertex -2.2093791452135787 7.546484029638476 0.19999999999999996
    endloop
  endfacet
  facet normal 0.4999999999999999 -0.8660254037844387 0
    outer loop
      vertex -5.482050807568877 5.495190528383289 0.19999999999999996
      vertex -4.961571334348192 5.795689492354926 0.19999999999999996
      vertex -5.482050807568877 5.495190528383289 3.8
    endloop
  endfacet
  facet normal -0.9796977192661681 -0.20048037027267385 0
    outer loop
      vertex -5.482050807568877 5.495190528383289 0.19999999999999996
      vertex -6.116025403784438 8.593266739736606 3.8
      vertex -6.116025403784438 8.593266739736606 0.19999999999999996
    endloop
  endfacet
  facet normal 0.6634699532493303 0.7482029277778399 0
    outer loop
      vertex -2.189895455802586 7.647664108858685 0.19999999999999996
      vertex -4.383974596215562 9.593266739736606 0.19999999999999996
      vertex -2.189895455802586 7.647664108858685 3.8
    endloop
  endfacet
  facet normal -0.5000000000000001 0.8660254037844386 0
    outer loop
      vertex -6.116025403784438 8.593266739736606 0.19999999999999996
      vertex -4.383974596215562 9.593266739736606 3.8
      vertex -4.383974596215562 9.593266739736606 0.19999999999999996
    endloop
  endfacet
  facet normal 0.4999999999999999 -0.8660254037844387 0
    outer loop
      vertex -4.961571334348192 5.795689492354926 0.19999999999999996
      vertex -4.961571334348192 5.795689492354926 3.8
      vertex -5.482050807568877 5.495190528383289 3.8
    endloop
  endfacet
  facet normal -0.9796977192661681 -0.20048037027267385 0
    outer loop
      vertex -5.482050807568877 5.495190528383289 0.19999999999999996
      vertex -5.482050807568877 5.495190528383289 3.8
      vertex -6.116025403784438 8.593266739736606 3.8
    endloop
  endfacet
  facet normal -0.5000000000000001 0.8660254037844386 0
    outer loop
      vertex -6.116025403784438 8.593266739736606 0.19999999999999996
      vertex -6.116025403784438 8.593266739736606 3.8
      vertex -4.383974596215562 9.593266739736606 3.8
    endloop
  endfacet
  facet normal 0.6634699532493303 0.7482029277778399 0
    outer loop
      vertex -4.383974596215562 9.593266739736606 0.19999999999999996
      vertex -4.383974596215562 9.593266739736606 3.8
      vertex -2.189895455802586 7.647664108858685 3.8
    endloop
  endfacet
  facet normal 0 0 1
    outer loop
      vertex -5.482050807568877 5.495190528383289 3.8
      vertex -4.961571334348192 5.795689492354926 3.8
      vertex -6.116025403784438 8.593266739736606 3.8
    endloop
  endfacet
  facet normal 0 0 1
    outer loop
      vertex -4.961571334348192 5.795689492354926 3.8
      vertex -2.3035559137888106 7.571718618723982 3.8
      vertex -6.116025403784438 8.593266739736606 3.8
    endloop
  endfacet
  facet normal 0 0 1
    outer loop
      vertex -2.3035559137888106 7.571718618723982 3.8
      vertex -2.189895455802586 7.647664108858685 3.8
      vertex -4.383974596215562 9.593266739736606 3.8
    endloop
  endfacet
  facet normal 0 0 1
    outer loop
      vertex -6.116025403784438 8.593266739736606 3.8
      vertex -2.3035559137888106 7.571718618723982 3.8
      vertex -4.383974596215562 9.593266739736606 3.8
    endloop
  endfacet
  facet normal 0 0 -1
    outer loop
      vertex -7.5 -2 0.19999999999999996
      vertex -10.5 -1 0.19999999999999996
      vertex -7.5 -1.4729525040207623 0.19999999999999996
    endloop
  endfacet
  facet normal 0 0 -1
    outer loop
      vertex -7.5 -1.4729525040207623 0.19999999999999996
      vertex -10.5 -1 0.19999999999999996
      vertex -7.5 0 0.19999999999999996
    endloop
  endfacet
  facet normal -0.31622776601683794 -0.9486832980505138 0
    outer loop
      vertex -7.5 -2 0.19999999999999996
      vertex -10.5 -1 3.8
      vertex -10.5 -1 0.19999999999999996
    endloop
  endfacet
  facet normal 1 0 0
    outer loop
      vertex -7.5 -2 0.19999999999999996
      vertex -7.5 -1.4729525040207623 0.19999999999999996
      vertex -7.5 -2 3.8
    endloop
  endfacet
  facet normal -0.31622776601683794 -0.9486832980505138 0
    outer loop
      vertex -7.5 -2 0.19999999999999996
      vertex -7.5 -2 3.8
      vertex -10.5 -1 3.8
    endloop
  endfacet
  facet normal 1 0 0
    outer loop
      vertex -7.5 -1.4729525040207623 0.19999999999999996
      vertex -7.5 -1.4729525040207623 3.8
      vertex -7.5 -2 3.8
    endloop
  endfacet
  facet normal -1 0 0
    outer loop
      vertex -10.5 -1 0.19999999999999996
      vertex -10.5 -1 3.8
      vertex -10.5 1 3.8
    endloop
  endfacet
  facet normal 0 0 1
    outer loop
      vertex -7.5 -2 3.8
      vertex -7.5 -1.4729525040207623 3.8
      vertex -10.5 -1 3.8
    endloop
  endfacet
  facet normal 0 0 1
    outer loop
      vertex -7.5 -1.4729525040207623 3.8
      vertex -7.5 1.4729525040207623 3.8
      vertex -10.5 -1 3.8
    endloop
  endfacet
  facet normal 0 0 -1
    outer loop
      vertex -10.5 -1 0.19999999999999996
      vertex -7.5 1.4729525040207623 0.19999999999999996
      vertex -7.5 0 0.19999999999999996
    endloop
  endfacet
  facet normal 0 0 -1
    outer loop
      vertex -10.5 -1 0.19999999999999996
      vertex -10.5 1 0.19999999999999996
      vertex -7.5 2 0.19999999999999996
    endloop
  endfacet
  facet normal 0 0 -1
    outer loop
      vertex -10.5 -1 0.19999999999999996
      vertex -7.5 2 0.19999999999999996
      vertex -7.5 1.4729525040207623 0.19999999999999996
    endloop
  endfacet
  facet normal -1 0 0
    outer loop
      vertex -10.5 -1 0.19999999999999996
      vertex -10.5 1 3.8
      vertex -10.5 1 0.19999999999999996
    endloop
  endfacet
  facet normal -0.31622776601683794 0.9486832980505138 0
    outer loop
      vertex -10.5 1 0.19999999999999996
      vertex -7.5 2 3.8
      vertex -7.5 2 0.19999999999999996
    endloop
  endfacet
  facet normal 1 0 0
    outer loop
      vertex -7.5 1.4729525040207623 0.19999999999999996
      vertex -7.5 2 0.19999999999999996
      vertex -7.5 1.4729525040207623 3.8
    endloop
  endfacet
  facet normal -0.31622776601683794 0.9486832980505138 0
    outer loop
      vertex -10.5 1 0.19999999999999996
      vertex -10.5 1 3.8
      vertex -7.5 2 3.8
    endloop
  endfacet
  facet normal 1 0 0
    outer loop
      vertex -7.5 2 0.19999999999999996
      vertex -7.5 2 3.8
      vertex -7.5 1.4729525040207623 3.8
    endloop
  endfacet
  facet normal 0 0 1
    outer loop
      vertex -10.5 -1 3.8
      vertex -7.5 2 3.8
      vertex -10.5 1 3.8
    endloop
  endfacet
  facet normal 0 0 1
    outer loop
      vertex -10.5 -1 3.8
      vertex -7.5 1.4729525040207623 3.8
      vertex -7.5 2 3.8
    endloop
  endfacet
  facet normal 0 0 -1
    outer loop
      vertex -6.116025403784438 -8.593266739736606 0.19999999999999996
      vertex -5.482050807568877 -5.495190528383289 0.19999999999999996
      vertex -4.383974596215562 -9.593266739736606 0.19999999999999996
    endloop
  endfacet
  facet normal 0 0 -1
    outer loop
      vertex -4.383974596215562 -9.593266739736606 0.19999999999999996
      vertex -4.961571334348192 -5.795689492354926 0.19999999999999996
      vertex -2.189895455802586 -7.647664108858685 0.19999999999999996
    endloop
  endfacet
  facet normal 0 0 -1
    outer loop
      vertex -4.383974596215562 -9.593266739736606 0.19999999999999996
      vertex -5.482050807568877 -5.495190528383289 0.19999999999999996
      vertex -4.961571334348192 -5.795689492354926 0.19999999999999996
    endloop
  endfacet
  facet normal -0.5000000000000001 -0.8660254037844386 0
    outer loop
      vertex -6.116025403784438 -8.593266739736606 0.19999999999999996
      vertex -4.383974596215562 -9.593266739736606 0.19999999999999996
      vertex -6.116025403784438 -8.593266739736606 3.8
    endloop
  endfacet
  facet normal 0.6634699532493303 -0.7482029277778399 0
    outer loop
      vertex -4.383974596215562 -9.593266739736606 0.19999999999999996
      vertex -2.189895455802586 -7.647664108858685 0.19999999999999996
      vertex -4.383974596215562 -9.593266739736606 3.8
    endloop
  endfacet
  facet normal -0.9796977192661681 0.20048037027267385 0
    outer loop
      vertex -6.116025403784438 -8.593266739736606 0.19999999999999996
      vertex -5.482050807568877 -5.495190528383289 3.8
      vertex -5.482050807568877 -5.495190528383289 0.19999999999999996
    endloop
  endfacet
  facet normal 0.4999999999999999 0.8660254037844387 0
    outer loop
      vertex -4.961571334348192 -5.795689492354926 0.19999999999999996
      vertex -5.482050807568877 -5.495190528383289 0.19999999999999996
      vertex -4.961571334348192 -5.795689492354926 3.8
    endloop
  endfacet
  facet normal -0.9796977192661681 0.20048037027267385 0
    outer loop
      vertex -6.116025403784438 -8.593266739736606 0.19999999999999996
      vertex -6.116025403784438 -8.593266739736606 3.8
      vertex -5.482050807568877 -5.495190528383289 3.8
    endloop
  endfacet
  facet normal -0.5000000000000001 -0.8660254037844386 0
    outer loop
      vertex -4.383974596215562 -9.593266739736606 0.19999999999999996
      vertex -4.383974596215562 -9.593266739736606 3.8
      vertex -6.116025403784438 -8.593266739736606 3.8
    endloop
  endfacet
  facet normal 0.6634699532493303 -0.7482029277778399 0
    outer loop
      vertex -2.189895455802586 -7.647664108858685 0.19999999999999996
      vertex -2.189895455802586 -7.647664108858685 3.8
      vertex -4.383974596215562 -9.593266739736606 3.8
    endloop
  endfacet
  facet normal 0.4999999999999999 0.8660254037844387 0
    outer loop
      vertex -5.482050807568877 -5.495190528383289 0.19999999999999996
      vertex -5.482050807568877 -5.495190528383289 3.8
      vertex -4.961571334348192 -5.795689492354926 3.8
    endloop
  endfacet
  facet normal 0 0 1
    outer loop
      vertex -6.116025403784438 -8.593266739736606 3.8
      vertex -4.383974596215562 -9.593266739736606 3.8
      vertex -5.482050807568877 -5.495190528383289 3.8
    endloop
  endfacet
  facet normal 0 0 1
    outer loop
      vertex -4.383974596215562 -9.593266739736606 3.8
      vertex -2.189895455802586 -7.647664108858685 3.8
      vertex -4.961571334348192 -5.795689492354926 3.8
    endloop
  endfacet
  facet normal 0 0 1
    outer loop
      vertex -4.383974596215562 -9.593266739736606 3.8
      vertex -4.961571334348192 -5.795689492354926 3.8
      vertex -5.482050807568877 -5.495190528383289 3.8
    endloop
  endfacet
  facet normal 0 0 -1
    outer loop
      vertex -2.0705523639917374 -7.7274066135287285 0.19999999999999996
      vertex -2.189895455802586 -7.647664108858685 0.19999999999999996
      vertex -1.4982704367462687 -5.591621387177772 0.19999999999999996
    endloop
  endfacet
  facet normal 0 0 -1
    outer loop
      vertex -2.189895455802586 -7.647664108858685 0.19999999999999996
      vertex -4.961571334348192 -5.795689492354926 0.19999999999999996
      vertex -1.0868116245972037 -3.795418741337259 0.19999999999999996
    endloop
  endfacet
  facet normal 0 0 -1
    outer loop
      vertex -2.189895455802586 -7.647664108858685 0.19999999999999996
      vertex -1.0868116245972037 -3.795418741337259 0.19999999999999996
      vertex -1.4982704367462687 -5.591621387177772 0.19999999999999996
    endloop
  endfacet
  facet normal -0.5555702336881122 -0.8314696118558611 0
    outer loop
      vertex -2.0705523639917374 -7.7274066135287285 0.19999999999999996
      vertex -2.0705523639917374 -7.7274066135287285 3.8
      vertex -2.189895455802586 -7.647664108858685 0.19999999999999996
    endloop
  endfacet
  facet normal 0.965925826216887 -0.2588190453719046 0
    outer loop
      vertex -2.0705523639917374 -7.7274066135287285 0.19999999999999996
      vertex -1.4982704367462687 -5.591621387177772 0.19999999999999996
      vertex -2.0705523639917374 -7.7274066135287285 3.8
    endloop
  endfacet
  facet normal -0.5555702336881128 -0.8314696118558609 0
    outer loop
      vertex -6.34682672470808 -4.870091430842876 0.19999999999999996
      vertex -4.961571334348192 -5.795689492354926 0.19999999999999996
      vertex -4.961571334348192 -5.795689492354926 3.8
    endloop
  endfacet
  facet normal 0 0 -1
    outer loop
      vertex -6.34682672470808 -4.870091430842876 0.19999999999999996
      vertex -1.104065500492116 -1.2261889620377004 0.19999999999999996
      vertex -4.961571334348192 -5.795689492354926 0.19999999999999996
    endloop
  endfacet
  facet normal 0 0 -1
    outer loop
      vertex -4.961571334348192 -5.795689492354926 0.19999999999999996
      vertex -0.825 -1.4289419162443235 0.19999999999999996
      vertex -1.0868116245972037 -3.795418741337259 0.19999999999999996
    endloop
  endfacet
  facet normal 0 0 -1
    outer loop
      vertex -4.961571334348192 -5.795689492354926 0.19999999999999996
      vertex -1.104065500492116 -1.2261889620377004 0.19999999999999996
      vertex -0.825 -1.4289419162443235 0.19999999999999996
    endloop
  endfacet
  facet normal 0 0 -1
    outer loop
      vertex -6.34682672470808 -4.870091430842876 0.19999999999999996
      vertex -7.5 -1.4729525040207623 0.19999999999999996
      vertex -1.6139435412107792 -0.3430542898493029 0.19999999999999996
    endloop
  endfacet
  facet normal 0 0 -1
    outer loop
      vertex -6.34682672470808 -4.870091430842876 0.19999999999999996
      vertex -1.3348780407186631 -0.9698456662825806 0.19999999999999996
      vertex -1.104065500492116 -1.2261889620377004 0.19999999999999996
    endloop
  endfacet
  facet normal 0 0 -1
    outer loop
      vertex -6.34682672470808 -4.870091430842876 0.19999999999999996
      vertex -1.5073500051102913 -0.6711154610750703 0.19999999999999996
      vertex -1.3348780407186631 -0.9698456662825806 0.19999999999999996
    endloop
  endfacet
  facet normal 0 0 -1
    outer loop
      vertex -6.34682672470808 -4.870091430842876 0.19999999999999996
      vertex -1.6139435412107792 -0.3430542898493029 0.19999999999999996
      vertex -1.5073500051102913 -0.6711154610750703 0.19999999999999996
    endloop
  endfacet
  facet normal 0 0 -1
    outer loop
      vertex -7.5 -1.4729525040207623 0.19999999999999996
      vertex -1.65 0 0.19999999999999996
      vertex -1.6139435412107792 -0.3430542898493029 0.19999999999999996
    endloop
  endfacet
  facet normal 0 0 -1
    outer loop
      vertex -7.5 -1.4729525040207623 0.19999999999999996
      vertex -7.5 0 0.19999999999999996
      vertex -1.65 0 0.19999999999999996
    endloop
  endfacet
  facet normal 0 0 -1
    outer loop
      vertex -1.0868116245972037 -3.795418741337259 0.19999999999999996
      vertex -0.825 -1.4289419162443235 0.19999999999999996
      vertex -0.5098780407186632 -1.5692432518870032 0.19999999999999996
    endloop
  endfacet
  facet normal 0 0 -1
    outer loop
      vertex -1.0868116245972037 -3.795418741337259 0.19999999999999996
      vertex -0.5098780407186632 -1.5692432518870032 0.19999999999999996
      vertex -0.45282278438983653 -1.5813707209974603 0.19999999999999996
    endloop
  endfacet
  facet normal -0.9469301296112068 -0.32143946496113873 0
    outer loop
      vertex -6.34682672470808 -4.870091430842876 0.19999999999999996
      vertex -6.34682672470808 -4.870091430842876 3.8
      vertex -7.5 -1.4729525040207623 0.19999999999999996
    endloop
  endfacet
  facet normal -0.5555702336881122 -0.8314696118558611 0
    outer loop
      vertex -2.189895455802586 -7.647664108858685 0.19999999999999996
      vertex -2.0705523639917374 -7.7274066135287285 3.8
      vertex -2.189895455802586 -7.647664108858685 3.8
    endloop
  endfacet
  facet normal -0.5555702336881128 -0.8314696118558609 0
    outer loop
      vertex -6.34682672470808 -4.870091430842876 0.19999999999999996
      vertex -4.961571334348192 -5.795689492354926 3.8
      vertex -6.34682672470808 -4.870091430842876 3.8
    endloop
  endfacet
  facet normal 0.965925826216887 -0.2588190453719046 0
    outer loop
      vertex -1.4982704367462687 -5.591621387177772 0.19999999999999996
      vertex -1.4982704367462687 -5.591621387177772 3.8
      vertex -2.0705523639917374 -7.7274066135287285 3.8
    endloop
  endfacet
  facet normal 0 0 1
    outer loop
      vertex -2.0705523639917374 -7.7274066135287285 3.8
      vertex -1.4982704367462687 -5.591621387177772 3.8
      vertex -2.189895455802586 -7.647664108858685 3.8
    endloop
  endfacet
  facet normal 0 0 1
    outer loop
      vertex -2.189895455802586 -7.647664108858685 3.8
      vertex -3.705872765601782 -4.3288882493562175 3.8
      vertex -4.961571334348192 -5.795689492354926 3.8
    endloop
  endfacet
  facet normal 0 0 1
    outer loop
      vertex -6.34682672470808 -4.870091430842876 3.8
      vertex -4.961571334348192 -5.795689492354926 3.8
      vertex -3.705872765601782 -4.3288882493562175 3.8
    endloop
  endfacet
  facet normal 0 0 1
    outer loop
      vertex -2.189895455802586 -7.647664108858685 3.8
      vertex -1.4982704367462687 -5.591621387177772 3.8
      vertex -1.1849117619279115 -4.138009022234117 3.8
    endloop
  endfacet
  facet normal -0.9469301296112068 -0.32143946496113873 0
    outer loop
      vertex -7.5 -1.4729525040207623 0.19999999999999996
      vertex -6.34682672470808 -4.870091430842876 3.8
      vertex -7.5 -1.4729525040207623 3.8
    endloop
  endfacet
  facet normal 0 0 1
    outer loop
      vertex -6.34682672470808 -4.870091430842876 3.8
      vertex -5.459575389809212 -1.0722260321746144 3.8
      vertex -7.5 -1.4729525040207623 3.8
    endloop
  endfacet
  facet normal 0 0 1
    outer loop
      vertex -6.34682672470808 -4.870091430842876 3.8
      vertex -3.705872765601782 -4.3288882493562175 3.8
      vertex -4.271596628337624 -3.2777113726294798 3.8
    endloop
  endfacet
  facet normal 0 0 1
    outer loop
      vertex -3.705872765601782 -4.3288882493562175 3.8
      vertex -4.228018039044188 -3.244272344987529 3.8
      vertex -4.271596628337624 -3.2777113726294798 3.8
    endloop
  endfacet
  facet normal 0 0 1
    outer loop
      vertex -2.189895455802586 -7.647664108858685 3.8
      vertex -1.792298567374695 -2.093612138998086 3.8
      vertex -3.705872765601782 -4.3288882493562175 3.8
    endloop
  endfacet
  facet normal 0 0 1
    outer loop
      vertex -2.189895455802586 -7.647664108858685 3.8
      vertex -1.1849117619279115 -4.138009022234117 3.8
      vertex -1.792298567374695 -2.093612138998086 3.8
    endloop
  endfacet
  facet normal 0 0 1
    outer loop
      vertex -6.34682672470808 -4.870091430842876 3.8
      vertex -4.271596628337624 -3.2777113726294798 3.8
      vertex -5.459575389809212 -1.0722260321746144 3.8
    endloop
  endfacet
  facet normal 0 0 1
    outer loop
      vertex -7.5 -1.4729525040207623 3.8
      vertex -5.459575389809212 -1.0722260321746144 3.8
      vertex -5.419597985135946 2.0523500550614573 3.8
    endloop
  endfacet
  facet normal 0 0 1
    outer loop
      vertex -4.271596628337624 -3.2777113726294798 3.8
      vertex -4.692298567374695 -0.9215377232570123 3.8
      vertex -5.459575389809212 -1.0722260321746144 3.8
    endloop
  endfacet
  facet normal 0 0 1
    outer loop
      vertex -4.228018039044188 -0.8303559676873452 3.8
      vertex -1.6166298401388868 -0.31749586281430103 3.8
      vertex -1.65 0 3.8
    endloop
  endfacet
  facet normal 0 0 1
    outer loop
      vertex -4.228018039044188 -0.8303559676873452 3.8
      vertex -1.65 0 3.8
      vertex -1.6139435412107792 0.3430542898493029 3.8
    endloop
  endfacet
  facet normal 0 0 -1
    outer loop
      vertex -7.5 0 0.19999999999999996
      vertex -7.5 1.4729525040207623 0.19999999999999996
      vertex -1.65 0 0.19999999999999996
    endloop
  endfacet
  facet normal 0 0 -1
    outer loop
      vertex -7.5 1.4729525040207623 0.19999999999999996
      vertex -1.6139435412107792 0.3430542898493029 0.19999999999999996
      vertex -1.65 0 0.19999999999999996
    endloop
  endfacet
  facet normal 0 0 -1
    outer loop
      vertex -7.5 1.4729525040207623 0.19999999999999996
      vertex -1.5073500051102913 0.6711154610750703 0.19999999999999996
      vertex -1.6139435412107792 0.3430542898493029 0.19999999999999996
    endloop
  endfacet
  facet normal 0 0 -1
    outer loop
      vertex -7.5 1.4729525040207623 0.19999999999999996
      vertex -6.34682672470808 4.870091430842876 0.19999999999999996
      vertex -4.961571334348192 5.795689492354926 0.19999999999999996
    endloop
  endfacet
  facet normal 0 0 -1
    outer loop
      vertex -7.5 1.4729525040207623 0.19999999999999996
      vertex -2.2093791452135787 7.546484029638476 0.19999999999999996
      vertex -1.5073500051102913 0.6711154610750703 0.19999999999999996
    endloop
  endfacet
  facet normal 0 0 -1
    outer loop
      vertex -2.2093791452135787 7.546484029638476 0.19999999999999996
      vertex -1.3348780407186631 0.9698456662825806 0.19999999999999996
      vertex -1.5073500051102913 0.6711154610750703 0.19999999999999996
    endloop
  endfacet
  facet normal 0 0 -1
    outer loop
      vertex -2.2093791452135787 7.546484029638476 0.19999999999999996
      vertex -1.104065500492116 1.2261889620377004 0.19999999999999996
      vertex -1.3348780407186631 0.9698456662825806 0.19999999999999996
    endloop
  endfacet
  facet normal 0 0 -1
    outer loop
      vertex -2.2093791452135787 7.546484029638476 0.19999999999999996
      vertex -0.825 1.4289419162443235 0.19999999999999996
      vertex -1.104065500492116 1.2261889620377004 0.19999999999999996
    endloop
  endfacet
  facet normal 0 0 -1
    outer loop
      vertex -2.2093791452135787 7.546484029638476 0.19999999999999996
      vertex -0.5098780407186632 1.5692432518870032 0.19999999999999996
      vertex -0.825 1.4289419162443235 0.19999999999999996
    endloop
  endfacet
  facet normal 0 0 -1
    outer loop
      vertex -1.1823602779498532 4.1785636987417485 0.19999999999999996
      vertex -0.5098780407186632 1.5692432518870032 0.19999999999999996
      vertex -2.2093791452135787 7.546484029638476 0.19999999999999996
    endloop
  endfacet
  facet normal 0 0 -1
    outer loop
      vertex -1.1823602779498532 4.1785636987417485 0.19999999999999996
      vertex -0.44776645943213483 1.5824454760451558 0.19999999999999996
      vertex -0.5098780407186632 1.5692432518870032 0.19999999999999996
    endloop
  endfacet
  facet normal -0.9469301296112068 0.32143946496113873 0
    outer loop
      vertex -7.5 1.4729525040207623 0.19999999999999996
      vertex -7.5 1.4729525040207623 3.8
      vertex -6.34682672470808 4.870091430842876 0.19999999999999996
    endloop
  endfacet
  facet normal 0 0 -1
    outer loop
      vertex -7.5 1.4729525040207623 0.19999999999999996
      vertex -4.961571334348192 5.795689492354926 0.19999999999999996
      vertex -2.2093791452135787 7.546484029638476 0.19999999999999996
    endloop
  endfacet
  facet normal 0 0 -1
    outer loop
      vertex -1.1823602779498532 4.1785636987417485 0.19999999999999996
      vertex -2.155288493954106 7.61697633886037 0.19999999999999996
      vertex -1.170434372372417 4.36812053974601 0.19999999999999996
    endloop
  endfacet
  facet normal 0 0 -1
    outer loop
      vertex -1.170434372372417 4.36812053974601 0.19999999999999996
      vertex -2.155288493954106 7.61697633886037 0.19999999999999996
      vertex -1.4982704367462685 5.591621387177772 0.19999999999999996
    endloop
  endfacet
  facet normal 0 0 -1
    outer loop
      vertex -1.1823602779498532 4.1785636987417485 0.19999999999999996
      vertex -2.2093791452135787 7.546484029638476 0.19999999999999996
      vertex -2.155288493954106 7.61697633886037 0.19999999999999996
    endloop
  endfacet
  facet normal 0 0 -1
    outer loop
      vertex -1.4982704367462685 5.591621387177772 0.19999999999999996
      vertex -2.155288493954106 7.61697633886037 0.19999999999999996
      vertex -2.0705523639917374 7.7274066135287285 0.19999999999999996
    endloop
  endfacet
  facet normal 0 0 -1
    outer loop
      vertex -2.155288493954106 7.61697633886037 0.19999999999999996
      vertex -2.189895455802586 7.647664108858685 0.19999999999999996
      vertex -2.0705523639917374 7.7274066135287285 0.19999999999999996
    endloop
  endfacet
  facet normal -0.5555702336881128 0.8314696118558609 0
    outer loop
      vertex -6.34682672470808 4.870091430842876 0.19999999999999996
      vertex -6.34682672470808 4.870091430842876 3.8
      vertex -4.961571334348192 5.795689492354926 0.19999999999999996
    endloop
  endfacet
  facet normal 0.965925826216887 0.2588190453719047 0
    outer loop
      vertex -1.4982704367462685 5.591621387177772 0.19999999999999996
      vertex -2.0705523639917374 7.7274066135287285 0.19999999999999996
      vertex -1.4982704367462685 5.591621387177772 3.8
    endloop
  endfacet
  facet normal -0.5555702336881122 0.8314696118558611 0
    outer loop
      vertex -2.189895455802586 7.647664108858685 0.19999999999999996
      vertex -2.189895455802586 7.647664108858685 3.8
      vertex -2.0705523639917374 7.7274066135287285 0.19999999999999996
    endloop
  endfacet
  facet normal -0.9469301296112068 0.32143946496113873 0
    outer loop
      vertex -6.34682672470808 4.870091430842876 0.19999999999999996
      vertex -7.5 1.4729525040207623 3.8
      vertex -6.34682672470808 4.870091430842876 3.8
    endloop
  endfacet
  facet normal 0 0 1
    outer loop
      vertex -7.5 -1.4729525040207623 3.8
      vertex -5.2372525772888405 2.4654726830349256 3.8
      vertex -7.5 1.4729525040207623 3.8
    endloop
  endfacet
  facet normal 0 0 1
    outer loop
      vertex -7.5 -1.4729525040207623 3.8
      vertex -5.419597985135946 2.0523500550614573 3.8
      vertex -5.364704830485214 2.194622858080012 3.8
    endloop
  endfacet
  facet normal 0 0 1
    outer loop
      vertex -7.5 -1.4729525040207623 3.8
      vertex -5.364704830485214 2.194622858080012 3.8
      vertex -5.2372525772888405 2.4654726830349256 3.8
    endloop
  endfacet
  facet normal 0 0 1
    outer loop
      vertex -5.419597985135946 2.0523500550614573 3.8
      vertex -5.390588722738941 2.1015071055904295 3.8
      vertex -5.364704830485214 2.194622858080012 3.8
    endloop
  endfacet
  facet normal 0 0 1
    outer loop
      vertex -4.228018039044188 -0.8303559676873452 3.8
      vertex -1.6139435412107792 0.3430542898493029 3.8
      vertex -1.4982704367462685 5.591621387177772 3.8
    endloop
  endfacet
  facet normal 0 0 1
    outer loop
      vertex -1.4982704367462685 5.591621387177772 3.8
      vertex -1.6139435412107792 0.3430542898493029 3.8
      vertex -1.5073500051102913 0.6711154610750703 3.8
    endloop
  endfacet
  facet normal 0 0 1
    outer loop
      vertex -1.4982704367462685 5.591621387177772 3.8
      vertex -1.5073500051102913 0.6711154610750703 3.8
      vertex -1.4404568607313741 0.7869777858173954 3.8
    endloop
  endfacet
  facet normal 0 0 1
    outer loop
      vertex -7.5 1.4729525040207623 3.8
      vertex -5.2372525772888405 2.4654726830349256 3.8
      vertex -4.721654728986203 3.3628965544601157 3.8
    endloop
  endfacet
  facet normal 0 0 1
    outer loop
      vertex -7.5 1.4729525040207623 3.8
      vertex -4.961571334348192 5.795689492354926 3.8
      vertex -6.34682672470808 4.870091430842876 3.8
    endloop
  endfacet
  facet normal 0 0 1
    outer loop
      vertex -4.692298567374695 3.3495454557210547 3.8
      vertex -4.575143438594062 3.550770686777626 3.8
      vertex -4.721654728986203 3.3628965544601157 3.8
    endloop
  endfacet
  facet normal 0 0 1
    outer loop
      vertex -4.228018039044188 -0.8303559676873452 3.8
      vertex -1.4982704367462685 5.591621387177772 3.8
      vertex -4.436246292279298 3.7186684947366366 3.8
    endloop
  endfacet
  facet normal 0 0 1
    outer loop
      vertex -7.5 1.4729525040207623 3.8
      vertex -4.721654728986203 3.3628965544601157 3.8
      vertex -2.3035559137888106 7.571718618723982 3.8
    endloop
  endfacet
  facet normal -0.5555702336881128 0.8314696118558609 0
    outer loop
      vertex -4.961571334348192 5.795689492354926 0.19999999999999996
      vertex -6.34682672470808 4.870091430842876 3.8
      vertex -4.961571334348192 5.795689492354926 3.8
    endloop
  endfacet
  facet normal 0.965925826216887 0.2588190453719047 0
    outer loop
      vertex -2.0705523639917374 7.7274066135287285 0.19999999999999996
      vertex -2.0705523639917374 7.7274066135287285 3.8
      vertex -1.4982704367462685 5.591621387177772 3.8
    endloop
  endfacet
  facet normal -0.5555702336881122 0.8314696118558611 0
    outer loop
      vertex -2.0705523639917374 7.7274066135287285 0.19999999999999996
      vertex -2.189895455802586 7.647664108858685 3.8
      vertex -2.0705523639917374 7.7274066135287285 3.8
    endloop
  endfacet
  facet normal 0 0 1
    outer loop
      vertex -7.5 1.4729525040207623 3.8
      vertex -2.3035559137888106 7.571718618723982 3.8
      vertex -4.961571334348192 5.795689492354926 3.8
    endloop
  endfacet
  facet normal 0 0 1
    outer loop
      vertex -4.721654728986203 3.3628965544601157 3.8
      vertex -4.575143438594062 3.550770686777626 3.8
      vertex -2.3035559137888106 7.571718618723982 3.8
    endloop
  endfacet
  facet normal 0 0 1
    outer loop
      vertex -4.575143438594062 3.550770686777626 3.8
      vertex -4.436246292279298 3.7186684947366366 3.8
      vertex -2.189895455802586 7.647664108858685 3.8
    endloop
  endfacet
  facet normal 0 0 1
    outer loop
      vertex -4.436246292279298 3.7186684947366366 3.8
      vertex -1.4982704367462685 5.591621387177772 3.8
      vertex -2.0705523639917374 7.7274066135287285 3.8
    endloop
  endfacet
  facet normal 0 0 1
    outer loop
      vertex -4.575143438594062 3.550770686777626 3.8
      vertex -2.189895455802586 7.647664108858685 3.8
      vertex -2.3035559137888106 7.571718618723982 3.8
    endloop
  endfacet
  facet normal 0 0 1
    outer loop
      vertex -4.436246292279298 3.7186684947366366 3.8
      vertex -2.0705523639917374 7.7274066135287285 3.8
      vertex -2.189895455802586 7.647664108858685 3.8
    endloop
  endfacet
  facet normal 0 0 -1
    outer loop
      vertex -1.086811624597204 -5.697266054226394 0.19999999999999996
      vertex -1.4982704367462687 -5.591621387177772 0.19999999999999996
      vertex -1.0868116245972037 -3.795418741337259 0.19999999999999996
    endloop
  endfacet
  facet normal -0.24868988716485554 -0.968583161128631 0
    outer loop
      vertex -1.086811624597204 -5.697266054226394 0.19999999999999996
      vertex -1.086811624597204 -5.697266054226394 3.8
      vertex -1.4982704367462687 -5.591621387177772 0.19999999999999996
    endloop
  endfacet
  facet normal -0.12533323356430423 -0.9921147013144778 0
    outer loop
      vertex -1.086811624597204 -5.697266054226394 0.19999999999999996
      vertex -0.3641850132700198 -5.7885550248839746 0.19999999999999996
      vertex -0.3641850132700198 -5.7885550248839746 3.8
    endloop
  endfacet
  facet normal 0 -1 0
    outer loop
      vertex -0.3641850132700198 -5.7885550248839746 0.19999999999999996
      vertex 0.3641850132700198 -5.7885550248839746 0.19999999999999996
      vertex 0.3641850132700198 -5.7885550248839746 3.8
    endloop
  endfacet
  facet normal 0.12533323356430423 -0.9921147013144778 0
    outer loop
      vertex 0.3641850132700198 -5.7885550248839746 0.19999999999999996
      vertex 1.086811624597204 -5.697266054226394 0.19999999999999996
      vertex 1.086811624597204 -5.697266054226394 3.8
    endloop
  endfacet
  facet normal 0.24868988716485554 -0.968583161128631 0
    outer loop
      vertex 1.086811624597204 -5.697266054226394 0.19999999999999996
      vertex 1.792298567374695 -5.51612779451189 0.19999999999999996
      vertex 1.792298567374695 -5.51612779451189 3.8
    endloop
  endfacet
  facet normal 0.3681245526846781 -0.9297764858882515 0
    outer loop
      vertex 1.792298567374695 -5.51612779451189 0.19999999999999996
      vertex 2.46951989107742 -5.247996904302913 0.19999999999999996
      vertex 2.46951989107742 -5.247996904302913 3.8
    endloop
  endfacet
  facet normal 0.48175367410171427 -0.8763066800438641 0
    outer loop
      vertex 2.46951989107742 -5.247996904302913 0.19999999999999996
      vertex 3.107795410878178 -4.897101967911689 0.19999999999999996
      vertex 3.107795410878178 -4.897101967911689 3.8
    endloop
  endfacet
  facet normal 0 0 -1
    outer loop
      vertex -1.086811624597204 -5.697266054226394 0.19999999999999996
      vertex -0.1724719643916282 -1.6409611273576508 0.19999999999999996
      vertex -0.3641850132700198 -5.7885550248839746 0.19999999999999996
    endloop
  endfacet
  facet normal 0 0 -1
    outer loop
      vertex -0.3641850132700198 -5.7885550248839746 0.19999999999999996
      vertex 0.1724719643916282 -1.6409611273576508 0.19999999999999996
      vertex 0.3641850132700198 -5.7885550248839746 0.19999999999999996
    endloop
  endfacet
  facet normal 0 0 -1
    outer loop
      vertex 0.3641850132700198 -5.7885550248839746 0.19999999999999996
      vertex 0.825 -1.4289419162443235 0.19999999999999996
      vertex 1.086811624597204 -5.697266054226394 0.19999999999999996
    endloop
  endfacet
  facet normal 0 0 -1
    outer loop
      vertex -1.086811624597204 -5.697266054226394 0.19999999999999996
      vertex -1.0868116245972037 -3.795418741337259 0.19999999999999996
      vertex -0.1724719643916282 -1.6409611273576508 0.19999999999999996
    endloop
  endfacet
  facet normal 0 0 -1
    outer loop
      vertex 1.086811624597204 -5.697266054226394 0.19999999999999996
      vertex 1.5073500051102913 -0.6711154610750703 0.19999999999999996
      vertex 1.792298567374695 -5.51612779451189 0.19999999999999996
    endloop
  endfacet
  facet normal 0 0 -1
    outer loop
      vertex -0.3641850132700198 -5.7885550248839746 0.19999999999999996
      vertex -0.1724719643916282 -1.6409611273576508 0.19999999999999996
      vertex 0.1724719643916282 -1.6409611273576508 0.19999999999999996
    endloop
  endfacet
  facet normal 0 0 -1
    outer loop
      vertex 0.3641850132700198 -5.7885550248839746 0.19999999999999996
      vertex 0.1724719643916282 -1.6409611273576508 0.19999999999999996
      vertex 0.5098780407186632 -1.5692432518870032 0.19999999999999996
    endloop
  endfacet
  facet normal 0 0 -1
    outer loop
      vertex 0.3641850132700198 -5.7885550248839746 0.19999999999999996
      vertex 0.5098780407186632 -1.5692432518870032 0.19999999999999996
      vertex 0.825 -1.4289419162443235 0.19999999999999996
    endloop
  endfacet
  facet normal 0 0 -1
    outer loop
      vertex 1.086811624597204 -5.697266054226394 0.19999999999999996
      vertex 0.825 -1.4289419162443235 0.19999999999999996
      vertex 1.104065500492116 -1.2261889620377004 0.19999999999999996
    endloop
  endfacet
  facet normal 0 0 -1
    outer loop
      vertex 1.086811624597204 -5.697266054226394 0.19999999999999996
      vertex 1.104065500492116 -1.2261889620377004 0.19999999999999996
      vertex 1.3348780407186631 -0.9698456662825806 0.19999999999999996
    endloop
  endfacet
  facet normal 0 0 -1
    outer loop
      vertex 1.086811624597204 -5.697266054226394 0.19999999999999996
      vertex 1.3348780407186631 -0.9698456662825806 0.19999999999999996
      vertex 1.5073500051102913 -0.6711154610750703 0.19999999999999996
    endloop
  endfacet
  facet normal 0 0 -1
    outer loop
      vertex -1.0868116245972037 -3.795418741337259 0.19999999999999996
      vertex -0.45282278438983653 -1.5813707209974603 0.19999999999999996
      vertex -0.1724719643916282 -1.6409611273576508 0.19999999999999996
    endloop
  endfacet
  facet normal 0 0 -1
    outer loop
      vertex 1.792298567374695 -5.51612779451189 0.19999999999999996
      vertex 1.5073500051102913 -0.6711154610750703 0.19999999999999996
      vertex 1.6139435412107792 -0.3430542898493029 0.19999999999999996
    endloop
  endfacet
  facet normal 0 0 -1
    outer loop
      vertex 1.792298567374695 -5.51612779451189 0.19999999999999996
      vertex 1.6139435412107792 -0.3430542898493029 0.19999999999999996
      vertex 1.65 0 0.19999999999999996
    endloop
  endfacet
  facet normal 0 0 -1
    outer loop
      vertex 1.792298567374695 -5.51612779451189 0.19999999999999996
      vertex 2.4695198910774216 5.247996904302913 0.19999999999999996
      vertex 2.46951989107742 -5.247996904302913 0.19999999999999996
    endloop
  endfacet
  facet normal 0 0 -1
    outer loop
      vertex 2.46951989107742 -5.247996904302913 0.19999999999999996
      vertex 3.1077954108781807 4.897101967911687 0.19999999999999996
      vertex 3.107795410878178 -4.897101967911689 0.19999999999999996
    endloop
  endfacet
  facet normal 0 0 -1
    outer loop
      vertex 3.107795410878178 -4.897101967911689 0.19999999999999996
      vertex 3.6970591405424003 4.468976808099577 0.19999999999999996
      vertex 3.6970591405424016 -4.468976808099576 0.19999999999999996
    endloop
  endfacet
  facet normal 0 0 -1
    outer loop
      vertex 3.6970591405424016 -4.468976808099576 0.19999999999999996
      vertex 4.228018039044187 3.9703732143863943 0.19999999999999996
      vertex 4.228018039044188 -3.970373214386393 0.19999999999999996
    endloop
  endfacet
  facet normal 0 0 -1
    outer loop
      vertex 4.228018039044188 -3.970373214386393 0.19999999999999996
      vertex 4.692298567374695 3.409154463296344 0.19999999999999996
      vertex 4.692298567374695 -3.409154463296344 0.19999999999999996
    endloop
  endfacet
  facet normal 0 0 -1
    outer loop
      vertex 4.692298567374695 -3.409154463296344 0.19999999999999996
      vertex 5.082578744254409 2.7941713097899488 0.19999999999999996
      vertex 5.082578744254408 -2.794171309789949 0.19999999999999996
    endloop
  endfacet
  facet normal 4.3528068416218827e-16 -1.6124057652895265e-17 -1
    outer loop
      vertex 5.082578744254408 -2.794171309789949 0.19999999999999996
      vertex 5.392703618151858 2.135122405571132 0.2
      vertex 5.221005255198982 -2.5 0.2
    endloop
  endfacet
  facet normal 0 0 -1
    outer loop
      vertex 5.221005255198982 -2.5 0.2
      vertex 5.392703618151858 2.135122405571132 0.2
      vertex 5.392703618151857 -2.1351224055711344 0.2
    endloop
  endfacet
  facet normal 0 0 -1
    outer loop
      vertex 5.392703618151857 -2.1351224055711344 0.2
      vertex 5.61778233454606 1.4424013455561577 0.2
      vertex 5.617782334546061 -1.4424013455561557 0.2
    endloop
  endfacet
  facet normal 0 0 -1
    outer loop
      vertex 5.617782334546061 -1.4424013455561557 0.2
      vertex 5.754265267623971 0.7269327546729647 0.2
      vertex 5.754265267623971 -0.7269327546729636 0.2
    endloop
  endfacet
  facet normal 0.5877852522924732 -0.8090169943749476 0
    outer loop
      vertex 3.107795410878178 -4.897101967911689 0.19999999999999996
      vertex 3.6970591405424016 -4.468976808099576 0.19999999999999996
      vertex 3.6970591405424016 -4.468976808099576 3.8
    endloop
  endfacet
  facet normal 0.6845471059286887 -0.7289686274214116 0
    outer loop
      vertex 3.6970591405424016 -4.468976808099576 0.19999999999999996
      vertex 4.228018039044188 -3.970373214386393 0.19999999999999996
      vertex 4.228018039044188 -3.970373214386393 3.8
    endloop
  endfacet
  facet normal 0.7705132427757896 -0.6374239897486894 0
    outer loop
      vertex 4.228018039044188 -3.970373214386393 0.19999999999999996
      vertex 4.692298567374695 -3.409154463296344 0.19999999999999996
      vertex 4.228018039044188 -3.970373214386393 3.8
    endloop
  endfacet
  facet normal 0.8443279255020151 -0.5358267949789967 0
    outer loop
      vertex 4.692298567374695 -3.409154463296344 0.19999999999999996
      vertex 5.082578744254408 -2.794171309789949 0.19999999999999996
      vertex 4.692298567374695 -3.409154463296344 3.8
    endloop
  endfacet
  facet normal 0.9048270524660199 -0.4257792915650719 0
    outer loop
      vertex 5.082578744254408 -2.794171309789949 0.19999999999999996
      vertex 5.221005255198982 -2.5 0.2
      vertex 5.221005255198982 -2.5 3.8
    endloop
  endfacet
  facet normal -0.24868988716485554 -0.968583161128631 0
    outer loop
      vertex -1.4982704367462687 -5.591621387177772 0.19999999999999996
      vertex -1.086811624597204 -5.697266054226394 3.8
      vertex -1.4982704367462687 -5.591621387177772 3.8
    endloop
  endfacet
  facet normal -0.12533323356430423 -0.9921147013144778 0
    outer loop
      vertex -1.086811624597204 -5.697266054226394 0.19999999999999996
      vertex -0.3641850132700198 -5.7885550248839746 3.8
      vertex -1.086811624597204 -5.697266054226394 3.8
    endloop
  endfacet
  facet normal 0 -1 0
    outer loop
      vertex -0.3641850132700198 -5.7885550248839746 0.19999999999999996
      vertex 0.3641850132700198 -5.7885550248839746 3.8
      vertex -0.3641850132700198 -5.7885550248839746 3.8
    endloop
  endfacet
  facet normal 0.12533323356430423 -0.9921147013144778 0
    outer loop
      vertex 0.3641850132700198 -5.7885550248839746 0.19999999999999996
      vertex 1.086811624597204 -5.697266054226394 3.8
      vertex 0.3641850132700198 -5.7885550248839746 3.8
    endloop
  endfacet
  facet normal 0.24868988716485554 -0.968583161128631 0
    outer loop
      vertex 1.086811624597204 -5.697266054226394 0.19999999999999996
      vertex 1.792298567374695 -5.51612779451189 3.8
      vertex 1.086811624597204 -5.697266054226394 3.8
    endloop
  endfacet
  facet normal 0.3681245526846781 -0.9297764858882515 0
    outer loop
      vertex 1.792298567374695 -5.51612779451189 0.19999999999999996
      vertex 2.46951989107742 -5.247996904302913 3.8
      vertex 1.792298567374695 -5.51612779451189 3.8
    endloop
  endfacet
  facet normal 0.48175367410171427 -0.8763066800438641 0
    outer loop
      vertex 2.46951989107742 -5.247996904302913 0.19999999999999996
      vertex 3.107795410878178 -4.897101967911689 3.8
      vertex 2.46951989107742 -5.247996904302913 3.8
    endloop
  endfacet
  facet normal 0 0 1
    outer loop
      vertex -1.086811624597204 -5.697266054226394 3.8
      vertex -1.1849117619279115 -4.138009022234117 3.8
      vertex -1.4982704367462687 -5.591621387177772 3.8
    endloop
  endfacet
  facet normal 0.5877852522924732 -0.8090169943749476 0
    outer loop
      vertex 3.107795410878178 -4.897101967911689 0.19999999999999996
      vertex 3.6970591405424016 -4.468976808099576 3.8
      vertex 3.107795410878178 -4.897101967911689 3.8
    endloop
  endfacet
  facet normal 0.6845471059286887 -0.7289686274214116 0
    outer loop
      vertex 3.6970591405424016 -4.468976808099576 0.19999999999999996
      vertex 4.228018039044188 -3.970373214386393 3.8
      vertex 3.6970591405424016 -4.468976808099576 3.8
    endloop
  endfacet
  facet normal 0.7705132427757896 -0.6374239897486894 0
    outer loop
      vertex 4.692298567374695 -3.409154463296344 0.19999999999999996
      vertex 4.692298567374695 -3.409154463296344 3.8
      vertex 4.228018039044188 -3.970373214386393 3.8
    endloop
  endfacet
  facet normal 0.8443279255020151 -0.5358267949789967 0
    outer loop
      vertex 5.082578744254408 -2.794171309789949 0.19999999999999996
      vertex 5.082578744254408 -2.794171309789949 3.8
      vertex 4.692298567374695 -3.409154463296344 3.8
    endloop
  endfacet
  facet normal 0.9048270524660199 -0.4257792915650719 0
    outer loop
      vertex 5.082578744254408 -2.794171309789949 0.19999999999999996
      vertex 5.221005255198982 -2.5 3.8
      vertex 5.082578744254408 -2.794171309789949 3.8
    endloop
  endfacet
  facet normal 0 0 1
    outer loop
      vertex -1.086811624597204 -5.697266054226394 3.8
      vertex -1.104065500492116 -1.2261889620377004 3.8
      vertex -1.1849117619279115 -4.138009022234117 3.8
    endloop
  endfacet
  facet normal 0 0 1
    outer loop
      vertex -3.705872765601782 -4.3288882493562175 3.8
      vertex -4.228018039044188 -0.8303559676873452 3.8
      vertex -4.228018039044188 -3.244272344987529 3.8
    endloop
  endfacet
  facet normal 0 0 1
    outer loop
      vertex -4.271596628337624 -3.2777113726294798 3.8
      vertex -4.228018039044188 -3.244272344987529 3.8
      vertex -4.228018039044188 -0.8303559676873452 3.8
    endloop
  endfacet
  facet normal 0 0 1
    outer loop
      vertex -3.705872765601782 -4.3288882493562175 3.8
      vertex -1.792298567374695 -2.093612138998086 3.8
      vertex -4.228018039044188 -0.8303559676873452 3.8
    endloop
  endfacet
  facet normal 0 0 1
    outer loop
      vertex -1.1849117619279115 -4.138009022234117 3.8
      vertex -1.5073500051102913 -0.6711154610750703 3.8
      vertex -1.792298567374695 -2.093612138998086 3.8
    endloop
  endfacet
  facet normal 0 0 1
    outer loop
      vertex -1.1849117619279115 -4.138009022234117 3.8
      vertex -1.104065500492116 -1.2261889620377004 3.8
      vertex -1.3348780407186631 -0.9698456662825806 3.8
    endloop
  endfacet
  facet normal 0 0 1
    outer loop
      vertex -1.1849117619279115 -4.138009022234117 3.8
      vertex -1.3348780407186631 -0.9698456662825806 3.8
      vertex -1.5073500051102913 -0.6711154610750703 3.8
    endloop
  endfacet
  facet normal 0 0 1
    outer loop
      vertex -4.271596628337624 -3.2777113726294798 3.8
      vertex -4.692298567374695 3.3495454557210547 3.8
      vertex -4.692298567374695 -0.9215377232570123 3.8
    endloop
  endfacet
  facet normal 0 0 1
    outer loop
      vertex -4.271596628337624 -3.2777113726294798 3.8
      vertex -4.228018039044188 -0.8303559676873452 3.8
      vertex -4.692298567374695 3.3495454557210547 3.8
    endloop
  endfacet
  facet normal 0 0 1
    outer loop
      vertex -1.792298567374695 -2.093612138998086 3.8
      vertex -1.5073500051102913 -0.6711154610750703 3.8
      vertex -4.228018039044188 -0.8303559676873452 3.8
    endloop
  endfacet
  facet normal 0 0 1
    outer loop
      vertex -4.228018039044188 -0.8303559676873452 3.8
      vertex -1.5073500051102913 -0.6711154610750703 3.8
      vertex -1.6139435412107792 -0.3430542898493029 3.8
    endloop
  endfacet
  facet normal 0 0 1
    outer loop
      vertex -4.228018039044188 -0.8303559676873452 3.8
      vertex -1.6139435412107792 -0.3430542898493029 3.8
      vertex -1.6166298401388868 -0.31749586281430103 3.8
    endloop
  endfacet
  facet normal 0 -1.3504083297670556e-16 1
    outer loop
      vertex -0.3641850132700198 -5.7885550248839746 3.8
      vertex 0.3641850132700198 -5.7885550248839746 3.8
      vertex 0 -2.5 3.8000000000000003
    endloop
  endfacet
  facet normal 0 0 1
    outer loop
      vertex -1.086811624597204 -5.697266054226394 3.8
      vertex -0.3641850132700198 -5.7885550248839746 3.8
      vertex -0.825 -1.4289419162443235 3.8
    endloop
  endfacet
  facet normal 1.6824251267459563e-17 -1.3317766203240485e-16 1
    outer loop
      vertex 0.3641850132700198 -5.7885550248839746 3.8
      vertex 1.086811624597204 -5.697266054226394 3.8
      vertex 0 -2.5 3.8000000000000003
    endloop
  endfacet
  facet normal 3.2799913838272495e-17 -1.277472300639264e-16 1
    outer loop
      vertex 1.086811624597204 -5.697266054226394 3.8
      vertex 1.792298567374695 -5.51612779451189 3.8
      vertex 0 -2.5 3.8000000000000003
    endloop
  endfacet
  facet normal 4.719248578049394e-17 -1.1919461298986924e-16 1
    outer loop
      vertex 1.792298567374695 -5.51612779451189 3.8
      vertex 2.46951989107742 -5.247996904302913 3.8
      vertex 0 -2.5 3.8000000000000003
    endloop
  endfacet
  facet normal 5.946475700112658e-17 -1.0816599143625904e-16 1
    outer loop
      vertex 2.46951989107742 -5.247996904302913 3.8
      vertex 3.107795410878178 -4.897101967911689 3.8
      vertex 0 -2.5 3.8000000000000003
    endloop
  endfacet
  facet normal 6.93117947836405e-17 -9.539950121561099e-17 1
    outer loop
      vertex 3.107795410878178 -4.897101967911689 3.8
      vertex 3.6970591405424016 -4.468976808099576 3.8
      vertex 0 -2.5 3.8000000000000003
    endloop
  endfacet
  facet normal 7.664895463661124e-17 -8.16228463619524e-17 1
    outer loop
      vertex 0 -2.5 3.8000000000000003
      vertex 3.6970591405424016 -4.468976808099576 3.8
      vertex 4.228018039044188 -3.970373214386393 3.8
    endloop
  endfacet
  facet normal -9.295645524409193e-16 -3.209790627959788e-17 1
    outer loop
      vertex -0.3641850132700198 -5.7885550248839746 3.8
      vertex 0 -2.5 3.8000000000000003
      vertex -0.5098780407186632 -1.5692432518870032 3.8
    endloop
  endfacet
  facet normal 0 0 1
    outer loop
      vertex -0.3641850132700198 -5.7885550248839746 3.8
      vertex -0.5098780407186632 -1.5692432518870032 3.8
      vertex -0.825 -1.4289419162443235 3.8
    endloop
  endfacet
  facet normal 0 0 1
    outer loop
      vertex -1.086811624597204 -5.697266054226394 3.8
      vertex -0.825 -1.4289419162443235 3.8
      vertex -1.104065500492116 -1.2261889620377004 3.8
    endloop
  endfacet
  facet normal 8.15678238098342e-17 -6.747877233190152e-17 1
    outer loop
      vertex 0 -2.5 3.8000000000000003
      vertex 4.228018039044188 -3.970373214386393 3.8
      vertex 4.692298567374695 -3.409154463296344 3.8
    endloop
  endfacet
  facet normal 8.42791480074609e-17 -5.3485173706114134e-17 1
    outer loop
      vertex 0 -2.5 3.8000000000000003
      vertex 4.692298567374695 -3.409154463296344 3.8
      vertex 5.082578744254408 -2.794171309789949 3.8
    endloop
  endfacet
  facet normal 8.505818097153735e-17 -4.0025341790093e-17 1
    outer loop
      vertex 0 -2.5 3.8000000000000003
      vertex 5.082578744254408 -2.794171309789949 3.8
      vertex 5.221005255198982 -2.5 3.8
    endloop
  endfacet
  facet normal -1.374859183673887e-15 -2.760348474577468e-16 1
    outer loop
      vertex 0 -2.5 3.8000000000000003
      vertex -0.1724719643916282 -1.6409611273576508 3.8000000000000003
      vertex -0.5098780407186632 -1.5692432518870032 3.8
    endloop
  endfacet
  facet normal 0 0 1
    outer loop
      vertex 0 -2.5 3.8000000000000003
      vertex 1.3776023956580663e-15 -1.6409611273576508 3.8000000000000003
      vertex -0.1724719643916282 -1.6409611273576508 3.8000000000000003
    endloop
  endfacet
  facet normal 0 0 -1
    outer loop
      vertex 1.792298567374695 -5.51612779451189 0.19999999999999996
      vertex 1.65 0 0.19999999999999996
      vertex 1.792298567374695 5.51612779451189 0.19999999999999996
    endloop
  endfacet
  facet normal 0 0 -1
    outer loop
      vertex 1.792298567374695 -5.51612779451189 0.19999999999999996
      vertex 1.792298567374695 5.51612779451189 0.19999999999999996
      vertex 2.4695198910774216 5.247996904302913 0.19999999999999996
    endloop
  endfacet
  facet normal 0 0 -1
    outer loop
      vertex 3.107795410878178 -4.897101967911689 0.19999999999999996
      vertex 3.1077954108781807 4.897101967911687 0.19999999999999996
      vertex 3.6970591405424003 4.468976808099577 0.19999999999999996
    endloop
  endfacet
  facet normal 0 0 -1
    outer loop
      vertex 2.46951989107742 -5.247996904302913 0.19999999999999996
      vertex 2.4695198910774216 5.247996904302913 0.19999999999999996
      vertex 3.1077954108781807 4.897101967911687 0.19999999999999996
    endloop
  endfacet
  facet normal 0 0 -1
    outer loop
      vertex 1.792298567374695 5.51612779451189 0.19999999999999996
      vertex 1.65 0 0.19999999999999996
      vertex 1.6139435412107792 0.3430542898493029 0.19999999999999996
    endloop
  endfacet
  facet normal 0 0 -1
    outer loop
      vertex 1.792298567374695 5.51612779451189 0.19999999999999996
      vertex 1.6139435412107792 0.3430542898493029 0.19999999999999996
      vertex 1.5073500051102913 0.6711154610750703 0.19999999999999996
    endloop
  endfacet
  facet normal 0 0 -1
    outer loop
      vertex 1.792298567374695 5.51612779451189 0.19999999999999996
      vertex 1.5073500051102913 0.6711154610750703 0.19999999999999996
      vertex 1.3348780407186631 0.9698456662825806 0.19999999999999996
    endloop
  endfacet
  facet normal 0 0 -1
    outer loop
      vertex 5.754265267623971 -0.7269327546729636 0.2
      vertex 5.754265267623971 0.7269327546729647 0.2
      vertex 5.8 -1.1209131688779369e-17 0.2
    endloop
  endfacet
  facet normal 0 0 -1
    outer loop
      vertex 5.617782334546061 -1.4424013455561557 0.2
      vertex 5.61778233454606 1.4424013455561577 0.2
      vertex 5.754265267623971 0.7269327546729647 0.2
    endloop
  endfacet
  facet normal 0 0 -1
    outer loop
      vertex 5.392703618151857 -2.1351224055711344 0.2
      vertex 5.392703618151858 2.135122405571132 0.2
      vertex 5.61778233454606 1.4424013455561577 0.2
    endloop
  endfacet
  facet normal 0 0 -1
    outer loop
      vertex 4.692298567374695 -3.409154463296344 0.19999999999999996
      vertex 4.692298567374695 3.409154463296344 0.19999999999999996
      vertex 5.082578744254409 2.7941713097899488 0.19999999999999996
    endloop
  endfacet
  facet normal 0 0 -1
    outer loop
      vertex 4.228018039044188 -3.970373214386393 0.19999999999999996
      vertex 4.228018039044187 3.9703732143863943 0.19999999999999996
      vertex 4.692298567374695 3.409154463296344 0.19999999999999996
    endloop
  endfacet
  facet normal 2.1109514790590947e-17 9.93338365417381e-18 -1
    outer loop
      vertex 5.082578744254408 -2.794171309789949 0.19999999999999996
      vertex 5.221005255198983 2.5 0.2
      vertex 5.392703618151858 2.135122405571132 0.2
    endloop
  endfacet
  facet normal 4.0101531745956236e-16 -6.373502399241824e-32 -1
    outer loop
      vertex 5.082578744254408 -2.794171309789949 0.19999999999999996
      vertex 5.082578744254409 2.7941713097899488 0.19999999999999996
      vertex 5.221005255198983 2.5 0.2
    endloop
  endfacet
  facet normal 0 0 -1
    outer loop
      vertex 3.6970591405424016 -4.468976808099576 0.19999999999999996
      vertex 3.6970591405424003 4.468976808099577 0.19999999999999996
      vertex 4.228018039044187 3.9703732143863943 0.19999999999999996
    endloop
  endfacet
  facet normal 0 0 -1
    outer loop
      vertex -1.1823602779498532 4.1785636987417485 0.19999999999999996
      vertex -0.1724719643916282 1.6409611273576508 0.19999999999999996
      vertex -0.44776645943213483 1.5824454760451558 0.19999999999999996
    endloop
  endfacet
  facet normal 0 0 -1
    outer loop
      vertex 1.0868116245972026 5.697266054226394 0.19999999999999996
      vertex 0.5098780407186632 1.5692432518870032 0.19999999999999996
      vertex 0.1724719643916282 1.6409611273576508 0.19999999999999996
    endloop
  endfacet
  facet normal 0 0 -1
    outer loop
      vertex 1.792298567374695 5.51612779451189 0.19999999999999996
      vertex 1.104065500492116 1.2261889620377004 0.19999999999999996
      vertex 0.825 1.4289419162443235 0.19999999999999996
    endloop
  endfacet
  facet normal 0 0 -1
    outer loop
      vertex 1.0868116245972026 5.697266054226394 0.19999999999999996
      vertex 0.825 1.4289419162443235 0.19999999999999996
      vertex 0.5098780407186632 1.5692432518870032 0.19999999999999996
    endloop
  endfacet
  facet normal 0 0 -1
    outer loop
      vertex 0.364185013270017 5.7885550248839746 0.19999999999999996
      vertex 0.1724719643916282 1.6409611273576508 0.19999999999999996
      vertex -0.1724719643916282 1.6409611273576508 0.19999999999999996
    endloop
  endfacet
  facet normal 0 0 -1
    outer loop
      vertex 1.792298567374695 5.51612779451189 0.19999999999999996
      vertex 1.3348780407186631 0.9698456662825806 0.19999999999999996
      vertex 1.104065500492116 1.2261889620377004 0.19999999999999996
    endloop
  endfacet
  facet normal 0 0 -1
    outer loop
      vertex -1.1823602779498532 4.1785636987417485 0.19999999999999996
      vertex 0.364185013270017 5.7885550248839746 0.19999999999999996
      vertex -0.1724719643916282 1.6409611273576508 0.19999999999999996
    endloop
  endfacet
  facet normal 0 0 -1
    outer loop
      vertex -1.1823602779498532 4.1785636987417485 0.19999999999999996
      vertex -1.170434372372417 4.36812053974601 0.19999999999999996
      vertex -0.364185013270017 5.7885550248839746 0.19999999999999996
    endloop
  endfacet
  facet normal 0 0 -1
    outer loop
      vertex 0.364185013270017 5.7885550248839746 0.19999999999999996
      vertex 1.0868116245972026 5.697266054226394 0.19999999999999996
      vertex 0.1724719643916282 1.6409611273576508 0.19999999999999996
    endloop
  endfacet
  facet normal 0 0 -1
    outer loop
      vertex 1.0868116245972026 5.697266054226394 0.19999999999999996
      vertex 1.792298567374695 5.51612779451189 0.19999999999999996
      vertex 0.825 1.4289419162443235 0.19999999999999996
    endloop
  endfacet
  facet normal 0.5877852522924734 0.8090169943749473 0
    outer loop
      vertex 3.6970591405424003 4.468976808099577 0.19999999999999996
      vertex 3.1077954108781807 4.897101967911687 0.19999999999999996
      vertex 3.1077954108781807 4.897101967911687 3.8
    endloop
  endfacet
  facet normal 0.9048270524660197 0.4257792915650724 0
    outer loop
      vertex 5.221005255198983 2.5 0.2
      vertex 5.082578744254409 2.7941713097899488 0.19999999999999996
      vertex 5.082578744254409 2.7941713097899488 3.8
    endloop
  endfacet
  facet normal 0.7705132427757896 0.6374239897486892 0
    outer loop
      vertex 4.692298567374695 3.409154463296344 0.19999999999999996
      vertex 4.228018039044187 3.9703732143863943 0.19999999999999996
      vertex 4.692298567374695 3.409154463296344 3.8
    endloop
  endfacet
  facet normal 0.8443279255020146 0.5358267949789972 0
    outer loop
      vertex 5.082578744254409 2.7941713097899488 0.19999999999999996
      vertex 4.692298567374695 3.409154463296344 0.19999999999999996
      vertex 5.082578744254409 2.7941713097899488 3.8
    endloop
  endfacet
  facet normal 0.6845471059286881 0.728968627421412 0
    outer loop
      vertex 4.228018039044187 3.9703732143863943 0.19999999999999996
      vertex 3.6970591405424003 4.468976808099577 0.19999999999999996
      vertex 3.6970591405424003 4.468976808099577 3.8
    endloop
  endfacet
  facet normal 0 0 -1
    outer loop
      vertex -1.170434372372417 4.36812053974601 0.19999999999999996
      vertex -1.4982704367462685 5.591621387177772 0.19999999999999996
      vertex -1.0868116245972026 5.697266054226394 0.19999999999999996
    endloop
  endfacet
  facet normal 0 0 -1
    outer loop
      vertex -1.170434372372417 4.36812053974601 0.19999999999999996
      vertex -1.0868116245972026 5.697266054226394 0.19999999999999996
      vertex -0.364185013270017 5.7885550248839746 0.19999999999999996
    endloop
  endfacet
  facet normal 0 0 -1
    outer loop
      vertex -1.1823602779498532 4.1785636987417485 0.19999999999999996
      vertex -0.364185013270017 5.7885550248839746 0.19999999999999996
      vertex 0.364185013270017 5.7885550248839746 0.19999999999999996
    endloop
  endfacet
  facet normal -0.24868988716485493 0.9685831611286312 0
    outer loop
      vertex -1.4982704367462685 5.591621387177772 0.19999999999999996
      vertex -1.4982704367462685 5.591621387177772 3.8
      vertex -1.0868116245972026 5.697266054226394 0.19999999999999996
    endloop
  endfacet
  facet normal -0.125333233564304 0.9921147013144778 0
    outer loop
      vertex -1.0868116245972026 5.697266054226394 0.19999999999999996
      vertex -1.0868116245972026 5.697266054226394 3.8
      vertex -0.364185013270017 5.7885550248839746 0.19999999999999996
    endloop
  endfacet
  facet normal 0 1 0
    outer loop
      vertex -0.364185013270017 5.7885550248839746 0.19999999999999996
      vertex -0.364185013270017 5.7885550248839746 3.8
      vertex 0.364185013270017 5.7885550248839746 0.19999999999999996
    endloop
  endfacet
  facet normal 0.125333233564304 0.9921147013144778 0
    outer loop
      vertex 0.364185013270017 5.7885550248839746 0.19999999999999996
      vertex 0.364185013270017 5.7885550248839746 3.8
      vertex 1.0868116245972026 5.697266054226394 0.19999999999999996
    endloop
  endfacet
  facet normal 0.4817536741017156 0.8763066800438634 0
    outer loop
      vertex 2.4695198910774216 5.247996904302913 0.19999999999999996
      vertex 2.4695198910774216 5.247996904302913 3.8
      vertex 3.1077954108781807 4.897101967911687 0.19999999999999996
    endloop
  endfacet
  facet normal 0.2486898871648551 0.968583161128631 0
    outer loop
      vertex 1.0868116245972026 5.697266054226394 0.19999999999999996
      vertex 1.0868116245972026 5.697266054226394 3.8
      vertex 1.792298567374695 5.51612779451189 0.19999999999999996
    endloop
  endfacet
  facet normal 0.3681245526846772 0.9297764858882518 0
    outer loop
      vertex 2.4695198910774216 5.247996904302913 0.19999999999999996
      vertex 1.792298567374695 5.51612779451189 0.19999999999999996
      vertex 1.792298567374695 5.51612779451189 3.8
    endloop
  endfacet
  facet normal 0.5877852522924734 0.8090169943749473 0
    outer loop
      vertex 3.6970591405424003 4.468976808099577 0.19999999999999996
      vertex 3.1077954108781807 4.897101967911687 3.8
      vertex 3.6970591405424003 4.468976808099577 3.8
    endloop
  endfacet
  facet normal 0.9048270524660197 0.4257792915650724 0
    outer loop
      vertex 5.221005255198983 2.5 0.2
      vertex 5.082578744254409 2.7941713097899488 3.8
      vertex 5.221005255198983 2.5 3.8
    endloop
  endfacet
  facet normal 0.8443279255020146 0.5358267949789972 0
    outer loop
      vertex 4.692298567374695 3.409154463296344 0.19999999999999996
      vertex 4.692298567374695 3.409154463296344 3.8
      vertex 5.082578744254409 2.7941713097899488 3.8
    endloop
  endfacet
  facet normal 0.7705132427757896 0.6374239897486892 0
    outer loop
      vertex 4.228018039044187 3.9703732143863943 0.19999999999999996
      vertex 4.228018039044187 3.9703732143863943 3.8
      vertex 4.692298567374695 3.409154463296344 3.8
    endloop
  endfacet
  facet normal 0.6845471059286881 0.728968627421412 0
    outer loop
      vertex 4.228018039044187 3.9703732143863943 0.19999999999999996
      vertex 3.6970591405424003 4.468976808099577 3.8
      vertex 4.228018039044187 3.9703732143863943 3.8
    endloop
  endfacet
  facet normal 0 0 1
    outer loop
      vertex -5.459575389809212 -1.0722260321746144 3.8
      vertex -4.692298567374695 -0.9215377232570123 3.8
      vertex -5.419597985135946 2.0523500550614573 3.8
    endloop
  endfacet
  facet normal 0 0 1
    outer loop
      vertex -4.692298567374695 -0.9215377232570123 3.8
      vertex -5.390588722738941 2.1015071055904295 3.8
      vertex -5.419597985135946 2.0523500550614573 3.8
    endloop
  endfacet
  facet normal 0 0 1
    outer loop
      vertex -4.692298567374695 -0.9215377232570123 3.8
      vertex -5.364704830485214 2.194622858080012 3.8
      vertex -5.390588722738941 2.1015071055904295 3.8
    endloop
  endfacet
  facet normal 0 0 1
    outer loop
      vertex -4.692298567374695 -0.9215377232570123 3.8
      vertex -5.2372525772888405 2.4654726830349256 3.8
      vertex -5.364704830485214 2.194622858080012 3.8
    endloop
  endfacet
  facet normal 0 0 1
    outer loop
      vertex -4.692298567374695 -0.9215377232570123 3.8
      vertex -4.692298567374695 3.3495454557210547 3.8
      vertex -5.2372525772888405 2.4654726830349256 3.8
    endloop
  endfacet
  facet normal 0 0 1
    outer loop
      vertex -4.228018039044188 -0.8303559676873452 3.8
      vertex -4.575143438594062 3.550770686777626 3.8
      vertex -4.692298567374695 3.3495454557210547 3.8
    endloop
  endfacet
  facet normal 0 0 1
    outer loop
      vertex -4.228018039044188 -0.8303559676873452 3.8
      vertex -4.436246292279298 3.7186684947366366 3.8
      vertex -4.575143438594062 3.550770686777626 3.8
    endloop
  endfacet
  facet normal 0 0 1
    outer loop
      vertex -5.2372525772888405 2.4654726830349256 3.8
      vertex -4.692298567374695 3.3495454557210547 3.8
      vertex -4.721654728986203 3.3628965544601157 3.8
    endloop
  endfacet
  facet normal 0 0 1
    outer loop
      vertex -1.4982704367462685 5.591621387177772 3.8
      vertex -1.4404568607313741 0.7869777858173954 3.8
      vertex -1.3348780407186631 0.9698456662825806 3.8
    endloop
  endfacet
  facet normal 0 0 1
    outer loop
      vertex -1.0868116245972026 5.697266054226394 3.8
      vertex -1.3348780407186631 0.9698456662825806 3.8
      vertex -1.104065500492116 1.2261889620377004 3.8
    endloop
  endfacet
  facet normal 0 0 1
    outer loop
      vertex -1.4982704367462685 5.591621387177772 3.8
      vertex -1.3348780407186631 0.9698456662825806 3.8
      vertex -1.0868116245972026 5.697266054226394 3.8
    endloop
  endfacet
  facet normal 2.5748486799956785e-15 -4.129170195882226e-30 1
    outer loop
      vertex 8.018277400070666e-15 2.5 3.8
      vertex -0.1724719643916282 1.6409611273576508 3.8000000000000003
      vertex 6.6406750044126e-15 1.6409611273576508 3.8
    endloop
  endfacet
  facet normal 0 0 1
    outer loop
      vertex -1.0868116245972026 5.697266054226394 3.8
      vertex -1.104065500492116 1.2261889620377004 3.8
      vertex -0.825 1.4289419162443235 3.8
    endloop
  endfacet
  facet normal 0 0 1
    outer loop
      vertex -1.0868116245972026 5.697266054226394 3.8
      vertex -0.825 1.4289419162443235 3.8
      vertex -0.5098780407186632 1.5692432518870032 3.8
    endloop
  endfacet
  facet normal -1.2782143011879053e-15 -1.7864357661280938e-16 1
    outer loop
      vertex -1.0868116245972026 5.697266054226394 3.8
      vertex -0.5098780407186632 1.5692432518870032 3.8
      vertex -0.1724719643916282 1.6409611273576508 3.8000000000000003
    endloop
  endfacet
  facet normal 1.6594973361728464e-15 1.8377799818538907e-16 1
    outer loop
      vertex 8.018277400070666e-15 2.5 3.8
      vertex -0.364185013270017 5.7885550248839746 3.8
      vertex -0.1724719643916282 1.6409611273576508 3.8000000000000003
    endloop
  endfacet
  facet normal 0 0 1
    outer loop
      vertex 8.018277400070666e-15 2.5 3.8
      vertex 5.221005255198983 2.5 3.8
      vertex 0.364185013270017 5.7885550248839746 3.8
    endloop
  endfacet
  facet normal -1.3447754097175704e-17 1.0644993478625013e-16 1
    outer loop
      vertex -1.0868116245972026 5.697266054226394 3.8
      vertex -0.1724719643916282 1.6409611273576508 3.8000000000000003
      vertex -0.364185013270017 5.7885550248839746 3.8
    endloop
  endfacet
  facet normal 0 0 1
    outer loop
      vertex 8.018277400070666e-15 2.5 3.8
      vertex 0.364185013270017 5.7885550248839746 3.8
      vertex -0.364185013270017 5.7885550248839746 3.8
    endloop
  endfacet
  facet normal 0 0 1
    outer loop
      vertex 5.221005255198983 2.5 3.8
      vertex 1.0868116245972026 5.697266054226394 3.8
      vertex 0.364185013270017 5.7885550248839746 3.8
    endloop
  endfacet
  facet normal 0 0 1
    outer loop
      vertex 5.221005255198983 2.5 3.8
      vertex 3.1077954108781807 4.897101967911687 3.8
      vertex 2.4695198910774216 5.247996904302913 3.8
    endloop
  endfacet
  facet normal 0 0 1
    outer loop
      vertex 5.221005255198983 2.5 3.8
      vertex 2.4695198910774216 5.247996904302913 3.8
      vertex 1.792298567374695 5.51612779451189 3.8
    endloop
  endfacet
  facet normal 0 0 1
    outer loop
      vertex 5.221005255198983 2.5 3.8
      vertex 1.792298567374695 5.51612779451189 3.8
      vertex 1.0868116245972026 5.697266054226394 3.8
    endloop
  endfacet
  facet normal 0 0 1
    outer loop
      vertex 5.221005255198983 2.5 3.8
      vertex 5.082578744254409 2.7941713097899488 3.8
      vertex 4.692298567374695 3.409154463296344 3.8
    endloop
  endfacet
  facet normal 0 0 1
    outer loop
      vertex 5.221005255198983 2.5 3.8
      vertex 4.692298567374695 3.409154463296344 3.8
      vertex 4.228018039044187 3.9703732143863943 3.8
    endloop
  endfacet
  facet normal 0 0 1
    outer loop
      vertex 5.221005255198983 2.5 3.8
      vertex 4.228018039044187 3.9703732143863943 3.8
      vertex 3.6970591405424003 4.468976808099577 3.8
    endloop
  endfacet
  facet normal 0 0 1
    outer loop
      vertex 5.221005255198983 2.5 3.8
      vertex 3.6970591405424003 4.468976808099577 3.8
      vertex 3.1077954108781807 4.897101967911687 3.8
    endloop
  endfacet
  facet normal -0.24868988716485493 0.9685831611286312 0
    outer loop
      vertex -1.0868116245972026 5.697266054226394 0.19999999999999996
      vertex -1.4982704367462685 5.591621387177772 3.8
      vertex -1.0868116245972026 5.697266054226394 3.8
    endloop
  endfacet
  facet normal -0.125333233564304 0.9921147013144778 0
    outer loop
      vertex -0.364185013270017 5.7885550248839746 0.19999999999999996
      vertex -1.0868116245972026 5.697266054226394 3.8
      vertex -0.364185013270017 5.7885550248839746 3.8
    endloop
  endfacet
  facet normal 0 1 0
    outer loop
      vertex 0.364185013270017 5.7885550248839746 0.19999999999999996
      vertex -0.364185013270017 5.7885550248839746 3.8
      vertex 0.364185013270017 5.7885550248839746 3.8
    endloop
  endfacet
  facet normal 0.125333233564304 0.9921147013144778 0
    outer loop
      vertex 1.0868116245972026 5.697266054226394 0.19999999999999996
      vertex 0.364185013270017 5.7885550248839746 3.8
      vertex 1.0868116245972026 5.697266054226394 3.8
    endloop
  endfacet
  facet normal 0.3681245526846772 0.9297764858882518 0
    outer loop
      vertex 2.4695198910774216 5.247996904302913 0.19999999999999996
      vertex 1.792298567374695 5.51612779451189 3.8
      vertex 2.4695198910774216 5.247996904302913 3.8
    endloop
  endfacet
  facet normal 0.4817536741017156 0.8763066800438634 0
    outer loop
      vertex 3.1077954108781807 4.897101967911687 0.19999999999999996
      vertex 2.4695198910774216 5.247996904302913 3.8
      vertex 3.1077954108781807 4.897101967911687 3.8
    endloop
  endfacet
  facet normal 0.2486898871648551 0.968583161128631 0
    outer loop
      vertex 1.792298567374695 5.51612779451189 0.19999999999999996
      vertex 1.0868116245972026 5.697266054226394 3.8
      vertex 1.792298567374695 5.51612779451189 3.8
    endloop
  endfacet
  facet normal 0 0 -1
    outer loop
      vertex 5.221005255198982 -2.5 0.2
      vertex 5.392703618151857 -2.1351224055711344 0.2
      vertex 65 -2.5 0.2
    endloop
  endfacet
  facet normal 0 0 -1
    outer loop
      vertex 5.392703618151857 -2.1351224055711344 0.2
      vertex 5.617782334546061 -1.4424013455561557 0.2
      vertex 65 2.5 0.2
    endloop
  endfacet
  facet normal 0 -1 0
    outer loop
      vertex 5.221005255198982 -2.5 0.2
      vertex 65 -2.5 0.2
      vertex 5.221005255198982 -2.5 3.8
    endloop
  endfacet
  facet normal 0 0 1
    outer loop
      vertex 0 -2.5 3.8000000000000003
      vertex 0.1724719643916282 -1.6409611273576508 3.8000000000000003
      vertex 1.3776023956580663e-15 -1.6409611273576508 3.8000000000000003
    endloop
  endfacet
  facet normal 8.505818097153735e-17 -1.7077401299216182e-17 1
    outer loop
      vertex 0 -2.5 3.8000000000000003
      vertex 5.221005255198982 -2.5 3.8
      vertex 0.1724719643916282 -1.6409611273576508 3.8000000000000003
    endloop
  endfacet
  facet normal 4.8854733830602516e-17 -2.298434517700078e-16 1
    outer loop
      vertex 5.221005255198982 -2.5 3.8
      vertex 0.5098780407186632 -1.5692432518870032 3.8000000000000003
      vertex 0.1724719643916282 -1.6409611273576508 3.8000000000000003
    endloop
  endfacet
  facet normal 6.529147942853859e-17 -1.466470638191086e-16 1
    outer loop
      vertex 5.221005255198982 -2.5 3.8
      vertex 0.825 -1.4289419162443235 3.8000000000000003
      vertex 0.5098780407186632 -1.5692432518870032 3.8000000000000003
    endloop
  endfacet
  facet normal 7.565158740794261e-17 -1.0412547716323676e-16 1
    outer loop
      vertex 5.221005255198982 -2.5 3.8
      vertex 1.104065500492116 -1.2261889620377004 3.8000000000000003
      vertex 0.825 -1.4289419162443235 3.8000000000000003
    endloop
  endfacet
  facet normal 8.436530498395402e-17 -7.596286180597292e-17 1
    outer loop
      vertex 5.221005255198982 -2.5 3.8
      vertex 1.3348780407186631 -0.9698456662825806 3.8000000000000003
      vertex 1.104065500492116 -1.2261889620377004 3.8000000000000003
    endloop
  endfacet
  facet normal 5.700314964409309e-16 1.1574817406013776e-15 1
    outer loop
      vertex 5.221005255198982 -2.5 3.8
      vertex 1.5073500051102913 -0.6711154610750703 3.8
      vertex 1.3348780407186631 -0.9698456662825806 3.8000000000000003
    endloop
  endfacet
  facet normal 0 0 1
    outer loop
      vertex 5.221005255198982 -2.5 3.8
      vertex 1.6139435412107792 -0.3430542898493029 3.8
      vertex 1.5073500051102913 -0.6711154610750703 3.8
    endloop
  endfacet
  facet normal 0 0 1
    outer loop
      vertex 5.221005255198982 -2.5 3.8
      vertex 1.65 0 3.8
      vertex 1.6139435412107792 -0.3430542898493029 3.8
    endloop
  endfacet
  facet normal 0 0 1
    outer loop
      vertex 5.221005255198982 -2.5 3.8
      vertex 1.6139435412107792 0.3430542898493029 3.8
      vertex 1.65 0 3.8
    endloop
  endfacet
  facet normal 0 0 1
    outer loop
      vertex 5.221005255198982 -2.5 3.8
      vertex 1.5073500051102913 0.6711154610750703 3.8
      vertex 1.6139435412107792 0.3430542898493029 3.8
    endloop
  endfacet
  facet normal 0 0 1
    outer loop
      vertex 5.221005255198982 -2.5 3.8
      vertex 1.3348780407186631 0.9698456662825806 3.8
      vertex 1.5073500051102913 0.6711154610750703 3.8
    endloop
  endfacet
  facet normal 0 0 1
    outer loop
      vertex 5.221005255198982 -2.5 3.8
      vertex 8 -0.75 3.8
      vertex 8.018277400070666e-15 2.5 3.8
    endloop
  endfacet
  facet normal -7.428850413860214e-18 1.1796992148588802e-17 1
    outer loop
      vertex 5.221005255198982 -2.5 3.8
      vertex 65 -2.5 3.8000000000000003
      vertex 8 -0.75 3.8
    endloop
  endfacet
  facet normal 0 0 -1
    outer loop
      vertex 5.617782334546061 -1.4424013455561557 0.2
      vertex 5.754265267623971 -0.7269327546729636 0.2
      vertex 65 2.5 0.2
    endloop
  endfacet
  facet normal 0 0 -1
    outer loop
      vertex 5.754265267623971 -0.7269327546729636 0.2
      vertex 5.8 -1.1209131688779369e-17 0.2
      vertex 65 2.5 0.2
    endloop
  endfacet
  facet normal 0 0 -1
    outer loop
      vertex 5.8 -1.1209131688779369e-17 0.2
      vertex 5.754265267623971 0.7269327546729647 0.2
      vertex 65 2.5 0.2
    endloop
  endfacet
  facet normal 0 0 -1
    outer loop
      vertex 5.754265267623971 0.7269327546729647 0.2
      vertex 5.61778233454606 1.4424013455561577 0.2
      vertex 65 2.5 0.2
    endloop
  endfacet
  facet normal 0 0 -1
    outer loop
      vertex 5.61778233454606 1.4424013455561577 0.2
      vertex 5.392703618151858 2.135122405571132 0.2
      vertex 65 2.5 0.2
    endloop
  endfacet
  facet normal 0 0 -1
    outer loop
      vertex 5.392703618151858 2.135122405571132 0.2
      vertex 5.221005255198983 2.5 0.2
      vertex 65 2.5 0.2
    endloop
  endfacet
  facet normal 0 0 1
    outer loop
      vertex 5.221005255198982 -2.5 3.8
      vertex 8.018277400070666e-15 2.5 3.8
      vertex 1.3348780407186631 0.9698456662825806 3.8
    endloop
  endfacet
  facet normal 0 0 1
    outer loop
      vertex 8.018277400070666e-15 2.5 3.8
      vertex 0.825 1.4289419162443235 3.8
      vertex 1.104065500492116 1.2261889620377004 3.8
    endloop
  endfacet
  facet normal 0 0 1
    outer loop
      vertex 8.018277400070666e-15 2.5 3.8
      vertex 1.104065500492116 1.2261889620377004 3.8
      vertex 1.3348780407186631 0.9698456662825806 3.8
    endloop
  endfacet
  facet normal 0 0 1
    outer loop
      vertex 8.018277400070666e-15 2.5 3.8
      vertex 6.6406750044126e-15 1.6409611273576508 3.8
      vertex 0.1724719643916282 1.6409611273576508 3.8
    endloop
  endfacet
  facet normal 0 0 1
    outer loop
      vertex 8.018277400070666e-15 2.5 3.8
      vertex 0.1724719643916282 1.6409611273576508 3.8
      vertex 0.5098780407186632 1.5692432518870032 3.8
    endloop
  endfacet
  facet normal 0 0 1
    outer loop
      vertex 8.018277400070666e-15 2.5 3.8
      vertex 0.5098780407186632 1.5692432518870032 3.8
      vertex 0.825 1.4289419162443235 3.8
    endloop
  endfacet
  facet normal 0 0 1
    outer loop
      vertex 8.018277400070666e-15 2.5 3.8
      vertex 8 -0.75 3.8
      vertex 8 0.75 3.8
    endloop
  endfacet
  facet normal 0 1 0
    outer loop
      vertex 5.221005255198983 2.5 0.2
      vertex 5.221005255198983 2.5 3.8
      vertex 65 2.5 3.8000000000000003
    endloop
  endfacet
  facet normal -7.791038769299345e-18 -3.5616177231082683e-17 1
    outer loop
      vertex 8.018277400070666e-15 2.5 3.8
      vertex 8 0.75 3.8
      vertex 65 0.75 3.8000000000000003
    endloop
  endfacet
  facet normal 0 2.5376526277146434e-16 1
    outer loop
      vertex 8.018277400070666e-15 2.5 3.8
      vertex 65 0.75 3.8000000000000003
      vertex 5.221005255198983 2.5 3.8
    endloop
  endfacet
  facet normal 0 0 -1
    outer loop
      vertex 5.392703618151857 -2.1351224055711344 0.2
      vertex 65 2.5 0.2
      vertex 65 -2.5 0.2
    endloop
  endfacet
  facet normal 1 0 0
    outer loop
      vertex 65 -2.5 0.2
      vertex 65 2.5 0.2
      vertex 65 -0.75 1.8
    endloop
  endfacet
  facet normal 1 0 0
    outer loop
      vertex 65 -2.5 0.2
      vertex 65 -0.75 1.8
      vertex 65 -0.75 3.8000000000000003
    endloop
  endfacet
  facet normal 0 -1 0
    outer loop
      vertex 5.221005255198982 -2.5 3.8
      vertex 65 -2.5 0.2
      vertex 65 -2.5 3.8000000000000003
    endloop
  endfacet
  facet normal -7.791038769299344e-18 0 1
    outer loop
      vertex 65 -2.5 3.8000000000000003
      vertex 65 -0.75 3.8000000000000003
      vertex 8 -0.75 3.8
    endloop
  endfacet
  facet normal 1 0 0
    outer loop
      vertex 65 -2.5 0.2
      vertex 65 -0.75 3.8000000000000003
      vertex 65 -2.5 3.8000000000000003
    endloop
  endfacet
  facet normal 0 1 0
    outer loop
      vertex 5.221005255198983 2.5 0.2
      vertex 65 2.5 3.8000000000000003
      vertex 65 2.5 0.2
    endloop
  endfacet
  facet normal 1 0 0
    outer loop
      vertex 65 2.5 0.2
      vertex 65 0.75 1.8
      vertex 65 -0.75 1.8
    endloop
  endfacet
  facet normal 1 0 0
    outer loop
      vertex 65 2.5 0.2
      vertex 65 2.5 3.8000000000000003
      vertex 65 0.75 1.8
    endloop
  endfacet
  facet normal -7.428850413860214e-18 0 1
    outer loop
      vertex 5.221005255198983 2.5 3.8
      vertex 65 0.75 3.8000000000000003
      vertex 65 2.5 3.8000000000000003
    endloop
  endfacet
  facet normal 1 0 0
    outer loop
      vertex 65 2.5 3.8000000000000003
      vertex 65 0.75 3.8000000000000003
      vertex 65 0.75 1.8
    endloop
  endfacet
  facet normal 0.7431448254773945 0.669130606358858 0
    outer loop
      vertex -1.104065500492116 -1.2261889620377004 0.19999999999999996
      vertex -1.3348780407186631 -0.9698456662825806 0.19999999999999996
      vertex -1.3348780407186631 -0.9698456662825806 3.8
    endloop
  endfacet
  facet normal 0.8660254037844388 0.49999999999999983 0
    outer loop
      vertex -1.3348780407186631 -0.9698456662825806 0.19999999999999996
      vertex -1.5073500051102913 -0.6711154610750703 0.19999999999999996
      vertex -1.5073500051102913 -0.6711154610750703 3.8
    endloop
  endfacet
  facet normal 0.9510565162951534 0.3090169943749478 0
    outer loop
      vertex -1.5073500051102913 -0.6711154610750703 0.19999999999999996
      vertex -1.6139435412107792 -0.3430542898493029 0.19999999999999996
      vertex -1.6139435412107792 -0.3430542898493029 3.8
    endloop
  endfacet
  facet normal 0.9945218953682733 0.10452846326765348 0
    outer loop
      vertex -1.6139435412107792 -0.3430542898493029 0.19999999999999996
      vertex -1.65 0 0.19999999999999996
      vertex -1.65 0 3.8
    endloop
  endfacet
  facet normal 0.20791169081775912 0.9781476007338057 0
    outer loop
      vertex -0.45282278438983653 -1.5813707209974603 0.19999999999999996
      vertex -0.5098780407186632 -1.5692432518870032 0.19999999999999996
      vertex -0.5098780407186632 -1.5692432518870032 3.8
    endloop
  endfacet
  facet normal 0.20791169081775923 0.9781476007338056 2.1015529236108398e-18
    outer loop
      vertex -0.45282278438983653 -1.5813707209974603 0.19999999999999996
      vertex -0.5098780407186632 -1.5692432518870032 3.8
      vertex -0.1724719643916282 -1.6409611273576508 0.19999999999999996
    endloop
  endfacet
  facet normal 0 1 0
    outer loop
      vertex -0.1724719643916282 -1.6409611273576508 0.19999999999999996
      vertex -0.1724719643916282 -1.6409611273576508 3.8000000000000003
      vertex 0.1724719643916282 -1.6409611273576508 0.19999999999999996
    endloop
  endfacet
  facet normal 0.40673664307580026 0.9135454576426009 0
    outer loop
      vertex -0.825 -1.4289419162443235 0.19999999999999996
      vertex -0.825 -1.4289419162443235 3.8
      vertex -0.5098780407186632 -1.5692432518870032 0.19999999999999996
    endloop
  endfacet
  facet normal 0.5877852522924727 0.8090169943749479 0
    outer loop
      vertex -0.825 -1.4289419162443235 0.19999999999999996
      vertex -1.104065500492116 -1.2261889620377004 0.19999999999999996
      vertex -1.104065500492116 -1.2261889620377004 3.8
    endloop
  endfacet
  facet normal -0.2079116908177592 0.9781476007338057 0
    outer loop
      vertex 0.1724719643916282 -1.6409611273576508 3.8000000000000003
      vertex 0.5098780407186632 -1.5692432518870032 0.19999999999999996
      vertex 0.1724719643916282 -1.6409611273576508 0.19999999999999996
    endloop
  endfacet
  facet normal -0.40673664307580026 0.9135454576426009 0
    outer loop
      vertex 0.5098780407186632 -1.5692432518870032 3.8000000000000003
      vertex 0.825 -1.4289419162443235 0.19999999999999996
      vertex 0.5098780407186632 -1.5692432518870032 0.19999999999999996
    endloop
  endfacet
  facet normal -0.5877852522924727 0.8090169943749478 0
    outer loop
      vertex 0.825 -1.4289419162443235 0.19999999999999996
      vertex 0.825 -1.4289419162443235 3.8000000000000003
      vertex 1.104065500492116 -1.2261889620377004 0.19999999999999996
    endloop
  endfacet
  facet normal -0.7431448254773945 0.6691306063588581 0
    outer loop
      vertex 1.104065500492116 -1.2261889620377004 0.19999999999999996
      vertex 1.104065500492116 -1.2261889620377004 3.8000000000000003
      vertex 1.3348780407186631 -0.9698456662825806 0.19999999999999996
    endloop
  endfacet
  facet normal -0.8660254037844387 0.4999999999999997 0
    outer loop
      vertex 1.5073500051102913 -0.6711154610750703 0.19999999999999996
      vertex 1.3348780407186631 -0.9698456662825806 0.19999999999999996
      vertex 1.3348780407186631 -0.9698456662825806 3.8000000000000003
    endloop
  endfacet
  facet normal -0.9510565162951534 0.3090169943749478 0
    outer loop
      vertex 1.6139435412107792 -0.3430542898493029 0.19999999999999996
      vertex 1.5073500051102913 -0.6711154610750703 0.19999999999999996
      vertex 1.5073500051102913 -0.6711154610750703 3.8
    endloop
  endfacet
  facet normal -0.9945218953682733 0.10452846326765348 0
    outer loop
      vertex 1.6139435412107792 -0.3430542898493029 0.19999999999999996
      vertex 1.6139435412107792 -0.3430542898493029 3.8
      vertex 1.65 0 0.19999999999999996
    endloop
  endfacet
  facet normal 0.7431448254773945 0.669130606358858 0
    outer loop
      vertex -1.3348780407186631 -0.9698456662825806 3.8
      vertex -1.104065500492116 -1.2261889620377004 3.8
      vertex -1.104065500492116 -1.2261889620377004 0.19999999999999996
    endloop
  endfacet
  facet normal 0.8660254037844388 0.49999999999999983 0
    outer loop
      vertex -1.5073500051102913 -0.6711154610750703 3.8
      vertex -1.3348780407186631 -0.9698456662825806 3.8
      vertex -1.3348780407186631 -0.9698456662825806 0.19999999999999996
    endloop
  endfacet
  facet normal 0.9510565162951534 0.3090169943749478 0
    outer loop
      vertex -1.5073500051102913 -0.6711154610750703 0.19999999999999996
      vertex -1.6139435412107792 -0.3430542898493029 3.8
      vertex -1.5073500051102913 -0.6711154610750703 3.8
    endloop
  endfacet
  facet normal 0.994521895368273 0.10452846326765743 0
    outer loop
      vertex -1.6166298401388868 -0.31749586281430103 3.8
      vertex -1.6139435412107792 -0.3430542898493029 3.8
      vertex -1.6139435412107792 -0.3430542898493029 0.19999999999999996
    endloop
  endfacet
  facet normal 0.9945218953682733 0.10452846326765317 3.0659665464709886e-17
    outer loop
      vertex -1.6166298401388868 -0.31749586281430103 3.8
      vertex -1.6139435412107792 -0.3430542898493029 0.19999999999999996
      vertex -1.65 0 3.8
    endloop
  endfacet
  facet normal 0.40673664307580026 0.9135454576426009 0
    outer loop
      vertex -0.5098780407186632 -1.5692432518870032 0.19999999999999996
      vertex -0.825 -1.4289419162443235 3.8
      vertex -0.5098780407186632 -1.5692432518870032 3.8
    endloop
  endfacet
  facet normal 0.2079116908177592 0.9781476007338057 0
    outer loop
      vertex -0.1724719643916282 -1.6409611273576508 0.19999999999999996
      vertex -0.5098780407186632 -1.5692432518870032 3.8
      vertex -0.1724719643916282 -1.6409611273576508 3.8000000000000003
    endloop
  endfacet
  facet normal 0 1 0
    outer loop
      vertex -0.1724719643916282 -1.6409611273576508 3.8000000000000003
      vertex 1.3776023956580663e-15 -1.6409611273576508 3.8000000000000003
      vertex 0.1724719643916282 -1.6409611273576508 0.19999999999999996
    endloop
  endfacet
  facet normal 0 1 0
    outer loop
      vertex 0.1724719643916282 -1.6409611273576508 3.8000000000000003
      vertex 0.1724719643916282 -1.6409611273576508 0.19999999999999996
      vertex 1.3776023956580663e-15 -1.6409611273576508 3.8000000000000003
    endloop
  endfacet
  facet normal 0.5877852522924727 0.8090169943749479 0
    outer loop
      vertex -0.825 -1.4289419162443235 0.19999999999999996
      vertex -1.104065500492116 -1.2261889620377004 3.8
      vertex -0.825 -1.4289419162443235 3.8
    endloop
  endfacet
  facet normal -0.2079116908177592 0.9781476007338057 0
    outer loop
      vertex 0.5098780407186632 -1.5692432518870032 3.8000000000000003
      vertex 0.5098780407186632 -1.5692432518870032 0.19999999999999996
      vertex 0.1724719643916282 -1.6409611273576508 3.8000000000000003
    endloop
  endfacet
  facet normal -0.40673664307580026 0.9135454576426009 0
    outer loop
      vertex 0.825 -1.4289419162443235 0.19999999999999996
      vertex 0.5098780407186632 -1.5692432518870032 3.8000000000000003
      vertex 0.825 -1.4289419162443235 3.8000000000000003
    endloop
  endfacet
  facet normal -0.5877852522924727 0.8090169943749478 0
    outer loop
      vertex 1.104065500492116 -1.2261889620377004 0.19999999999999996
      vertex 0.825 -1.4289419162443235 3.8000000000000003
      vertex 1.104065500492116 -1.2261889620377004 3.8000000000000003
    endloop
  endfacet
  facet normal -0.7431448254773945 0.6691306063588581 0
    outer loop
      vertex 1.104065500492116 -1.2261889620377004 3.8000000000000003
      vertex 1.3348780407186631 -0.9698456662825806 3.8000000000000003
      vertex 1.3348780407186631 -0.9698456662825806 0.19999999999999996
    endloop
  endfacet
  facet normal -0.8660254037844388 0.49999999999999983 0
    outer loop
      vertex 1.5073500051102913 -0.6711154610750703 0.19999999999999996
      vertex 1.3348780407186631 -0.9698456662825806 3.8000000000000003
      vertex 1.5073500051102913 -0.6711154610750703 3.8
    endloop
  endfacet
  facet normal -0.9510565162951534 0.3090169943749478 0
    outer loop
      vertex 1.6139435412107792 -0.3430542898493029 0.19999999999999996
      vertex 1.5073500051102913 -0.6711154610750703 3.8
      vertex 1.6139435412107792 -0.3430542898493029 3.8
    endloop
  endfacet
  facet normal -0.9945218953682733 0.10452846326765348 0
    outer loop
      vertex 1.65 0 0.19999999999999996
      vertex 1.6139435412107792 -0.3430542898493029 3.8
      vertex 1.65 0 3.8
    endloop
  endfacet
  facet normal 0.9945218953682733 -0.10452846326765348 0
    outer loop
      vertex -1.65 0 0.19999999999999996
      vertex -1.6139435412107792 0.3430542898493029 0.19999999999999996
      vertex -1.6139435412107792 0.3430542898493029 3.8
    endloop
  endfacet
  facet normal 0.9510565162951534 -0.3090169943749478 0
    outer loop
      vertex -1.6139435412107792 0.3430542898493029 0.19999999999999996
      vertex -1.5073500051102913 0.6711154610750703 0.19999999999999996
      vertex -1.5073500051102913 0.6711154610750703 3.8
    endloop
  endfacet
  facet normal 0.8660254037844388 -0.49999999999999983 0
    outer loop
      vertex -1.5073500051102913 0.6711154610750703 0.19999999999999996
      vertex -1.3348780407186631 0.9698456662825806 0.19999999999999996
      vertex -1.3348780407186631 0.9698456662825806 3.8
    endloop
  endfacet
  facet normal 0.7431448254773945 -0.669130606358858 0
    outer loop
      vertex -1.3348780407186631 0.9698456662825806 0.19999999999999996
      vertex -1.104065500492116 1.2261889620377004 0.19999999999999996
      vertex -1.104065500492116 1.2261889620377004 3.8
    endloop
  endfacet
  facet normal -0.7431448254773945 -0.669130606358858 0
    outer loop
      vertex 1.3348780407186631 0.9698456662825806 3.8
      vertex 1.104065500492116 1.2261889620377004 0.19999999999999996
      vertex 1.3348780407186631 0.9698456662825806 0.19999999999999996
    endloop
  endfacet
  facet normal -0.9945218953682733 -0.10452846326765348 0
    outer loop
      vertex 1.65 0 0.19999999999999996
      vertex 1.65 0 3.8
      vertex 1.6139435412107792 0.3430542898493029 0.19999999999999996
    endloop
  endfacet
  facet normal -0.9510565162951534 -0.3090169943749478 0
    outer loop
      vertex 1.5073500051102913 0.6711154610750703 0.19999999999999996
      vertex 1.6139435412107792 0.3430542898493029 0.19999999999999996
      vertex 1.6139435412107792 0.3430542898493029 3.8
    endloop
  endfacet
  facet normal -0.8660254037844388 -0.49999999999999983 0
    outer loop
      vertex 1.3348780407186631 0.9698456662825806 0.19999999999999996
      vertex 1.5073500051102913 0.6711154610750703 0.19999999999999996
      vertex 1.5073500051102913 0.6711154610750703 3.8
    endloop
  endfacet
  facet normal 0.5877852522924727 -0.8090169943749479 0
    outer loop
      vertex -0.825 1.4289419162443235 3.8
      vertex -1.104065500492116 1.2261889620377004 0.19999999999999996
      vertex -0.825 1.4289419162443235 0.19999999999999996
    endloop
  endfacet
  facet normal 0.40673664307580026 -0.9135454576426009 0
    outer loop
      vertex -0.5098780407186632 1.5692432518870032 0.19999999999999996
      vertex -0.5098780407186632 1.5692432518870032 3.8
      vertex -0.825 1.4289419162443235 0.19999999999999996
    endloop
  endfacet
  facet normal 0.20791169081776073 -0.9781476007338054 -1.4418270333236758e-16
    outer loop
      vertex -0.44776645943213483 1.5824454760451558 0.19999999999999996
      vertex -0.1724719643916282 1.6409611273576508 3.8000000000000003
      vertex -0.5098780407186632 1.5692432518870032 0.19999999999999996
    endloop
  endfacet
  facet normal 0.20791169081775887 -0.9781476007338057 0
    outer loop
      vertex -0.1724719643916282 1.6409611273576508 3.8000000000000003
      vertex -0.44776645943213483 1.5824454760451558 0.19999999999999996
      vertex -0.1724719643916282 1.6409611273576508 0.19999999999999996
    endloop
  endfacet
  facet normal 0 -1 0
    outer loop
      vertex 0.1724719643916282 1.6409611273576508 3.8
      vertex -0.1724719643916282 1.6409611273576508 0.19999999999999996
      vertex 0.1724719643916282 1.6409611273576508 0.19999999999999996
    endloop
  endfacet
  facet normal -0.5877852522924727 -0.8090169943749479 0
    outer loop
      vertex 0.825 1.4289419162443235 0.19999999999999996
      vertex 1.104065500492116 1.2261889620377004 0.19999999999999996
      vertex 1.104065500492116 1.2261889620377004 3.8
    endloop
  endfacet
  facet normal -0.40673664307580026 -0.9135454576426009 0
    outer loop
      vertex 0.5098780407186632 1.5692432518870032 0.19999999999999996
      vertex 0.825 1.4289419162443235 0.19999999999999996
      vertex 0.825 1.4289419162443235 3.8
    endloop
  endfacet
  facet normal -0.20791169081775923 -0.9781476007338057 0
    outer loop
      vertex 0.5098780407186632 1.5692432518870032 3.8
      vertex 0.1724719643916282 1.6409611273576508 0.19999999999999996
      vertex 0.5098780407186632 1.5692432518870032 0.19999999999999996
    endloop
  endfacet
  facet normal 0.9945218953682733 -0.10452846326765348 0
    outer loop
      vertex -1.65 0 0.19999999999999996
      vertex -1.6139435412107792 0.3430542898493029 3.8
      vertex -1.65 0 3.8
    endloop
  endfacet
  facet normal 0.9510565162951534 -0.3090169943749478 0
    outer loop
      vertex -1.6139435412107792 0.3430542898493029 0.19999999999999996
      vertex -1.5073500051102913 0.6711154610750703 3.8
      vertex -1.6139435412107792 0.3430542898493029 3.8
    endloop
  endfacet
  facet normal 0.8660254037844392 -0.49999999999999933 0
    outer loop
      vertex -1.4404568607313741 0.7869777858173954 3.8
      vertex -1.5073500051102913 0.6711154610750703 3.8
      vertex -1.5073500051102913 0.6711154610750703 0.19999999999999996
    endloop
  endfacet
  facet normal 0.8660254037844385 -0.5000000000000001 3.8794474813613294e-17
    outer loop
      vertex -1.4404568607313741 0.7869777858173954 3.8
      vertex -1.5073500051102913 0.6711154610750703 0.19999999999999996
      vertex -1.3348780407186631 0.9698456662825806 3.8
    endloop
  endfacet
  facet normal 0.7431448254773945 -0.669130606358858 0
    outer loop
      vertex -1.3348780407186631 0.9698456662825806 0.19999999999999996
      vertex -1.104065500492116 1.2261889620377004 3.8
      vertex -1.3348780407186631 0.9698456662825806 3.8
    endloop
  endfacet
  facet normal -0.7431448254773945 -0.669130606358858 0
    outer loop
      vertex 1.3348780407186631 0.9698456662825806 3.8
      vertex 1.104065500492116 1.2261889620377004 3.8
      vertex 1.104065500492116 1.2261889620377004 0.19999999999999996
    endloop
  endfacet
  facet normal -0.9945218953682733 -0.10452846326765348 0
    outer loop
      vertex 1.6139435412107792 0.3430542898493029 0.19999999999999996
      vertex 1.65 0 3.8
      vertex 1.6139435412107792 0.3430542898493029 3.8
    endloop
  endfacet
  facet normal -0.9510565162951534 -0.3090169943749478 0
    outer loop
      vertex 1.5073500051102913 0.6711154610750703 0.19999999999999996
      vertex 1.6139435412107792 0.3430542898493029 3.8
      vertex 1.5073500051102913 0.6711154610750703 3.8
    endloop
  endfacet
  facet normal -0.8660254037844388 -0.49999999999999983 0
    outer loop
      vertex 1.5073500051102913 0.6711154610750703 3.8
      vertex 1.3348780407186631 0.9698456662825806 3.8
      vertex 1.3348780407186631 0.9698456662825806 0.19999999999999996
    endloop
  endfacet
  facet normal 0.5877852522924727 -0.8090169943749479 0
    outer loop
      vertex -0.825 1.4289419162443235 3.8
      vertex -1.104065500492116 1.2261889620377004 3.8
      vertex -1.104065500492116 1.2261889620377004 0.19999999999999996
    endloop
  endfacet
  facet normal 0.40673664307580026 -0.9135454576426009 0
    outer loop
      vertex -0.5098780407186632 1.5692432518870032 3.8
      vertex -0.825 1.4289419162443235 3.8
      vertex -0.825 1.4289419162443235 0.19999999999999996
    endloop
  endfacet
  facet normal 0.20791169081775923 -0.9781476007338057 0
    outer loop
      vertex -0.5098780407186632 1.5692432518870032 0.19999999999999996
      vertex -0.1724719643916282 1.6409611273576508 3.8000000000000003
      vertex -0.5098780407186632 1.5692432518870032 3.8
    endloop
  endfacet
  facet normal 0 -1 0
    outer loop
      vertex -0.1724719643916282 1.6409611273576508 0.19999999999999996
      vertex 6.6406750044126e-15 1.6409611273576508 3.8
      vertex -0.1724719643916282 1.6409611273576508 3.8000000000000003
    endloop
  endfacet
  facet normal 0 -1 0
    outer loop
      vertex 6.6406750044126e-15 1.6409611273576508 3.8
      vertex -0.1724719643916282 1.6409611273576508 0.19999999999999996
      vertex 0.1724719643916282 1.6409611273576508 3.8
    endloop
  endfacet
  facet normal -0.5877852522924727 -0.8090169943749479 0
    outer loop
      vertex 0.825 1.4289419162443235 0.19999999999999996
      vertex 1.104065500492116 1.2261889620377004 3.8
      vertex 0.825 1.4289419162443235 3.8
    endloop
  endfacet
  facet normal -0.20791169081775923 -0.9781476007338057 0
    outer loop
      vertex 0.1724719643916282 1.6409611273576508 3.8
      vertex 0.1724719643916282 1.6409611273576508 0.19999999999999996
      vertex 0.5098780407186632 1.5692432518870032 3.8
    endloop
  endfacet
  facet normal -0.40673664307580026 -0.9135454576426009 0
    outer loop
      vertex 0.5098780407186632 1.5692432518870032 3.8
      vertex 0.5098780407186632 1.5692432518870032 0.19999999999999996
      vertex 0.825 1.4289419162443235 3.8
    endloop
  endfacet
  facet normal 1 0 0
    outer loop
      vertex 8 -0.75 1.8
      vertex 8 0.75 3.8
      vertex 8 -0.75 3.8
    endloop
  endfacet
  facet normal 0 1 0
    outer loop
      vertex 8 -0.75 1.8
      vertex 8 -0.75 3.8
      vertex 65 -0.75 1.8
    endloop
  endfacet
  facet normal 0 0 1
    outer loop
      vertex 8 -0.75 1.8
      vertex 65 0.75 1.8
      vertex 8 0.75 1.8
    endloop
  endfacet
  facet normal 1 0 0
    outer loop
      vertex 8 -0.75 1.8
      vertex 8 0.75 1.8
      vertex 8 0.75 3.8
    endloop
  endfacet
  facet normal 0 -1 0
    outer loop
      vertex 8 0.75 1.8
      vertex 65 0.75 3.8000000000000003
      vertex 8 0.75 3.8
    endloop
  endfacet
  facet normal 0 0 1
    outer loop
      vertex 8 -0.75 1.8
      vertex 65 -0.75 1.8
      vertex 65 0.75 1.8
    endloop
  endfacet
  facet normal 0 1 0
    outer loop
      vertex 65 -0.75 3.8000000000000003
      vertex 65 -0.75 1.8
      vertex 8 -0.75 3.8
    endloop
  endfacet
  facet normal 0 -1 0
    outer loop
      vertex 8 0.75 1.8
      vertex 65 0.75 1.8
      vertex 65 0.75 3.8000000000000003
    endloop
  endfacet
endsolid OpenSCAD_Model
